Istok-Italic.ufo
<glyph name="parenleft" format="2">
  <advance width="670"/>
  <unicode hex="0028"/>
  <outline>
    <contour>
      <point x="90.0" y="316.0" type="qcurve" smooth="yes"/>
      <point x="90.0" y="603.0"/>
      <point x="393.0" y="1206.0"/>
      <point x="714.0" y="1497.0" type="qcurve" smooth="yes"/>
      <point x="757.0" y="1536.0"/>
      <point x="784.0" y="1511.0" type="qcurve" smooth="yes"/>
      <point x="816.0" y="1481.0" type="line" smooth="yes"/>
      <point x="844.0" y="1455.0"/>
      <point x="809.0" y="1423.0" type="qcurve" smooth="yes"/>
      <point x="687.0" y="1314.0"/>
      <point x="286.0" y="669.0"/>
      <point x="286.0" y="286.0" type="qcurve" smooth="yes"/>
      <point x="286.0" y="45.0"/>
      <point x="348.0" y="-267.0"/>
      <point x="390.0" y="-343.0" type="qcurve" smooth="yes"/>
      <point x="413.0" y="-384.0"/>
      <point x="386.0" y="-402.0" type="qcurve" smooth="yes"/>
      <point x="349.0" y="-426.0" type="line" smooth="yes"/>
      <point x="319.0" y="-445.0"/>
      <point x="283.0" y="-400.0" type="qcurve" smooth="yes"/>
      <point x="189.0" y="-282.0"/>
      <point x="90.0" y="146.0"/>
    </contour>
  </outline>
</glyph>
<glyph name="parenright" format="2">
  <advance width="670"/>
  <unicode hex="0029"/>
  <outline>
    <contour>
      <point x="-135.0" y="-393.0" type="line" smooth="yes"/>
      <point x="-163.0" y="-367.0"/>
      <point x="-128.0" y="-335.0" type="qcurve" smooth="yes"/>
      <point x="-6.0" y="-226.0"/>
      <point x="395.0" y="419.0"/>
      <point x="395.0" y="802.0" type="qcurve" smooth="yes"/>
      <point x="395.0" y="1043.0"/>
      <point x="333.0" y="1355.0"/>
      <point x="291.0" y="1431.0" type="qcurve" smooth="yes"/>
      <point x="268.0" y="1472.0"/>
      <point x="295.0" y="1490.0" type="qcurve" smooth="yes"/>
      <point x="332.0" y="1514.0" type="line" smooth="yes"/>
      <point x="362.0" y="1533.0"/>
      <point x="398.0" y="1488.0" type="qcurve" smooth="yes"/>
      <point x="492.0" y="1370.0"/>
      <point x="591.0" y="942.0"/>
      <point x="591.0" y="772.0" type="qcurve" smooth="yes"/>
      <point x="591.0" y="485.0"/>
      <point x="288.0" y="-118.0"/>
      <point x="-33.0" y="-409.0" type="qcurve" smooth="yes"/>
      <point x="-76.0" y="-448.0"/>
      <point x="-103.0" y="-423.0" type="qcurve" smooth="yes"/>
    </contour>
  </outline>
</glyph>
<glyph name="asterisk" format="2">
  <advance width="940"/>
  <unicode hex="002A"/>
  <outline>
    <contour>
      <point x="494.0" y="1057.0" type="line"/>
      <point x="301.0" y="1150.0" type="line" smooth="yes"/>
      <point x="228.0" y="1185.0"/>
      <point x="285.0" y="1256.0" type="qcurve" smooth="yes"/>
      <point x="293.0" y="1266.0" type="line" smooth="yes"/>
      <point x="350.0" y="1336.0"/>
      <point x="409.0" y="1283.0" type="qcurve" smooth="yes"/>
      <point x="564.0" y="1144.0" type="line"/>
      <point x="591.0" y="1376.0" type="line" smooth="yes"/>
      <point x="601.0" y="1464.0"/>
      <point x="682.0" y="1464.0" type="qcurve" smooth="yes"/>
      <point x="694.0" y="1464.0" type="line" smooth="yes"/>
      <point x="775.0" y="1464.0"/>
      <point x="745.0" y="1376.0" type="qcurve" smooth="yes"/>
      <point x="664.0" y="1144.0" type="line"/>
      <point x="883.0" y="1283.0" type="line" smooth="yes"/>
      <point x="966.0" y="1336.0"/>
      <point x="991.0" y="1266.0" type="qcurve" smooth="yes"/>
      <point x="995.0" y="1256.0" type="line" smooth="yes"/>
      <point x="1020.0" y="1185.0"/>
      <point x="929.0" y="1150.0" type="qcurve" smooth="yes"/>
      <point x="694.0" y="1057.0" type="line"/>
      <point x="887.0" y="965.0" type="line" smooth="yes"/>
      <point x="961.0" y="930.0"/>
      <point x="903.0" y="859.0" type="qcurve" smooth="yes"/>
      <point x="895.0" y="849.0" type="line" smooth="yes"/>
      <point x="838.0" y="779.0"/>
      <point x="779.0" y="831.0" type="qcurve" smooth="yes"/>
      <point x="624.0" y="971.0" type="line"/>
      <point x="598.0" y="739.0" type="line" smooth="yes"/>
      <point x="587.0" y="651.0"/>
      <point x="506.0" y="651.0" type="qcurve" smooth="yes"/>
      <point x="494.0" y="651.0" type="line" smooth="yes"/>
      <point x="413.0" y="651.0"/>
      <point x="444.0" y="739.0" type="qcurve" smooth="yes"/>
      <point x="524.0" y="971.0" type="line"/>
      <point x="305.0" y="831.0" type="line" smooth="yes"/>
      <point x="222.0" y="779.0"/>
      <point x="197.0" y="849.0" type="qcurve" smooth="yes"/>
      <point x="193.0" y="859.0" type="line"/>
      <point x="169.0" y="930.0"/>
      <point x="259.0" y="965.0" type="qcurve" smooth="yes"/>
    </contour>
  </outline>
</glyph>
<glyph name="plus" format="2">
  <advance width="1280"/>
  <unicode hex="002B"/>
  <outline>
    <contour>
      <point x="172.0" y="665.0" type="line" smooth="yes"/>
      <point x="127.0" y="665.0"/>
      <point x="127.0" y="700.0" type="qcurve" smooth="yes"/>
      <point x="127.0" y="750.0" type="line" smooth="yes"/>
      <point x="127.0" y="785.0"/>
      <point x="172.0" y="785.0" type="qcurve" smooth="yes"/>
      <point x="626.0" y="785.0" type="line"/>
      <point x="626.0" y="1240.0" type="line" smooth="yes"/>
      <point x="626.0" y="1285.0"/>
      <point x="661.0" y="1285.0" type="qcurve" smooth="yes"/>
      <point x="711.0" y="1285.0" type="line" smooth="yes"/>
      <point x="746.0" y="1285.0"/>
      <point x="746.0" y="1240.0" type="qcurve" smooth="yes"/>
      <point x="746.0" y="785.0" type="line"/>
      <point x="1202.0" y="785.0" type="line" smooth="yes"/>
      <point x="1247.0" y="785.0"/>
      <point x="1247.0" y="750.0" type="qcurve" smooth="yes"/>
      <point x="1247.0" y="700.0" type="line" smooth="yes"/>
      <point x="1247.0" y="665.0"/>
      <point x="1202.0" y="665.0" type="qcurve" smooth="yes"/>
      <point x="746.0" y="665.0" type="line"/>
      <point x="746.0" y="210.0" type="line" smooth="yes"/>
      <point x="746.0" y="165.0"/>
      <point x="711.0" y="165.0" type="qcurve" smooth="yes"/>
      <point x="661.0" y="165.0" type="line" smooth="yes"/>
      <point x="626.0" y="165.0"/>
      <point x="626.0" y="210.0" type="qcurve" smooth="yes"/>
      <point x="626.0" y="665.0" type="line"/>
    </contour>
  </outline>
</glyph>
<glyph name="zero" format="2">
  <advance width="1110"/>
  <unicode hex="0030"/>
  <outline>
    <contour>
      <point x="104.0" y="440.0" type="qcurve" smooth="yes"/>
      <point x="104.0" y="805.0"/>
      <point x="392.0" y="1452.0"/>
      <point x="717.0" y="1452.0" type="qcurve" smooth="yes"/>
      <point x="907.0" y="1452.0"/>
      <point x="1084.0" y="1182.0"/>
      <point x="1084.0" y="982.0" type="qcurve" smooth="yes"/>
      <point x="1084.0" y="617.0"/>
      <point x="796.0" y="-30.0"/>
      <point x="471.0" y="-30.0" type="qcurve" smooth="yes"/>
      <point x="281.0" y="-30.0"/>
      <point x="104.0" y="240.0"/>
    </contour>
    <contour>
      <point x="290.0" y="410.0" type="qcurve" smooth="yes"/>
      <point x="290.0" y="310.0"/>
      <point x="378.0" y="114.0"/>
      <point x="483.0" y="114.0" type="qcurve" smooth="yes"/>
      <point x="678.0" y="114.0"/>
      <point x="898.0" y="662.0"/>
      <point x="898.0" y="1012.0" type="qcurve" smooth="yes"/>
      <point x="898.0" y="1112.0"/>
      <point x="810.0" y="1308.0"/>
      <point x="705.0" y="1308.0" type="qcurve" smooth="yes"/>
      <point x="510.0" y="1308.0"/>
      <point x="290.0" y="760.0"/>
    </contour>
  </outline>
</glyph>
<glyph name="one" format="2">
  <advance width="827"/>
  <unicode hex="0031"/>
  <outline>
    <contour>
      <point x="302.0" y="1148.0" type="line" smooth="yes"/>
      <point x="291.0" y="1178.0"/>
      <point x="337.0" y="1194.0" type="qcurve" smooth="yes"/>
      <point x="407.0" y="1218.0"/>
      <point x="593.0" y="1354.0"/>
      <point x="644.0" y="1404.0" type="qcurve" smooth="yes"/>
      <point x="681.0" y="1440.0"/>
      <point x="708.0" y="1440.0" type="qcurve" smooth="yes"/>
      <point x="793.0" y="1440.0" type="line" smooth="yes"/>
      <point x="839.0" y="1440.0"/>
      <point x="829.0" y="1395.0" type="qcurve" smooth="yes"/>
      <point x="517.0" y="45.0" type="line" smooth="yes"/>
      <point x="507.0" y="0.0"/>
      <point x="462.0" y="0.0" type="qcurve" smooth="yes"/>
      <point x="376.0" y="0.0" type="line" smooth="yes"/>
      <point x="331.0" y="0.0"/>
      <point x="341.0" y="45.0" type="qcurve" smooth="yes"/>
      <point x="589.0" y="1119.0" type="line" smooth="yes"/>
      <point x="592.0" y="1133.0"/>
      <point x="605.0" y="1179.0" type="qcurve"/>
      <point x="601.0" y="1179.0" type="line"/>
      <point x="567.0" y="1139.0"/>
      <point x="422.0" y="1061.0"/>
      <point x="376.0" y="1048.0" type="qcurve" smooth="yes"/>
      <point x="342.0" y="1038.0"/>
      <point x="331.0" y="1068.0" type="qcurve" smooth="yes"/>
    </contour>
  </outline>
</glyph>
<glyph name="seven" format="2">
  <advance width="1100"/>
  <unicode hex="0037"/>
  <outline>
    <contour>
      <point x="303.0" y="1258.0" type="line" smooth="yes"/>
      <point x="258.0" y="1258.0"/>
      <point x="269.0" y="1303.0" type="qcurve" smooth="yes"/>
      <point x="286.0" y="1377.0" type="line" smooth="yes"/>
      <point x="296.0" y="1422.0"/>
      <point x="341.0" y="1422.0" type="qcurve" smooth="yes"/>
      <point x="1175.0" y="1422.0" type="line" smooth="yes"/>
      <point x="1220.0" y="1422.0"/>
      <point x="1210.0" y="1377.0" type="qcurve" smooth="yes"/>
      <point x="1194.0" y="1308.0" type="line" smooth="yes"/>
      <point x="1186.0" y="1277.0"/>
      <point x="1141.0" y="1236.0" type="qcurve" smooth="yes"/>
      <point x="889.0" y="1009.0"/>
      <point x="517.0" y="445.0"/>
      <point x="445.0" y="133.0" type="qcurve" smooth="yes"/>
      <point x="423.0" y="39.0" type="line" smooth="yes"/>
      <point x="413.0" y="-6.0"/>
      <point x="368.0" y="-6.0" type="qcurve" smooth="yes"/>
      <point x="277.0" y="-6.0" type="line" smooth="yes"/>
      <point x="232.0" y="-6.0"/>
      <point x="242.0" y="39.0" type="qcurve" smooth="yes"/>
      <point x="256.0" y="98.0" type="line" smooth="yes"/>
      <point x="346.0" y="479.0"/>
      <point x="730.0" y="1008.0"/>
      <point x="991.0" y="1258.0" type="qcurve"/>
      <point x="992.0" y="1260.0" type="line"/>
      <point x="961.0" y="1258.0"/>
      <point x="931.0" y="1258.0" type="qcurve" smooth="yes"/>
    </contour>
  </outline>
</glyph>
<glyph name="G" format="2">
  <advance width="1470"/>
  <unicode hex="0047"/>
  <outline>
    <contour>
      <point x="110.0" y="580.0" type="qcurve" smooth="yes"/>
      <point x="110.0" y="975.0"/>
      <point x="531.0" y="1464.0"/>
      <point x="916.0" y="1464.0" type="qcurve" smooth="yes"/>
      <point x="1110.0" y="1464.0"/>
      <point x="1338.0" y="1332.0"/>
      <point x="1382.0" y="1248.0" type="qcurve" smooth="yes"/>
      <point x="1408.0" y="1197.0"/>
      <point x="1363.0" y="1167.0" type="qcurve" smooth="yes"/>
      <point x="1287.0" y="1117.0" type="line" smooth="yes"/>
      <point x="1259.0" y="1098.0"/>
      <point x="1234.0" y="1142.0" type="qcurve" smooth="yes"/>
      <point x="1209.0" y="1185.0"/>
      <point x="1041.0" y="1308.0"/>
      <point x="899.0" y="1308.0" type="qcurve" smooth="yes"/>
      <point x="642.0" y="1308.0"/>
      <point x="315.0" y="942.0"/>
      <point x="315.0" y="557.0" type="qcurve" smooth="yes"/>
      <point x="315.0" y="375.0"/>
      <point x="507.0" y="126.0"/>
      <point x="737.0" y="126.0" type="qcurve" smooth="yes"/>
      <point x="867.0" y="126.0"/>
      <point x="1087.0" y="206.0"/>
      <point x="1139.0" y="262.0" type="qcurve"/>
      <point x="1196.0" y="510.0" type="line"/>
      <point x="899.0" y="510.0" type="line" smooth="yes"/>
      <point x="844.0" y="510.0"/>
      <point x="854.0" y="555.0" type="qcurve" smooth="yes"/>
      <point x="871.0" y="629.0" type="line" smooth="yes"/>
      <point x="882.0" y="674.0"/>
      <point x="937.0" y="674.0" type="qcurve" smooth="yes"/>
      <point x="1371.0" y="674.0" type="line" smooth="yes"/>
      <point x="1426.0" y="674.0"/>
      <point x="1415.0" y="629.0" type="qcurve" smooth="yes"/>
      <point x="1306.0" y="157.0" type="line"/>
      <point x="1164.0" y="51.0"/>
      <point x="908.0" y="-30.0"/>
      <point x="710.0" y="-30.0" type="qcurve" smooth="yes"/>
      <point x="408.0" y="-30.0"/>
      <point x="110.0" y="315.0"/>
    </contour>
  </outline>
</glyph>
<glyph name="I" format="2">
  <advance width="532"/>
  <unicode hex="0049"/>
  <outline>
    <contour>
      <point x="100.0" y="0.0" type="line" smooth="yes"/>
      <point x="50.0" y="0.0"/>
      <point x="63.0" y="55.0" type="qcurve" smooth="yes"/>
      <point x="368.0" y="1379.0" type="line" smooth="yes"/>
      <point x="381.0" y="1434.0"/>
      <point x="431.0" y="1434.0" type="qcurve" smooth="yes"/>
      <point x="523.0" y="1434.0" type="line" smooth="yes"/>
      <point x="573.0" y="1434.0"/>
      <point x="560.0" y="1379.0" type="qcurve" smooth="yes"/>
      <point x="255.0" y="55.0" type="line" smooth="yes"/>
      <point x="242.0" y="0.0"/>
      <point x="192.0" y="0.0" type="qcurve" smooth="yes"/>
    </contour>
  </outline>
</glyph>
<glyph name="J" format="2">
  <advance width="824"/>
  <unicode hex="004A"/>
  <outline>
    <contour>
      <point x="-37.0" y="29.0" type="qcurve" smooth="yes"/>
      <point x="-72.0" y="50.0"/>
      <point x="-50.0" y="94.0" type="qcurve" smooth="yes"/>
      <point x="-14.0" y="165.0" type="line" smooth="yes"/>
      <point x="12.0" y="217.0"/>
      <point x="62.0" y="179.0" type="qcurve" smooth="yes"/>
      <point x="132.0" y="126.0"/>
      <point x="194.0" y="126.0" type="qcurve" smooth="yes"/>
      <point x="291.0" y="126.0"/>
      <point x="401.0" y="256.0"/>
      <point x="429.0" y="378.0" type="qcurve" smooth="yes"/>
      <point x="660.0" y="1379.0" type="line" smooth="yes"/>
      <point x="673.0" y="1434.0"/>
      <point x="723.0" y="1434.0" type="qcurve" smooth="yes"/>
      <point x="815.0" y="1434.0" type="line" smooth="yes"/>
      <point x="865.0" y="1434.0"/>
      <point x="852.0" y="1379.0" type="qcurve" smooth="yes"/>
      <point x="627.0" y="401.0" type="line" smooth="yes"/>
      <point x="587.0" y="225.0"/>
      <point x="403.0" y="-30.0"/>
      <point x="175.0" y="-30.0" type="qcurve" smooth="yes"/>
      <point x="59.0" y="-30.0"/>
    </contour>
  </outline>
</glyph>
<glyph name="O" format="2">
  <advance width="1514"/>
  <unicode hex="004F"/>
  <outline>
    <contour>
      <point x="110.0" y="580.0" type="qcurve" smooth="yes"/>
      <point x="110.0" y="980.0"/>
      <point x="538.0" y="1464.0"/>
      <point x="878.0" y="1464.0" type="qcurve" smooth="yes"/>
      <point x="1183.0" y="1464.0"/>
      <point x="1495.0" y="1139.0"/>
      <point x="1495.0" y="854.0" type="qcurve" smooth="yes"/>
      <point x="1495.0" y="454.0"/>
      <point x="1067.0" y="-30.0"/>
      <point x="727.0" y="-30.0" type="qcurve" smooth="yes"/>
      <point x="422.0" y="-30.0"/>
      <point x="110.0" y="295.0"/>
    </contour>
    <contour>
      <point x="315.0" y="556.0" type="qcurve" smooth="yes"/>
      <point x="315.0" y="351.0"/>
      <point x="528.0" y="126.0"/>
      <point x="738.0" y="126.0" type="qcurve" smooth="yes"/>
      <point x="958.0" y="126.0"/>
      <point x="1290.0" y="493.0"/>
      <point x="1290.0" y="878.0" type="qcurve" smooth="yes"/>
      <point x="1290.0" y="1083.0"/>
      <point x="1077.0" y="1308.0"/>
      <point x="867.0" y="1308.0" type="qcurve" smooth="yes"/>
      <point x="647.0" y="1308.0"/>
      <point x="315.0" y="941.0"/>
    </contour>
  </outline>
</glyph>
<glyph name="U" format="2">
  <advance width="1402"/>
  <unicode hex="0055"/>
  <outline>
    <contour>
      <point x="176.0" y="547.0" type="qcurve" smooth="yes"/>
      <point x="368.0" y="1379.0" type="line" smooth="yes"/>
      <point x="381.0" y="1434.0"/>
      <point x="431.0" y="1434.0" type="qcurve" smooth="yes"/>
      <point x="523.0" y="1434.0" type="line" smooth="yes"/>
      <point x="573.0" y="1434.0"/>
      <point x="560.0" y="1379.0" type="qcurve" smooth="yes"/>
      <point x="375.0" y="577.0" type="line" smooth="yes"/>
      <point x="311.0" y="297.0"/>
      <point x="429.0" y="126.0"/>
      <point x="610.0" y="126.0" type="qcurve" smooth="yes"/>
      <point x="756.0" y="126.0"/>
      <point x="989.0" y="297.0"/>
      <point x="1053.0" y="577.0" type="qcurve" smooth="yes"/>
      <point x="1238.0" y="1379.0" type="line" smooth="yes"/>
      <point x="1251.0" y="1434.0"/>
      <point x="1301.0" y="1434.0" type="qcurve" smooth="yes"/>
      <point x="1393.0" y="1434.0" type="line" smooth="yes"/>
      <point x="1443.0" y="1434.0"/>
      <point x="1430.0" y="1379.0" type="qcurve" smooth="yes"/>
      <point x="1238.0" y="547.0" type="line" smooth="yes"/>
      <point x="1165.0" y="230.0"/>
      <point x="843.0" y="-30.0"/>
      <point x="574.0" y="-30.0" type="qcurve" smooth="yes"/>
      <point x="375.0" y="-30.0"/>
      <point x="103.0" y="230.0"/>
    </contour>
  </outline>
</glyph>
<glyph name="backslash" format="2">
  <advance width="840"/>
  <unicode hex="005C"/>
  <outline>
    <contour>
      <point x="147.0" y="1394.0" type="qcurve" smooth="yes"/>
      <point x="614.0" y="-377.0" type="line" smooth="yes"/>
      <point x="624.0" y="-415.0"/>
      <point x="659.0" y="-406.0" type="qcurve" smooth="yes"/>
      <point x="705.0" y="-394.0" type="line" smooth="yes"/>
      <point x="742.0" y="-384.0"/>
      <point x="730.0" y="-338.0" type="qcurve" smooth="yes"/>
      <point x="264.0" y="1433.0" type="line" smooth="yes"/>
      <point x="254.0" y="1470.0"/>
      <point x="217.0" y="1461.0" type="qcurve" smooth="yes"/>
      <point x="170.0" y="1449.0" type="line" smooth="yes"/>
      <point x="135.0" y="1440.0"/>
    </contour>
  </outline>
</glyph>
<glyph name="a" format="2">
  <advance width="1099"/>
  <unicode hex="0061"/>
  <outline>
    <contour>
      <point x="66.0" y="339.0" type="qcurve" smooth="yes"/>
      <point x="66.0" y="614.0"/>
      <point x="439.0" y="1067.0"/>
      <point x="644.0" y="1067.0" type="qcurve" smooth="yes"/>
      <point x="734.0" y="1067.0"/>
      <point x="850.0" y="992.0"/>
      <point x="878.0" y="942.0" type="qcurve"/>
      <point x="880.0" y="942.0" type="line"/>
      <point x="901.0" y="1005.0" type="line" smooth="yes"/>
      <point x="916.0" y="1050.0"/>
      <point x="950.0" y="1050.0" type="qcurve" smooth="yes"/>
      <point x="1034.0" y="1050.0" type="line" smooth="yes"/>
      <point x="1079.0" y="1050.0"/>
      <point x="1069.0" y="1005.0" type="qcurve" smooth="yes"/>
      <point x="847.0" y="45.0" type="line" smooth="yes"/>
      <point x="837.0" y="0.0"/>
      <point x="792.0" y="0.0" type="qcurve" smooth="yes"/>
      <point x="711.0" y="0.0" type="line" smooth="yes"/>
      <point x="667.0" y="0.0"/>
      <point x="676.0" y="45.0" type="qcurve" smooth="yes"/>
      <point x="701.0" y="165.0" type="line"/>
      <point x="699.0" y="165.0" type="line"/>
      <point x="650.0" y="100.0"/>
      <point x="487.0" y="-17.0"/>
      <point x="387.0" y="-17.0" type="qcurve" smooth="yes"/>
      <point x="242.0" y="-17.0"/>
      <point x="66.0" y="158.0"/>
    </contour>
    <contour>
      <point x="252.0" y="332.0" type="qcurve" smooth="yes"/>
      <point x="252.0" y="266.0"/>
      <point x="323.0" y="113.0"/>
      <point x="433.0" y="113.0" type="qcurve" smooth="yes"/>
      <point x="523.0" y="113.0"/>
      <point x="741.0" y="351.0"/>
      <point x="771.0" y="480.0" type="qcurve" smooth="yes"/>
      <point x="838.0" y="770.0" type="line"/>
      <point x="838.0" y="860.0"/>
      <point x="723.0" y="937.0"/>
      <point x="638.0" y="937.0" type="qcurve" smooth="yes"/>
      <point x="498.0" y="937.0"/>
      <point x="252.0" y="578.0"/>
    </contour>
  </outline>
</glyph>
<glyph name="d" format="2">
  <advance width="1119"/>
  <unicode hex="0064"/>
  <outline>
    <contour>
      <point x="70.0" y="379.0" type="qcurve" smooth="yes"/>
      <point x="70.0" y="634.0"/>
      <point x="392.0" y="1067.0"/>
      <point x="610.0" y="1067.0" type="qcurve" smooth="yes"/>
      <point x="721.0" y="1067.0"/>
      <point x="845.0" y="1000.0"/>
      <point x="896.0" y="932.0" type="qcurve"/>
      <point x="898.0" y="932.0" type="line"/>
      <point x="901.0" y="956.0"/>
      <point x="910.0" y="993.0" type="qcurve" smooth="yes"/>
      <point x="1011.0" y="1431.0" type="line" smooth="yes"/>
      <point x="1021.0" y="1476.0"/>
      <point x="1066.0" y="1476.0" type="qcurve" smooth="yes"/>
      <point x="1152.0" y="1476.0" type="line" smooth="yes"/>
      <point x="1197.0" y="1476.0"/>
      <point x="1187.0" y="1431.0" type="qcurve" smooth="yes"/>
      <point x="867.0" y="45.0" type="line" smooth="yes"/>
      <point x="857.0" y="0.0"/>
      <point x="812.0" y="0.0" type="qcurve" smooth="yes"/>
      <point x="728.0" y="0.0" type="line" smooth="yes"/>
      <point x="691.0" y="0.0"/>
      <point x="699.0" y="45.0" type="qcurve" smooth="yes"/>
      <point x="721.0" y="165.0" type="line"/>
      <point x="719.0" y="165.0" type="line"/>
      <point x="675.0" y="86.0"/>
      <point x="489.0" y="-17.0"/>
      <point x="409.0" y="-17.0" type="qcurve" smooth="yes"/>
      <point x="219.0" y="-17.0"/>
      <point x="70.0" y="216.0"/>
    </contour>
    <contour>
      <point x="256.0" y="372.0" type="qcurve" smooth="yes"/>
      <point x="256.0" y="268.0"/>
      <point x="346.0" y="113.0"/>
      <point x="459.0" y="113.0" type="qcurve" smooth="yes"/>
      <point x="557.0" y="113.0"/>
      <point x="760.0" y="348.0"/>
      <point x="791.0" y="480.0" type="qcurve" smooth="yes"/>
      <point x="856.0" y="760.0" type="line"/>
      <point x="846.0" y="860.0"/>
      <point x="736.0" y="937.0"/>
      <point x="624.0" y="937.0" type="qcurve" smooth="yes"/>
      <point x="472.0" y="937.0"/>
      <point x="256.0" y="598.0"/>
    </contour>
  </outline>
</glyph>
<glyph name="h" format="2">
  <advance width="1128"/>
  <unicode hex="0068"/>
  <outline>
    <contour>
      <point x="67.0" y="0.0" type="line" smooth="yes"/>
      <point x="22.0" y="0.0"/>
      <point x="32.0" y="45.0" type="qcurve" smooth="yes"/>
      <point x="352.0" y="1431.0" type="line" smooth="yes"/>
      <point x="362.0" y="1476.0"/>
      <point x="408.0" y="1476.0" type="qcurve" smooth="yes"/>
      <point x="494.0" y="1476.0" type="line" smooth="yes"/>
      <point x="538.0" y="1476.0"/>
      <point x="528.0" y="1431.0" type="qcurve" smooth="yes"/>
      <point x="416.0" y="945.0" type="line" smooth="yes"/>
      <point x="410.0" y="917.0"/>
      <point x="401.0" y="885.0" type="qcurve"/>
      <point x="405.0" y="885.0" type="line"/>
      <point x="464.0" y="958.0"/>
      <point x="653.0" y="1067.0"/>
      <point x="773.0" y="1067.0" type="qcurve" smooth="yes"/>
      <point x="943.0" y="1067.0"/>
      <point x="1067.0" y="862.0"/>
      <point x="1026.0" y="684.0" type="qcurve" smooth="yes"/>
      <point x="878.0" y="45.0" type="line" smooth="yes"/>
      <point x="868.0" y="0.0"/>
      <point x="823.0" y="0.0" type="qcurve" smooth="yes"/>
      <point x="737.0" y="0.0" type="line" smooth="yes"/>
      <point x="692.0" y="0.0"/>
      <point x="702.0" y="45.0" type="qcurve" smooth="yes"/>
      <point x="839.0" y="636.0" type="line" smooth="yes"/>
      <point x="884.0" y="832.0"/>
      <point x="788.0" y="937.0"/>
      <point x="678.0" y="937.0" type="qcurve" smooth="yes"/>
      <point x="558.0" y="937.0"/>
      <point x="361.0" y="704.0"/>
      <point x="326.0" y="554.0" type="qcurve" smooth="yes"/>
      <point x="208.0" y="45.0" type="line" smooth="yes"/>
      <point x="198.0" y="0.0"/>
      <point x="153.0" y="0.0" type="qcurve" smooth="yes"/>
    </contour>
  </outline>
</glyph>
<glyph name="m" format="2">
  <advance width="1678"/>
  <unicode hex="006D"/>
  <outline>
    <contour>
      <point x="67.0" y="0.0" type="line" smooth="yes"/>
      <point x="22.0" y="0.0"/>
      <point x="32.0" y="45.0" type="qcurve" smooth="yes"/>
      <point x="254.0" y="1005.0" type="line" smooth="yes"/>
      <point x="264.0" y="1050.0"/>
      <point x="309.0" y="1050.0" type="qcurve" smooth="yes"/>
      <point x="393.0" y="1050.0" type="line" smooth="yes"/>
      <point x="438.0" y="1050.0"/>
      <point x="428.0" y="1005.0" type="qcurve" smooth="yes"/>
      <point x="401.0" y="885.0" type="line"/>
      <point x="405.0" y="885.0" type="line"/>
      <point x="464.0" y="957.0"/>
      <point x="643.0" y="1067.0"/>
      <point x="733.0" y="1067.0" type="qcurve" smooth="yes"/>
      <point x="843.0" y="1067.0"/>
      <point x="968.0" y="928.0"/>
      <point x="968.0" y="833.0" type="qcurve"/>
      <point x="972.0" y="833.0" type="line"/>
      <point x="1035.0" y="915.0"/>
      <point x="1228.0" y="1067.0"/>
      <point x="1343.0" y="1067.0" type="qcurve" smooth="yes"/>
      <point x="1483.0" y="1067.0"/>
      <point x="1617.0" y="862.0"/>
      <point x="1576.0" y="684.0" type="qcurve" smooth="yes"/>
      <point x="1428.0" y="45.0" type="line" smooth="yes"/>
      <point x="1418.0" y="0.0"/>
      <point x="1373.0" y="0.0" type="qcurve" smooth="yes"/>
      <point x="1287.0" y="0.0" type="line" smooth="yes"/>
      <point x="1242.0" y="0.0"/>
      <point x="1252.0" y="45.0" type="qcurve" smooth="yes"/>
      <point x="1387.0" y="626.0" type="line" smooth="yes"/>
      <point x="1432.0" y="821.0"/>
      <point x="1368.0" y="937.0"/>
      <point x="1258.0" y="937.0" type="qcurve" smooth="yes"/>
      <point x="1168.0" y="937.0"/>
      <point x="969.0" y="696.0"/>
      <point x="936.0" y="554.0" type="qcurve" smooth="yes"/>
      <point x="818.0" y="45.0" type="line" smooth="yes"/>
      <point x="808.0" y="0.0"/>
      <point x="763.0" y="0.0" type="qcurve" smooth="yes"/>
      <point x="677.0" y="0.0" type="line" smooth="yes"/>
      <point x="632.0" y="-0.0"/>
      <point x="642.0" y="45.0" type="qcurve" smooth="yes"/>
      <point x="777.0" y="626.0" type="line" smooth="yes"/>
      <point x="822.0" y="821.0"/>
      <point x="758.0" y="937.0"/>
      <point x="648.0" y="937.0" type="qcurve" smooth="yes"/>
      <point x="558.0" y="937.0"/>
      <point x="361.0" y="704.0"/>
      <point x="326.0" y="554.0" type="qcurve" smooth="yes"/>
      <point x="208.0" y="45.0" type="line" smooth="yes"/>
      <point x="198.0" y="0.0"/>
      <point x="153.0" y="0.0" type="qcurve" smooth="yes"/>
    </contour>
  </outline>
</glyph>
<glyph name="n" format="2">
  <advance width="1128"/>
  <unicode hex="006E"/>
  <outline>
    <contour>
      <point x="67.0" y="0.0" type="line" smooth="yes"/>
      <point x="22.0" y="0.0"/>
      <point x="32.0" y="45.0" type="qcurve" smooth="yes"/>
      <point x="254.0" y="1005.0" type="line" smooth="yes"/>
      <point x="264.0" y="1050.0"/>
      <point x="309.0" y="1050.0" type="qcurve" smooth="yes"/>
      <point x="393.0" y="1050.0" type="line" smooth="yes"/>
      <point x="438.0" y="1050.0"/>
      <point x="428.0" y="1005.0" type="qcurve" smooth="yes"/>
      <point x="401.0" y="885.0" type="line"/>
      <point x="405.0" y="885.0" type="line"/>
      <point x="464.0" y="958.0"/>
      <point x="653.0" y="1067.0"/>
      <point x="773.0" y="1067.0" type="qcurve" smooth="yes"/>
      <point x="943.0" y="1067.0"/>
      <point x="1067.0" y="862.0"/>
      <point x="1026.0" y="684.0" type="qcurve" smooth="yes"/>
      <point x="878.0" y="45.0" type="line" smooth="yes"/>
      <point x="868.0" y="0.0"/>
      <point x="823.0" y="0.0" type="qcurve" smooth="yes"/>
      <point x="737.0" y="0.0" type="line" smooth="yes"/>
      <point x="692.0" y="0.0"/>
      <point x="702.0" y="45.0" type="qcurve" smooth="yes"/>
      <point x="839.0" y="636.0" type="line" smooth="yes"/>
      <point x="884.0" y="832.0"/>
      <point x="788.0" y="937.0"/>
      <point x="678.0" y="937.0" type="qcurve" smooth="yes"/>
      <point x="558.0" y="937.0"/>
      <point x="361.0" y="704.0"/>
      <point x="326.0" y="554.0" type="qcurve" smooth="yes"/>
      <point x="208.0" y="45.0" type="line" smooth="yes"/>
      <point x="198.0" y="0.0"/>
      <point x="153.0" y="0.0" type="qcurve" smooth="yes"/>
    </contour>
  </outline>
</glyph>
<glyph name="y" format="2">
  <advance width="1128"/>
  <unicode hex="0079"/>
  <outline>
    <contour>
      <point x="106.0" y="366.0" type="qcurve" smooth="yes"/>
      <point x="254.0" y="1005.0" type="line" smooth="yes"/>
      <point x="264.0" y="1050.0"/>
      <point x="309.0" y="1050.0" type="qcurve" smooth="yes"/>
      <point x="395.0" y="1050.0" type="line" smooth="yes"/>
      <point x="440.0" y="1050.0"/>
      <point x="430.0" y="1005.0" type="qcurve" smooth="yes"/>
      <point x="294.0" y="414.0" type="line" smooth="yes"/>
      <point x="249.0" y="217.0"/>
      <point x="344.0" y="113.0"/>
      <point x="454.0" y="113.0" type="qcurve" smooth="yes"/>
      <point x="560.0" y="113.0"/>
      <point x="771.0" y="340.0"/>
      <point x="807.0" y="496.0" type="qcurve" smooth="yes"/>
      <point x="924.0" y="1005.0" type="line" smooth="yes"/>
      <point x="934.0" y="1050.0"/>
      <point x="979.0" y="1050.0" type="qcurve" smooth="yes"/>
      <point x="1065.0" y="1050.0" type="line" smooth="yes"/>
      <point x="1110.0" y="1050.0"/>
      <point x="1100.0" y="1005.0" type="qcurve" smooth="yes"/>
      <point x="866.0" y="-9.0" type="line" smooth="yes"/>
      <point x="819.0" y="-214.0"/>
      <point x="597.0" y="-417.0"/>
      <point x="334.0" y="-417.0" type="qcurve" smooth="yes"/>
      <point x="163.0" y="-417.0"/>
      <point x="33.0" y="-351.0"/>
      <point x="0.0" y="-306.0" type="qcurve" smooth="yes"/>
      <point x="-29.0" y="-266.0"/>
      <point x="2.0" y="-238.0" type="qcurve" smooth="yes"/>
      <point x="58.0" y="-186.0" type="line" smooth="yes"/>
      <point x="90.0" y="-157.0"/>
      <point x="108.0" y="-186.0" type="qcurve" smooth="yes"/>
      <point x="138.0" y="-234.0"/>
      <point x="252.0" y="-287.0"/>
      <point x="365.0" y="-287.0" type="qcurve" smooth="yes"/>
      <point x="486.0" y="-287.0"/>
      <point x="657.0889892578125" y="-149.87899780273438"/>
      <point x="694.0" y="10.0" type="qcurve" smooth="yes"/>
      <point x="717.4329833984375" y="111.5"/>
      <point x="731.0" y="165.0" type="qcurve"/>
      <point x="727.0" y="165.0" type="line"/>
      <point x="668.0" y="92.0"/>
      <point x="486.0" y="-17.0"/>
      <point x="359.0" y="-17.0" type="qcurve" smooth="yes"/>
      <point x="189.0" y="-17.0"/>
      <point x="65.0" y="188.0"/>
    </contour>
  </outline>
</glyph>
<glyph name="z" format="2">
  <advance width="950"/>
  <unicode hex="007A"/>
  <outline>
    <contour>
      <point x="-20.0" y="0.0" type="line" smooth="yes"/>
      <point x="-65.0" y="0.0"/>
      <point x="-57.0" y="35.0" type="qcurve" smooth="yes"/>
      <point x="-45.0" y="86.0" type="line" smooth="yes"/>
      <point x="-37.0" y="120.0"/>
      <point x="8.0" y="166.0" type="qcurve" smooth="yes"/>
      <point x="745.0" y="918.0" type="line"/>
      <point x="745.0" y="920.0" type="line"/>
      <point x="715.0" y="918.0"/>
      <point x="685.0" y="918.0" type="qcurve" smooth="yes"/>
      <point x="216.0" y="918.0" type="line" smooth="yes"/>
      <point x="171.0" y="918.0"/>
      <point x="179.0" y="953.0" type="qcurve" smooth="yes"/>
      <point x="193.0" y="1015.0" type="line" smooth="yes"/>
      <point x="201.0" y="1050.0"/>
      <point x="246.0" y="1050.0" type="qcurve" smooth="yes"/>
      <point x="948.0" y="1050.0" type="line" smooth="yes"/>
      <point x="993.0" y="1050.0"/>
      <point x="985.0" y="1015.0" type="qcurve" smooth="yes"/>
      <point x="974.0" y="968.0" type="line" smooth="yes"/>
      <point x="967.0" y="940.0"/>
      <point x="919.0" y="890.0" type="qcurve" smooth="yes"/>
      <point x="179.0" y="132.0" type="line"/>
      <point x="179.0" y="130.0" type="line"/>
      <point x="209.0" y="132.0"/>
      <point x="239.0" y="132.0" type="qcurve" smooth="yes"/>
      <point x="760.0" y="132.0" type="line" smooth="yes"/>
      <point x="805.0" y="132.0"/>
      <point x="797.0" y="97.0" type="qcurve" smooth="yes"/>
      <point x="783.0" y="35.0" type="line" smooth="yes"/>
      <point x="775.0" y="0.0"/>
      <point x="730.0" y="0.0" type="qcurve" smooth="yes"/>
    </contour>
  </outline>
</glyph>
<glyph name="exclamdown" format="2">
  <advance width="600"/>
  <unicode hex="00A1"/>
  <outline>
    <contour>
      <point x="39.0" y="-384.0" type="line" smooth="yes"/>
      <point x="-11.0" y="-384.0"/>
      <point x="2.0" y="-329.0" type="qcurve" smooth="yes"/>
      <point x="241.0" y="615.0" type="line" smooth="yes"/>
      <point x="252.0" y="660.0"/>
      <point x="296.0" y="660.0" type="qcurve" smooth="yes"/>
      <point x="368.0" y="660.0" type="line" smooth="yes"/>
      <point x="413.0" y="660.0"/>
      <point x="403.0" y="615.0" type="qcurve" smooth="yes"/>
      <point x="206.0" y="-329.0" type="line" smooth="yes"/>
      <point x="195.0" y="-384.0"/>
      <point x="143.0" y="-384.0" type="qcurve" smooth="yes"/>
    </contour>
    <contour>
      <point x="317.0" y="838.0" type="line" smooth="yes"/>
      <point x="272.0" y="838.0"/>
      <point x="282.0" y="883.0" type="qcurve" smooth="yes"/>
      <point x="311.0" y="1005.0" type="line" smooth="yes"/>
      <point x="321.0" y="1050.0"/>
      <point x="366.0" y="1050.0" type="qcurve" smooth="yes"/>
      <point x="478.0" y="1050.0" type="line" smooth="yes"/>
      <point x="523.0" y="1050.0"/>
      <point x="513.0" y="1005.0" type="qcurve" smooth="yes"/>
      <point x="484.0" y="883.0" type="line" smooth="yes"/>
      <point x="474.0" y="838.0"/>
      <point x="429.0" y="838.0" type="qcurve" smooth="yes"/>
    </contour>
  </outline>
</glyph>
<glyph name="cent" format="2">
  <advance width="1110"/>
  <unicode hex="00A2"/>
  <outline>
    <contour>
      <point x="118.0" y="402.0" type="qcurve" smooth="yes"/>
      <point x="118.0" y="667.0"/>
      <point x="435.0" y="1055.0"/>
      <point x="678.0" y="1066.0" type="qcurve"/>
      <point x="721.0" y="1252.0" type="line" smooth="yes"/>
      <point x="731.0" y="1297.0"/>
      <point x="766.0" y="1297.0" type="qcurve" smooth="yes"/>
      <point x="816.0" y="1297.0" type="line" smooth="yes"/>
      <point x="851.0" y="1297.0"/>
      <point x="841.0" y="1252.0" type="qcurve" smooth="yes"/>
      <point x="797.0" y="1062.0" type="line"/>
      <point x="892.0" y="1050.0"/>
      <point x="1010.0" y="954.0"/>
      <point x="1041.0" y="886.0" type="qcurve" smooth="yes"/>
      <point x="1057.0" y="850.0"/>
      <point x="1027.0" y="834.0" type="qcurve" smooth="yes"/>
      <point x="961.0" y="799.0" type="line" smooth="yes"/>
      <point x="927.0" y="781.0"/>
      <point x="908.0" y="824.0" type="qcurve" smooth="yes"/>
      <point x="894.0" y="856.0"/>
      <point x="814.0" y="921.0"/>
      <point x="767.0" y="931.0" type="qcurve"/>
      <point x="578.0" y="114.0" type="line"/>
      <point x="663.0" y="120.0"/>
      <point x="786.0" y="220.0"/>
      <point x="814.0" y="262.0" type="qcurve" smooth="yes"/>
      <point x="837.0" y="297.0"/>
      <point x="867.0" y="276.0" type="qcurve" smooth="yes"/>
      <point x="930.0" y="230.0" type="line" smooth="yes"/>
      <point x="959.0" y="209.0"/>
      <point x="935.0" y="175.0" type="qcurve" smooth="yes"/>
      <point x="906.0" y="135.0"/>
      <point x="713.0" y="-15.0"/>
      <point x="548.0" y="-17.0" type="qcurve"/>
      <point x="505.0" y="-202.0" type="line" smooth="yes"/>
      <point x="495.0" y="-247.0"/>
      <point x="460.0" y="-247.0" type="qcurve" smooth="yes"/>
      <point x="410.0" y="-247.0" type="line" smooth="yes"/>
      <point x="375.0" y="-247.0"/>
      <point x="385.0" y="-202.0" type="qcurve" smooth="yes"/>
      <point x="430.0" y="-9.0" type="line"/>
      <point x="281.0" y="16.0"/>
      <point x="118.0" y="250.0"/>
    </contour>
    <contour>
      <point x="304.0" y="387.0" type="qcurve" smooth="yes"/>
      <point x="304.0" y="265.0"/>
      <point x="398.0" y="143.0"/>
      <point x="460.0" y="125.0" type="qcurve"/>
      <point x="647.0" y="933.0" type="line"/>
      <point x="521.0" y="914.0"/>
      <point x="304.0" y="657.0"/>
    </contour>
  </outline>
</glyph>
<glyph name="sterling" format="2">
  <advance width="1110"/>
  <unicode hex="00A3"/>
  <outline>
    <contour>
      <point x="14.0" y="0.0" type="line" smooth="yes"/>
      <point x="-42.0" y="0.0"/>
      <point x="-31.0" y="45.0" type="qcurve" smooth="yes"/>
      <point x="-17.0" y="102.0" type="line" smooth="yes"/>
      <point x="-7.0" y="143.0"/>
      <point x="34.0" y="175.0" type="qcurve" smooth="yes"/>
      <point x="88.0" y="216.0"/>
      <point x="250.0" y="382.0"/>
      <point x="275.0" y="492.0" type="qcurve" smooth="yes"/>
      <point x="306.0" y="628.0" type="line"/>
      <point x="148.0" y="628.0" type="line" smooth="yes"/>
      <point x="104.0" y="628.0"/>
      <point x="114.0" y="673.0" type="qcurve" smooth="yes"/>
      <point x="131.0" y="747.0" type="line" smooth="yes"/>
      <point x="141.0" y="792.0"/>
      <point x="187.0" y="792.0" type="qcurve" smooth="yes"/>
      <point x="344.0" y="792.0" type="line"/>
      <point x="395.0" y="1013.0" type="line" smooth="yes"/>
      <point x="452.0" y="1260.0"/>
      <point x="688.0" y="1452.0"/>
      <point x="891.0" y="1452.0" type="qcurve" smooth="yes"/>
      <point x="999.0" y="1452.0"/>
      <point x="1140.0" y="1379.0"/>
      <point x="1177.0" y="1335.0" type="qcurve" smooth="yes"/>
      <point x="1203.0" y="1303.0"/>
      <point x="1176.0" y="1274.0" type="qcurve" smooth="yes"/>
      <point x="1135.0" y="1230.0" type="line" smooth="yes"/>
      <point x="1106.0" y="1198.0"/>
      <point x="1069.0" y="1232.0" type="qcurve" smooth="yes"/>
      <point x="1038.0" y="1260.0"/>
      <point x="936.0" y="1302.0"/>
      <point x="867.0" y="1302.0" type="qcurve" smooth="yes"/>
      <point x="753.0" y="1302.0"/>
      <point x="608.0" y="1176.0"/>
      <point x="576.0" y="1035.0" type="qcurve" smooth="yes"/>
      <point x="520.0" y="792.0" type="line"/>
      <point x="805.0" y="792.0" type="line" smooth="yes"/>
      <point x="849.0" y="792.0"/>
      <point x="839.0" y="747.0" type="qcurve" smooth="yes"/>
      <point x="822.0" y="673.0" type="line" smooth="yes"/>
      <point x="812.0" y="628.0"/>
      <point x="768.0" y="628.0" type="qcurve" smooth="yes"/>
      <point x="482.0" y="628.0" type="line"/>
      <point x="451.0" y="495.0" type="line" smooth="yes"/>
      <point x="420.0" y="362.0"/>
      <point x="289.0" y="194.0"/>
      <point x="237.0" y="166.0" type="qcurve"/>
      <point x="237.0" y="162.0" type="line"/>
      <point x="264.0" y="164.0"/>
      <point x="318.0" y="164.0" type="qcurve" smooth="yes"/>
      <point x="889.0" y="164.0" type="line" smooth="yes"/>
      <point x="943.0" y="164.0"/>
      <point x="933.0" y="119.0" type="qcurve" smooth="yes"/>
      <point x="916.0" y="45.0" type="line" smooth="yes"/>
      <point x="906.0" y="0.0"/>
      <point x="851.0" y="0.0" type="qcurve" smooth="yes"/>
    </contour>
  </outline>
</glyph>
<glyph name="yen" format="2">
  <advance width="1110"/>
  <unicode hex="00A5"/>
  <outline>
    <contour>
      <point x="211.0" y="1368.0" type="line" smooth="yes"/>
      <point x="188.0" y="1434.0"/>
      <point x="253.0" y="1434.0" type="qcurve" smooth="yes"/>
      <point x="333.0" y="1434.0" type="line" smooth="yes"/>
      <point x="380.0" y="1434.0"/>
      <point x="394.0" y="1385.0" type="qcurve" smooth="yes"/>
      <point x="519.0" y="948.0" type="line" smooth="yes"/>
      <point x="542.0" y="868.0"/>
      <point x="571.0" y="769.0"/>
      <point x="585.0" y="709.0" type="qcurve"/>
      <point x="589.0" y="709.0" type="line"/>
      <point x="631.0" y="769.0"/>
      <point x="707.0" y="871.0"/>
      <point x="765.0" y="948.0" type="qcurve" smooth="yes"/>
      <point x="1092.0" y="1385.0" type="line" smooth="yes"/>
      <point x="1129.0" y="1434.0"/>
      <point x="1175.0" y="1434.0" type="qcurve" smooth="yes"/>
      <point x="1279.0" y="1434.0" type="line" smooth="yes"/>
      <point x="1345.0" y="1434.0"/>
      <point x="1291.0" y="1368.0" type="qcurve" smooth="yes"/>
      <point x="781.0" y="739.0" type="line"/>
      <point x="957.0" y="739.0" type="line" smooth="yes"/>
      <point x="1001.0" y="739.0"/>
      <point x="991.0" y="694.0" type="qcurve" smooth="yes"/>
      <point x="978.0" y="635.0" type="line" smooth="yes"/>
      <point x="968.0" y="590.0"/>
      <point x="922.0" y="590.0" type="qcurve" smooth="yes"/>
      <point x="659.0" y="590.0" type="line"/>
      <point x="617.0" y="409.0" type="line"/>
      <point x="880.0" y="409.0" type="line" smooth="yes"/>
      <point x="926.0" y="409.0"/>
      <point x="915.0" y="364.0" type="qcurve" smooth="yes"/>
      <point x="901.0" y="305.0" type="line" smooth="yes"/>
      <point x="890.0" y="260.0"/>
      <point x="846.0" y="260.0" type="qcurve" smooth="yes"/>
      <point x="583.0" y="260.0" type="line"/>
      <point x="533.0" y="45.0" type="line" smooth="yes"/>
      <point x="523.0" y="0.0"/>
      <point x="478.0" y="0.0" type="qcurve" smooth="yes"/>
      <point x="392.0" y="0.0" type="line" smooth="yes"/>
      <point x="347.0" y="0.0"/>
      <point x="357.0" y="45.0" type="qcurve" smooth="yes"/>
      <point x="407.0" y="260.0" type="line"/>
      <point x="134.0" y="260.0" type="line" smooth="yes"/>
      <point x="88.0" y="260.0"/>
      <point x="99.0" y="305.0" type="qcurve" smooth="yes"/>
      <point x="113.0" y="364.0" type="line" smooth="yes"/>
      <point x="124.0" y="409.0"/>
      <point x="168.0" y="409.0" type="qcurve" smooth="yes"/>
      <point x="441.0" y="409.0" type="line"/>
      <point x="483.0" y="590.0" type="line"/>
      <point x="210.0" y="590.0" type="line" smooth="yes"/>
      <point x="166.0" y="590.0"/>
      <point x="176.0" y="635.0" type="qcurve" smooth="yes"/>
      <point x="189.0" y="694.0" type="line" smooth="yes"/>
      <point x="199.0" y="739.0"/>
      <point x="245.0" y="739.0" type="qcurve" smooth="yes"/>
      <point x="431.0" y="739.0" type="line"/>
    </contour>
  </outline>
</glyph>
<glyph name="brokenbar" format="2">
  <advance width="590"/>
  <unicode hex="00A6"/>
  <outline>
    <contour>
      <point x="265.0" y="-338.0" type="line" smooth="yes"/>
      <point x="230.0" y="-338.0"/>
      <point x="230.0" y="-293.0" type="qcurve" smooth="yes"/>
      <point x="230.0" y="351.0" type="line" smooth="yes"/>
      <point x="230.0" y="396.0"/>
      <point x="265.0" y="396.0" type="qcurve" smooth="yes"/>
      <point x="325.0" y="396.0" type="line" smooth="yes"/>
      <point x="360.0" y="396.0"/>
      <point x="360.0" y="351.0" type="qcurve" smooth="yes"/>
      <point x="360.0" y="-293.0" type="line" smooth="yes"/>
      <point x="360.0" y="-338.0"/>
      <point x="325.0" y="-338.0" type="qcurve" smooth="yes"/>
    </contour>
    <contour>
      <point x="265.0" y="660.0" type="line" smooth="yes"/>
      <point x="230.0" y="660.0"/>
      <point x="230.0" y="705.0" type="qcurve" smooth="yes"/>
      <point x="230.0" y="1349.0" type="line" smooth="yes"/>
      <point x="230.0" y="1394.0"/>
      <point x="265.0" y="1394.0" type="qcurve" smooth="yes"/>
      <point x="325.0" y="1394.0" type="line" smooth="yes"/>
      <point x="360.0" y="1394.0"/>
      <point x="360.0" y="1349.0" type="qcurve" smooth="yes"/>
      <point x="360.0" y="705.0" type="line" smooth="yes"/>
      <point x="360.0" y="660.0"/>
      <point x="325.0" y="660.0" type="qcurve" smooth="yes"/>
    </contour>
  </outline>
</glyph>
<glyph name="multiply" format="2">
  <advance width="1280"/>
  <unicode hex="00D7"/>
  <outline>
    <contour>
      <point x="272.4729919433594" y="347.13299560546875" type="line" smooth="yes"/>
      <point x="247.7239990234375" y="371.8819885253906"/>
      <point x="279.5429992675781" y="403.70098876953125" type="qcurve" smooth="yes"/>
      <point x="600.5700073242188" y="724.72802734375" type="line"/>
      <point x="279.5429992675781" y="1045.75" type="line" smooth="yes"/>
      <point x="247.7239990234375" y="1077.5699462890625"/>
      <point x="272.4729919433594" y="1102.3199462890625" type="qcurve" smooth="yes"/>
      <point x="307.8280029296875" y="1137.6800537109375" type="line" smooth="yes"/>
      <point x="332.57598876953125" y="1162.4300537109375"/>
      <point x="364.39599609375" y="1130.6099853515625" type="qcurve" smooth="yes"/>
      <point x="685.4229736328125" y="809.5809936523438" type="line"/>
      <point x="1007.8599853515625" y="1132.02001953125" type="line" smooth="yes"/>
      <point x="1039.6800537109375" y="1163.8399658203125"/>
      <point x="1064.4300537109375" y="1139.0899658203125" type="qcurve" smooth="yes"/>
      <point x="1099.7900390625" y="1103.739990234375" type="line" smooth="yes"/>
      <point x="1124.5400390625" y="1078.989990234375"/>
      <point x="1092.719970703125" y="1047.1700439453125" type="qcurve" smooth="yes"/>
      <point x="770.2750244140625" y="724.72802734375" type="line"/>
      <point x="1092.719970703125" y="402.2869873046875" type="line" smooth="yes"/>
      <point x="1124.5400390625" y="370.4679870605469"/>
      <point x="1099.7900390625" y="345.718994140625" type="qcurve" smooth="yes"/>
      <point x="1064.4300537109375" y="310.3630065917969" type="line" smooth="yes"/>
      <point x="1039.6800537109375" y="285.614013671875"/>
      <point x="1007.8599853515625" y="317.43499755859375" type="qcurve" smooth="yes"/>
      <point x="685.4229736328125" y="639.875" type="line"/>
      <point x="364.39599609375" y="318.8489990234375" type="line" smooth="yes"/>
      <point x="332.57598876953125" y="287.02801513671875"/>
      <point x="307.8280029296875" y="311.7770080566406" type="qcurve" smooth="yes"/>
    </contour>
  </outline>
</glyph>
<glyph name="eth" format="2">
  <advance width="1153"/>
  <unicode hex="00F0"/>
  <outline>
    <contour>
      <point x="68.0" y="402.0" type="qcurve" smooth="yes"/>
      <point x="68.0" y="654.0"/>
      <point x="405.0" y="1050.0"/>
      <point x="650.0" y="1050.0" type="qcurve" smooth="yes"/>
      <point x="747.0" y="1050.0"/>
      <point x="897.0" y="987.0"/>
      <point x="942.0" y="903.0" type="qcurve"/>
      <point x="946.0" y="903.0" type="line"/>
      <point x="933.0" y="1017.0"/>
      <point x="809.0" y="1201.0"/>
      <point x="771.0" y="1241.0" type="qcurve"/>
      <point x="597.0" y="1170.0" type="line" smooth="yes"/>
      <point x="555.0" y="1153.0"/>
      <point x="542.0" y="1186.0" type="qcurve" smooth="yes"/>
      <point x="523.0" y="1233.0" type="line" smooth="yes"/>
      <point x="510.0" y="1265.0"/>
      <point x="552.0" y="1282.0" type="qcurve" smooth="yes"/>
      <point x="664.0" y="1328.0" type="line"/>
      <point x="629.0" y="1351.0"/>
      <point x="590.0" y="1370.0" type="qcurve" smooth="yes"/>
      <point x="546.0" y="1392.0"/>
      <point x="570.0" y="1425.0" type="qcurve" smooth="yes"/>
      <point x="606.0" y="1474.0" type="line" smooth="yes"/>
      <point x="628.0" y="1504.0"/>
      <point x="668.0" y="1484.0" type="qcurve" smooth="yes"/>
      <point x="751.0" y="1442.0"/>
      <point x="816.0" y="1390.0" type="qcurve"/>
      <point x="975.0" y="1454.0" type="line" smooth="yes"/>
      <point x="1017.0" y="1471.0"/>
      <point x="1030.0" y="1438.0" type="qcurve" smooth="yes"/>
      <point x="1049.0" y="1391.0" type="line" smooth="yes"/>
      <point x="1062.0" y="1359.0"/>
      <point x="1020.0" y="1342.0" type="qcurve" smooth="yes"/>
      <point x="912.0" y="1298.0" type="line"/>
      <point x="967.0" y="1234.0"/>
      <point x="1102.0" y="957.0"/>
      <point x="1102.0" y="752.0" type="qcurve" smooth="yes"/>
      <point x="1102.0" y="392.0"/>
      <point x="753.0" y="-17.0"/>
      <point x="488.0" y="-17.0" type="qcurve" smooth="yes"/>
      <point x="273.0" y="-17.0"/>
      <point x="68.0" y="216.0"/>
    </contour>
    <contour>
      <point x="254.0" y="387.0" type="qcurve" smooth="yes"/>
      <point x="254.0" y="243.0"/>
      <point x="376.0" y="113.0"/>
      <point x="501.0" y="113.0" type="qcurve" smooth="yes"/>
      <point x="648.0" y="113.0"/>
      <point x="910.0" y="399.0"/>
      <point x="910.0" y="650.0" type="qcurve" smooth="yes"/>
      <point x="910.0" y="757.0"/>
      <point x="787.0" y="920.0"/>
      <point x="657.0" y="920.0" type="qcurve" smooth="yes"/>
      <point x="501.0" y="920.0"/>
      <point x="254.0" y="645.0"/>
    </contour>
  </outline>
</glyph>
<glyph name="divide" format="2">
  <advance width="1280"/>
  <unicode hex="00F7"/>
  <outline>
    <contour>
      <point x="172.0" y="665.0" type="line" smooth="yes"/>
      <point x="127.0" y="665.0"/>
      <point x="127.0" y="700.0" type="qcurve" smooth="yes"/>
      <point x="127.0" y="750.0" type="line" smooth="yes"/>
      <point x="127.0" y="785.0"/>
      <point x="172.0" y="785.0" type="qcurve" smooth="yes"/>
      <point x="1202.0" y="785.0" type="line" smooth="yes"/>
      <point x="1247.0" y="785.0"/>
      <point x="1247.0" y="750.0" type="qcurve" smooth="yes"/>
      <point x="1247.0" y="700.0" type="line" smooth="yes"/>
      <point x="1247.0" y="665.0"/>
      <point x="1202.0" y="665.0" type="qcurve" smooth="yes"/>
    </contour>
    <contour>
      <point x="631.0" y="1003.0" type="line" smooth="yes"/>
      <point x="586.0" y="1003.0"/>
      <point x="586.0" y="1048.0" type="qcurve" smooth="yes"/>
      <point x="586.0" y="1170.0" type="line" smooth="yes"/>
      <point x="586.0" y="1215.0"/>
      <point x="631.0" y="1215.0" type="qcurve" smooth="yes"/>
      <point x="743.0" y="1215.0" type="line" smooth="yes"/>
      <point x="788.0" y="1215.0"/>
      <point x="788.0" y="1170.0" type="qcurve" smooth="yes"/>
      <point x="788.0" y="1048.0" type="line" smooth="yes"/>
      <point x="788.0" y="1003.0"/>
      <point x="743.0" y="1003.0" type="qcurve" smooth="yes"/>
    </contour>
    <contour>
      <point x="631.0" y="235.0" type="line" smooth="yes"/>
      <point x="586.0" y="235.0"/>
      <point x="586.0" y="280.0" type="qcurve" smooth="yes"/>
      <point x="586.0" y="402.0" type="line" smooth="yes"/>
      <point x="586.0" y="447.0"/>
      <point x="631.0" y="447.0" type="qcurve" smooth="yes"/>
      <point x="743.0" y="447.0" type="line" smooth="yes"/>
      <point x="788.0" y="447.0"/>
      <point x="788.0" y="402.0" type="qcurve" smooth="yes"/>
      <point x="788.0" y="280.0" type="line" smooth="yes"/>
      <point x="788.0" y="235.0"/>
      <point x="743.0" y="235.0" type="qcurve" smooth="yes"/>
    </contour>
  </outline>
</glyph>
<glyph name="dotlessi" format="2">
  <advance width="460"/>
  <unicode hex="0131"/>
  <outline>
    <contour>
      <point x="67.0" y="0.0" type="line" smooth="yes"/>
      <point x="22.0" y="0.0"/>
      <point x="32.0" y="45.0" type="qcurve" smooth="yes"/>
      <point x="254.0" y="1005.0" type="line" smooth="yes"/>
      <point x="264.0" y="1050.0"/>
      <point x="309.0" y="1050.0" type="qcurve" smooth="yes"/>
      <point x="395.0" y="1050.0" type="line" smooth="yes"/>
      <point x="440.0" y="1050.0"/>
      <point x="430.0" y="1005.0" type="qcurve" smooth="yes"/>
      <point x="208.0" y="45.0" type="line" smooth="yes"/>
      <point x="198.0" y="0.0"/>
      <point x="153.0" y="0.0" type="qcurve" smooth="yes"/>
    </contour>
  </outline>
</glyph>
<glyph name="Lslash" format="2">
  <advance width="1241"/>
  <unicode hex="0141"/>
  <outline>
    <contour>
      <point x="97.0" y="444.0" type="line" smooth="yes"/>
      <point x="34.0" y="407.0"/>
      <point x="46.0" y="459.0" type="qcurve" smooth="yes"/>
      <point x="74.0" y="581.0" type="line" smooth="yes"/>
      <point x="83.0" y="620.0"/>
      <point x="124.0" y="644.0" type="qcurve" smooth="yes"/>
      <point x="332.0" y="765.0" type="line"/>
      <point x="473.0" y="1379.0" type="line" smooth="yes"/>
      <point x="486.0" y="1434.0"/>
      <point x="536.0" y="1434.0" type="qcurve" smooth="yes"/>
      <point x="628.0" y="1434.0" type="line" smooth="yes"/>
      <point x="678.0" y="1434.0"/>
      <point x="665.0" y="1379.0" type="qcurve" smooth="yes"/>
      <point x="573.0" y="977.0" type="line" smooth="yes"/>
      <point x="563.0" y="935.0"/>
      <point x="552.0" y="897.0" type="qcurve"/>
      <point x="556.0" y="897.0" type="line"/>
      <point x="866.0" y="1078.0" type="line" smooth="yes"/>
      <point x="929.0" y="1115.0"/>
      <point x="917.0" y="1063.0" type="qcurve" smooth="yes"/>
      <point x="889.0" y="941.0" type="line" smooth="yes"/>
      <point x="880.0" y="901.0"/>
      <point x="840.0" y="878.0" type="qcurve" smooth="yes"/>
      <point x="505.0" y="683.0" type="line"/>
      <point x="385.0" y="164.0" type="line"/>
      <point x="1048.0" y="164.0" type="line" smooth="yes"/>
      <point x="1102.0" y="164.0"/>
      <point x="1092.0" y="119.0" type="qcurve" smooth="yes"/>
      <point x="1075.0" y="45.0" type="line" smooth="yes"/>
      <point x="1065.0" y="0.0"/>
      <point x="1010.0" y="0.0" type="qcurve" smooth="yes"/>
      <point x="205.0" y="0.0" type="line" smooth="yes"/>
      <point x="155.0" y="0.0"/>
      <point x="168.0" y="55.0" type="qcurve" smooth="yes"/>
      <point x="264.0" y="471.0" type="line" smooth="yes"/>
      <point x="274.0" y="516.0"/>
      <point x="284.0" y="551.0" type="qcurve"/>
      <point x="280.0" y="551.0" type="line"/>
    </contour>
  </outline>
</glyph>
<glyph name="uni0196" format="2">
  <advance width="815"/>
  <unicode hex="0196"/>
  <outline>
    <contour>
      <point x="139.0" y="388.0" type="qcurve" smooth="yes"/>
      <point x="368.0" y="1379.0" type="line" smooth="yes"/>
      <point x="381.0" y="1434.0"/>
      <point x="431.0" y="1434.0" type="qcurve" smooth="yes"/>
      <point x="523.0" y="1434.0" type="line" smooth="yes"/>
      <point x="573.0" y="1434.0"/>
      <point x="560.0" y="1379.0" type="qcurve" smooth="yes"/>
      <point x="316.0" y="310.0" type="line" smooth="yes"/>
      <point x="297.0" y="225.0"/>
      <point x="339.0" y="126.0"/>
      <point x="411.0" y="126.0" type="qcurve" smooth="yes"/>
      <point x="447.0" y="126.0"/>
      <point x="520.0" y="150.0"/>
      <point x="570.0" y="173.0" type="qcurve" smooth="yes"/>
      <point x="622.0" y="197.0"/>
      <point x="640.0" y="159.0" type="qcurve" smooth="yes"/>
      <point x="667.0" y="103.0" type="line" smooth="yes"/>
      <point x="683.0" y="70.0"/>
      <point x="649.0" y="49.0" type="qcurve" smooth="yes"/>
      <point x="600.0" y="18.0"/>
      <point x="460.0" y="-30.0"/>
      <point x="390.0" y="-30.0" type="qcurve" smooth="yes"/>
      <point x="226.0" y="-30.0"/>
      <point x="92.0" y="184.0"/>
    </contour>
  </outline>
</glyph>
<glyph name="uni0197" format="2">
  <advance width="702"/>
  <unicode hex="0197"/>
  <outline>
    <contour>
      <point x="185.0" y="0.0" type="line" smooth="yes"/>
      <point x="135.0" y="0.0"/>
      <point x="148.0" y="55.0" type="qcurve" smooth="yes"/>
      <point x="284.0" y="644.0" type="line"/>
      <point x="134.0" y="644.0" type="line" smooth="yes"/>
      <point x="79.0" y="644.0"/>
      <point x="89.0" y="689.0" type="qcurve" smooth="yes"/>
      <point x="106.0" y="763.0" type="line" smooth="yes"/>
      <point x="116.0" y="808.0"/>
      <point x="172.0" y="808.0" type="qcurve" smooth="yes"/>
      <point x="322.0" y="808.0" type="line"/>
      <point x="453.0" y="1379.0" type="line" smooth="yes"/>
      <point x="466.0" y="1434.0"/>
      <point x="516.0" y="1434.0" type="qcurve" smooth="yes"/>
      <point x="608.0" y="1434.0" type="line" smooth="yes"/>
      <point x="658.0" y="1434.0"/>
      <point x="645.0" y="1379.0" type="qcurve" smooth="yes"/>
      <point x="514.0" y="808.0" type="line"/>
      <point x="664.0" y="808.0" type="line" smooth="yes"/>
      <point x="719.0" y="808.0"/>
      <point x="708.0" y="763.0" type="qcurve" smooth="yes"/>
      <point x="691.0" y="689.0" type="line" smooth="yes"/>
      <point x="681.0" y="644.0"/>
      <point x="626.0" y="644.0" type="qcurve" smooth="yes"/>
      <point x="476.0" y="644.0" type="line"/>
      <point x="340.0" y="55.0" type="line" smooth="yes"/>
      <point x="327.0" y="0.0"/>
      <point x="277.0" y="0.0" type="qcurve" smooth="yes"/>
    </contour>
  </outline>
</glyph>
<glyph name="uni0245" format="2">
  <advance width="1338"/>
  <unicode hex="0245"/>
  <outline>
    <contour>
      <point x="-47.0" y="0.0" type="line" smooth="yes"/>
      <point x="-99.0" y="0.0"/>
      <point x="-59.0" y="66.0" type="qcurve" smooth="yes"/>
      <point x="730.0" y="1373.0" type="line" smooth="yes"/>
      <point x="767.0" y="1434.0"/>
      <point x="810.0" y="1434.0" type="qcurve" smooth="yes"/>
      <point x="950.0" y="1434.0" type="line" smooth="yes"/>
      <point x="993.0" y="1434.0"/>
      <point x="1002.0" y="1373.0" type="qcurve" smooth="yes"/>
      <point x="1187.0" y="66.0" type="line" smooth="yes"/>
      <point x="1196.0" y="0.0"/>
      <point x="1145.0" y="0.0" type="qcurve" smooth="yes"/>
      <point x="1055.0" y="0.0" type="line" smooth="yes"/>
      <point x="1000.0" y="0.0"/>
      <point x="994.0" y="49.0" type="qcurve" smooth="yes"/>
      <point x="876.0" y="944.0" type="line" smooth="yes"/>
      <point x="868.0" y="1003.0"/>
      <point x="854.0" y="1199.0"/>
      <point x="854.0" y="1261.0" type="qcurve"/>
      <point x="850.0" y="1261.0" type="line"/>
      <point x="824.0" y="1198.0"/>
      <point x="713.0" y="996.0"/>
      <point x="682.0" y="944.0" type="qcurve" smooth="yes"/>
      <point x="150.0" y="49.0" type="line" smooth="yes"/>
      <point x="121.0" y="0.0"/>
      <point x="67.0" y="0.0" type="qcurve" smooth="yes"/>
    </contour>
  </outline>
</glyph>
<glyph name="circumflex" format="2">
  <advance width="614"/>
  <unicode hex="02C6"/>
  <outline>
    <contour>
      <point x="164.0" y="1190.0" type="line" smooth="yes"/>
      <point x="147.0" y="1216.0"/>
      <point x="189.0" y="1245.0" type="qcurve" smooth="yes"/>
      <point x="423.0" y="1408.0" type="line" smooth="yes"/>
      <point x="460.0" y="1434.0"/>
      <point x="485.0" y="1434.0" type="qcurve" smooth="yes"/>
      <point x="535.0" y="1434.0" type="line" smooth="yes"/>
      <point x="560.0" y="1434.0"/>
      <point x="585.0" y="1408.0" type="qcurve" smooth="yes"/>
      <point x="759.0" y="1229.0" type="line" smooth="yes"/>
      <point x="787.0" y="1200.0"/>
      <point x="758.0" y="1174.0" type="qcurve" smooth="yes"/>
      <point x="733.0" y="1151.0" type="line" smooth="yes"/>
      <point x="704.0" y="1124.0"/>
      <point x="676.0" y="1153.0" type="qcurve" smooth="yes"/>
      <point x="504.0" y="1332.0" type="line"/>
      <point x="502.0" y="1332.0" type="line"/>
      <point x="246.0" y="1153.0" type="line" smooth="yes"/>
      <point x="206.0" y="1125.0"/>
      <point x="189.0" y="1151.0" type="qcurve" smooth="yes"/>
    </contour>
  </outline>
</glyph>
<glyph name="uni0394" format="2">
  <advance width="1402"/>
  <unicode hex="0394"/>
  <outline>
    <contour>
      <point x="-15.0" y="0.0" type="line" smooth="yes"/>
      <point x="-65.0" y="0.0"/>
      <point x="-52.0" y="55.0" type="qcurve" smooth="yes"/>
      <point x="-48.0" y="75.0" type="line" smooth="yes"/>
      <point x="-44.0" y="92.0"/>
      <point x="-19.0" y="132.0" type="qcurve" smooth="yes"/>
      <point x="762.0" y="1373.0" type="line" smooth="yes"/>
      <point x="800.0" y="1434.0"/>
      <point x="842.0" y="1434.0" type="qcurve" smooth="yes"/>
      <point x="982.0" y="1434.0" type="line" smooth="yes"/>
      <point x="1024.0" y="1434.0"/>
      <point x="1034.0" y="1373.0" type="qcurve" smooth="yes"/>
      <point x="1241.0" y="132.0" type="line" smooth="yes"/>
      <point x="1248.0" y="92.0"/>
      <point x="1244.0" y="75.0" type="qcurve" smooth="yes"/>
      <point x="1240.0" y="55.0" type="line" smooth="yes"/>
      <point x="1227.0" y="0.0"/>
      <point x="1177.0" y="0.0" type="qcurve" smooth="yes"/>
    </contour>
    <contour>
      <point x="220.0" y="162.0" type="line"/>
      <point x="247.0" y="164.0"/>
      <point x="301.0" y="164.0" type="qcurve" smooth="yes"/>
      <point x="961.0" y="164.0" type="line" smooth="yes"/>
      <point x="1014.0" y="164.0"/>
      <point x="1040.0" y="162.0" type="qcurve"/>
      <point x="1041.0" y="166.0" type="line"/>
      <point x="911.0" y="944.0" type="line" smooth="yes"/>
      <point x="897.0" y="1029.0"/>
      <point x="886.0" y="1204.0"/>
      <point x="886.0" y="1261.0" type="qcurve"/>
      <point x="882.0" y="1261.0" type="line"/>
      <point x="856.0" y="1204.0"/>
      <point x="765.0" y="1029.0"/>
      <point x="711.0" y="944.0" type="qcurve" smooth="yes"/>
      <point x="221.0" y="166.0" type="line"/>
    </contour>
  </outline>
</glyph>
<glyph name="afii10058" format="2">
  <advance width="2250"/>
  <unicode hex="0409"/>
  <outline>
    <contour>
      <point x="-46.0" y="-17.0" type="qcurve" smooth="yes"/>
      <point x="-77.0" y="-6.0"/>
      <point x="-67.0" y="29.0" type="qcurve" smooth="yes"/>
      <point x="-42.0" y="112.0" type="line" smooth="yes"/>
      <point x="-31.0" y="149.0"/>
      <point x="15.0" y="135.0" type="qcurve" smooth="yes"/>
      <point x="41.0" y="127.0"/>
      <point x="92.0" y="127.0" type="qcurve" smooth="yes"/>
      <point x="261.0" y="127.0"/>
      <point x="466.0" y="654.0"/>
      <point x="563.0" y="1077.0" type="qcurve" smooth="yes"/>
      <point x="632.0" y="1379.0" type="line" smooth="yes"/>
      <point x="645.0" y="1434.0"/>
      <point x="695.0" y="1434.0" type="qcurve" smooth="yes"/>
      <point x="1465.0" y="1434.0" type="line" smooth="yes"/>
      <point x="1515.0" y="1434.0"/>
      <point x="1502.0" y="1379.0" type="qcurve" smooth="yes"/>
      <point x="1375.0" y="828.0" type="line"/>
      <point x="1643.0" y="828.0" type="line" smooth="yes"/>
      <point x="1935.0" y="828.0"/>
      <point x="2149.0" y="615.0"/>
      <point x="2149.0" y="454.0" type="qcurve" smooth="yes"/>
      <point x="2149.0" y="270.0"/>
      <point x="1829.0" y="0.0"/>
      <point x="1492.0" y="0.0" type="qcurve" smooth="yes"/>
      <point x="1042.0" y="0.0" type="line" smooth="yes"/>
      <point x="992.0" y="0.0"/>
      <point x="1005.0" y="55.0" type="qcurve" smooth="yes"/>
      <point x="1285.0" y="1270.0" type="line"/>
      <point x="773.0" y="1270.0" type="line"/>
      <point x="716.0" y="1021.0" type="line" smooth="yes"/>
      <point x="572.0" y="393.0"/>
      <point x="315.0" y="-30.0"/>
      <point x="79.0" y="-30.0" type="qcurve" smooth="yes"/>
      <point x="-9.0" y="-30.0"/>
    </contour>
    <contour>
      <point x="1222.0" y="164.0" type="line"/>
      <point x="1498.0" y="164.0" type="line" smooth="yes"/>
      <point x="1713.0" y="164.0"/>
      <point x="1944.0" y="312.0"/>
      <point x="1944.0" y="444.0" type="qcurve" smooth="yes"/>
      <point x="1944.0" y="585.0"/>
      <point x="1758.0" y="664.0"/>
      <point x="1573.0" y="664.0" type="qcurve" smooth="yes"/>
      <point x="1337.0" y="664.0" type="line"/>
    </contour>
  </outline>
</glyph>
<glyph name="afii10044" format="2">
  <advance width="1700"/>
  <unicode hex="042A"/>
  <outline>
    <contour>
      <point x="264.0" y="1270.0" type="line" smooth="yes"/>
      <point x="209.0" y="1270.0"/>
      <point x="220.0" y="1315.0" type="qcurve" smooth="yes"/>
      <point x="237.0" y="1389.0" type="line" smooth="yes"/>
      <point x="247.0" y="1434.0"/>
      <point x="302.0" y="1434.0" type="qcurve" smooth="yes"/>
      <point x="915.0" y="1434.0" type="line" smooth="yes"/>
      <point x="965.0" y="1434.0"/>
      <point x="952.0" y="1379.0" type="qcurve" smooth="yes"/>
      <point x="825.0" y="828.0" type="line"/>
      <point x="1093.0" y="828.0" type="line" smooth="yes"/>
      <point x="1385.0" y="828.0"/>
      <point x="1599.0" y="615.0"/>
      <point x="1599.0" y="454.0" type="qcurve" smooth="yes"/>
      <point x="1599.0" y="270.0"/>
      <point x="1279.0" y="0.0"/>
      <point x="942.0" y="0.0" type="qcurve" smooth="yes"/>
      <point x="492.0" y="0.0" type="line" smooth="yes"/>
      <point x="442.0" y="0.0"/>
      <point x="455.0" y="55.0" type="qcurve" smooth="yes"/>
      <point x="735.0" y="1270.0" type="line"/>
    </contour>
    <contour>
      <point x="672.0" y="164.0" type="line"/>
      <point x="948.0" y="164.0" type="line" smooth="yes"/>
      <point x="1163.0" y="164.0"/>
      <point x="1394.0" y="312.0"/>
      <point x="1394.0" y="444.0" type="qcurve" smooth="yes"/>
      <point x="1394.0" y="585.0"/>
      <point x="1208.0" y="664.0"/>
      <point x="1023.0" y="664.0" type="qcurve" smooth="yes"/>
      <point x="787.0" y="664.0" type="line"/>
    </contour>
  </outline>
</glyph>
<glyph name="afii10069" format="2">
  <advance width="1155"/>
  <unicode hex="0434"/>
  <outline>
    <contour>
      <point x="68.0" y="402.0" type="qcurve" smooth="yes"/>
      <point x="68.0" y="654.0"/>
      <point x="405.0" y="1067.0"/>
      <point x="670.0" y="1067.0" type="qcurve" smooth="yes"/>
      <point x="764.0" y="1067.0"/>
      <point x="909.0" y="992.0"/>
      <point x="939.0" y="947.0" type="qcurve"/>
      <point x="943.0" y="947.0" type="line"/>
      <point x="945.0" y="981.0"/>
      <point x="945.0" y="1028.0" type="qcurve" smooth="yes"/>
      <point x="945.0" y="1173.0"/>
      <point x="820.0" y="1363.0"/>
      <point x="691.0" y="1363.0" type="qcurve" smooth="yes"/>
      <point x="626.0" y="1363.0"/>
      <point x="494.0" y="1316.0"/>
      <point x="462.0" y="1288.0" type="qcurve" smooth="yes"/>
      <point x="428.0" y="1258.0"/>
      <point x="406.0" y="1290.0" type="qcurve" smooth="yes"/>
      <point x="376.0" y="1333.0" type="line" smooth="yes"/>
      <point x="351.0" y="1368.0"/>
      <point x="382.0" y="1393.0" type="qcurve" smooth="yes"/>
      <point x="430.0" y="1432.0"/>
      <point x="606.0" y="1493.0"/>
      <point x="710.0" y="1493.0" type="qcurve" smooth="yes"/>
      <point x="898.0" y="1493.0"/>
      <point x="1121.0" y="1242.0"/>
      <point x="1121.0" y="988.0" type="qcurve" smooth="yes"/>
      <point x="1121.0" y="453.0"/>
      <point x="760.0" y="-17.0"/>
      <point x="488.0" y="-17.0" type="qcurve" smooth="yes"/>
      <point x="262.0" y="-17.0"/>
      <point x="68.0" y="216.0"/>
    </contour>
    <contour>
      <point x="254.0" y="387.0" type="qcurve" smooth="yes"/>
      <point x="254.0" y="243.0"/>
      <point x="376.0" y="113.0"/>
      <point x="501.0" y="113.0" type="qcurve" smooth="yes"/>
      <point x="637.0" y="113.0"/>
      <point x="910.0" y="396.0"/>
      <point x="910.0" y="663.0" type="qcurve" smooth="yes"/>
      <point x="910.0" y="770.0"/>
      <point x="787.0" y="937.0"/>
      <point x="657.0" y="937.0" type="qcurve" smooth="yes"/>
      <point x="501.0" y="937.0"/>
      <point x="254.0" y="645.0"/>
    </contour>
  </outline>
</glyph>
<glyph name="afii10073" format="2">
  <advance width="982"/>
  <unicode hex="0437"/>
  <outline>
    <contour>
      <point x="27.0" y="119.0" type="qcurve" smooth="yes"/>
      <point x="1.0" y="152.0"/>
      <point x="29.0" y="174.0" type="qcurve" smooth="yes"/>
      <point x="89.0" y="223.0" type="line" smooth="yes"/>
      <point x="116.0" y="245.0"/>
      <point x="142.0" y="213.0" type="qcurve" smooth="yes"/>
      <point x="157.0" y="195.0"/>
      <point x="286.0" y="113.0"/>
      <point x="386.0" y="113.0" type="qcurve" smooth="yes"/>
      <point x="518.0" y="113.0"/>
      <point x="666.0" y="250.0"/>
      <point x="666.0" y="333.0" type="qcurve" smooth="yes"/>
      <point x="666.0" y="422.0"/>
      <point x="550.0" y="483.0"/>
      <point x="447.0" y="483.0" type="qcurve" smooth="yes"/>
      <point x="333.0" y="483.0" type="line" smooth="yes"/>
      <point x="288.0" y="483.0"/>
      <point x="296.0" y="518.0" type="qcurve" smooth="yes"/>
      <point x="309.0" y="578.0" type="line" smooth="yes"/>
      <point x="317.0" y="613.0"/>
      <point x="363.0" y="613.0" type="qcurve" smooth="yes"/>
      <point x="464.0" y="613.0" type="line" smooth="yes"/>
      <point x="586.0" y="613.0"/>
      <point x="730.0" y="719.0"/>
      <point x="730.0" y="800.0" type="qcurve" smooth="yes"/>
      <point x="730.0" y="863.0"/>
      <point x="616.0" y="937.0"/>
      <point x="508.0" y="937.0" type="qcurve" smooth="yes"/>
      <point x="438.0" y="937.0"/>
      <point x="316.0" y="890.0"/>
      <point x="288.0" y="864.0" type="qcurve" smooth="yes"/>
      <point x="252.0" y="830.0"/>
      <point x="233.0" y="848.0" type="qcurve" smooth="yes"/>
      <point x="183.0" y="896.0" type="line" smooth="yes"/>
      <point x="151.0" y="927.0"/>
      <point x="190.0" y="962.0" type="qcurve" smooth="yes"/>
      <point x="238.0" y="1006.0"/>
      <point x="394.0" y="1067.0"/>
      <point x="544.0" y="1067.0" type="qcurve" smooth="yes"/>
      <point x="740.0" y="1067.0"/>
      <point x="906.0" y="918.0"/>
      <point x="906.0" y="819.0" type="qcurve" smooth="yes"/>
      <point x="906.0" y="696.0"/>
      <point x="741.0" y="564.0"/>
      <point x="688.0" y="551.0" type="qcurve"/>
      <point x="688.0" y="548.0" type="line"/>
      <point x="762.0" y="532.0"/>
      <point x="852.0" y="421.0"/>
      <point x="852.0" y="324.0" type="qcurve" smooth="yes"/>
      <point x="852.0" y="192.0"/>
      <point x="600.0" y="-17.0"/>
      <point x="387.0" y="-17.0" type="qcurve" smooth="yes"/>
      <point x="219.0" y="-17.0"/>
      <point x="45.0" y="96.0"/>
    </contour>
  </outline>
</glyph>
<glyph name="afii10077" format="2">
  <advance width="1136"/>
  <unicode hex="043B"/>
  <outline>
    <contour>
      <point x="-60.0" y="-8.0" type="qcurve" smooth="yes"/>
      <point x="-78.0" y="0.0"/>
      <point x="-70.0" y="22.0" type="qcurve" smooth="yes"/>
      <point x="-41.0" y="105.0" type="line" smooth="yes"/>
      <point x="-34.0" y="125.0"/>
      <point x="-12.0" y="119.0" type="qcurve" smooth="yes"/>
      <point x="10.0" y="113.0"/>
      <point x="30.0" y="113.0" type="qcurve" smooth="yes"/>
      <point x="138.0" y="113.0"/>
      <point x="300.0" y="420.0"/>
      <point x="354.0" y="660.0" type="qcurve" smooth="yes"/>
      <point x="375.0" y="754.0" type="line" smooth="yes"/>
      <point x="405.0" y="888.0"/>
      <point x="604.0" y="1050.0"/>
      <point x="849.0" y="1050.0" type="qcurve" smooth="yes"/>
      <point x="1071.0" y="1050.0" type="line" smooth="yes"/>
      <point x="1116.0" y="1050.0"/>
      <point x="1106.0" y="1005.0" type="qcurve" smooth="yes"/>
      <point x="884.0" y="45.0" type="line" smooth="yes"/>
      <point x="874.0" y="0.0"/>
      <point x="829.0" y="0.0" type="qcurve" smooth="yes"/>
      <point x="743.0" y="0.0" type="line" smooth="yes"/>
      <point x="698.0" y="0.0"/>
      <point x="708.0" y="45.0" type="qcurve" smooth="yes"/>
      <point x="910.0" y="918.0" type="line"/>
      <point x="874.0" y="918.0" type="line" smooth="yes"/>
      <point x="700.0" y="918.0"/>
      <point x="543.0" y="818.0"/>
      <point x="514.0" y="691.0" type="qcurve" smooth="yes"/>
      <point x="495.0" y="607.0" type="line" smooth="yes"/>
      <point x="427.0" y="306.0"/>
      <point x="216.0" y="-17.0"/>
      <point x="22.0" y="-17.0" type="qcurve" smooth="yes"/>
      <point x="-41.0" y="-17.0"/>
    </contour>
  </outline>
</glyph>
<glyph name="afii10086" format="2">
  <advance width="1638"/>
  <unicode hex="0444"/>
  <outline>
    <contour>
      <point x="70.0" y="415.0" type="qcurve" smooth="yes"/>
      <point x="70.0" y="644.0"/>
      <point x="396.0" y="1067.0"/>
      <point x="597.0" y="1067.0" type="qcurve" smooth="yes"/>
      <point x="690.0" y="1067.0"/>
      <point x="792.0" y="996.0"/>
      <point x="824.0" y="925.0" type="qcurve"/>
      <point x="826.0" y="925.0" type="line"/>
      <point x="831.0" y="954.0"/>
      <point x="838.0" y="985.0" type="qcurve" smooth="yes"/>
      <point x="933.0" y="1395.0" type="line" smooth="yes"/>
      <point x="943.0" y="1440.0"/>
      <point x="988.0" y="1440.0" type="qcurve" smooth="yes"/>
      <point x="1074.0" y="1440.0" type="line" smooth="yes"/>
      <point x="1119.0" y="1440.0"/>
      <point x="1109.0" y="1395.0" type="qcurve" smooth="yes"/>
      <point x="1010.0" y="965.0" type="line" smooth="yes"/>
      <point x="1005.0" y="941.0"/>
      <point x="994.0" y="905.0" type="qcurve"/>
      <point x="996.0" y="905.0" type="line"/>
      <point x="1044.0" y="984.0"/>
      <point x="1188.0" y="1067.0"/>
      <point x="1269.0" y="1067.0" type="qcurve" smooth="yes"/>
      <point x="1418.0" y="1067.0"/>
      <point x="1570.0" y="838.0"/>
      <point x="1570.0" y="635.0" type="qcurve" smooth="yes"/>
      <point x="1570.0" y="406.0"/>
      <point x="1244.0" y="-17.0"/>
      <point x="1043.0" y="-17.0" type="qcurve" smooth="yes"/>
      <point x="950.0" y="-17.0"/>
      <point x="848.0" y="54.0"/>
      <point x="816.0" y="125.0" type="qcurve"/>
      <point x="814.0" y="125.0" type="line"/>
      <point x="809.0" y="93.0"/>
      <point x="802.0" y="65.0" type="qcurve" smooth="yes"/>
      <point x="705.0" y="-355.0" type="line" smooth="yes"/>
      <point x="695.0" y="-400.0"/>
      <point x="650.0" y="-400.0" type="qcurve" smooth="yes"/>
      <point x="564.0" y="-400.0" type="line" smooth="yes"/>
      <point x="519.0" y="-400.0"/>
      <point x="529.0" y="-355.0" type="qcurve" smooth="yes"/>
      <point x="630.0" y="85.0" type="line" smooth="yes"/>
      <point x="635.0" y="108.0"/>
      <point x="646.0" y="145.0" type="qcurve"/>
      <point x="644.0" y="145.0" type="line"/>
      <point x="596.0" y="66.0"/>
      <point x="452.0" y="-17.0"/>
      <point x="371.0" y="-17.0" type="qcurve" smooth="yes"/>
      <point x="222.0" y="-17.0"/>
      <point x="70.0" y="212.0"/>
    </contour>
    <contour>
      <point x="256.0" y="405.0" type="qcurve" smooth="yes"/>
      <point x="256.0" y="225.0"/>
      <point x="360.0" y="113.0"/>
      <point x="416.0" y="113.0" type="qcurve" smooth="yes"/>
      <point x="507.0" y="113.0"/>
      <point x="684.0" y="317.0"/>
      <point x="715.0" y="452.0" type="qcurve" smooth="yes"/>
      <point x="785.0" y="755.0" type="line"/>
      <point x="785.0" y="836.0"/>
      <point x="698.0" y="937.0"/>
      <point x="632.0" y="937.0" type="qcurve" smooth="yes"/>
      <point x="456.0" y="937.0"/>
      <point x="256.0" y="588.0"/>
    </contour>
    <contour>
      <point x="855.0" y="295.0" type="line"/>
      <point x="855.0" y="214.0"/>
      <point x="942.0" y="113.0"/>
      <point x="1008.0" y="113.0" type="qcurve" smooth="yes"/>
      <point x="1184.0" y="113.0"/>
      <point x="1384.0" y="462.0"/>
      <point x="1384.0" y="645.0" type="qcurve" smooth="yes"/>
      <point x="1384.0" y="825.0"/>
      <point x="1280.0" y="937.0"/>
      <point x="1224.0" y="937.0" type="qcurve" smooth="yes"/>
      <point x="1133.0" y="937.0"/>
      <point x="956.0" y="733.0"/>
      <point x="925.0" y="598.0" type="qcurve" smooth="yes"/>
    </contour>
  </outline>
</glyph>
<glyph name="afii10089" format="2">
  <advance width="1060"/>
  <unicode hex="0447"/>
  <outline>
    <contour>
      <point x="147.0" y="706.0" type="qcurve" smooth="yes"/>
      <point x="216.0" y="1005.0" type="line" smooth="yes"/>
      <point x="226.0" y="1050.0"/>
      <point x="271.0" y="1050.0" type="qcurve" smooth="yes"/>
      <point x="357.0" y="1050.0" type="line" smooth="yes"/>
      <point x="402.0" y="1050.0"/>
      <point x="392.0" y="1005.0" type="qcurve" smooth="yes"/>
      <point x="329.0" y="734.0" type="line" smooth="yes"/>
      <point x="301.0" y="610.0"/>
      <point x="378.0" y="543.0"/>
      <point x="459.0" y="543.0" type="qcurve" smooth="yes"/>
      <point x="564.0" y="543.0"/>
      <point x="718.0" y="567.0"/>
      <point x="762.0" y="605.0" type="qcurve"/>
      <point x="854.0" y="1005.0" type="line" smooth="yes"/>
      <point x="864.0" y="1050.0"/>
      <point x="909.0" y="1050.0" type="qcurve" smooth="yes"/>
      <point x="995.0" y="1050.0" type="line" smooth="yes"/>
      <point x="1040.0" y="1050.0"/>
      <point x="1030.0" y="1005.0" type="qcurve" smooth="yes"/>
      <point x="808.0" y="45.0" type="line" smooth="yes"/>
      <point x="798.0" y="0.0"/>
      <point x="753.0" y="0.0" type="qcurve" smooth="yes"/>
      <point x="667.0" y="0.0" type="line" smooth="yes"/>
      <point x="622.0" y="0.0"/>
      <point x="632.0" y="45.0" type="qcurve" smooth="yes"/>
      <point x="716.0" y="409.0" type="line" smooth="yes"/>
      <point x="722.0" y="436.0"/>
      <point x="732.0" y="469.0" type="qcurve"/>
      <point x="728.0" y="469.0" type="line"/>
      <point x="699.0" y="444.0"/>
      <point x="502.0" y="413.0"/>
      <point x="404.0" y="413.0" type="qcurve" smooth="yes"/>
      <point x="268.0" y="413.0"/>
      <point x="114.0" y="565.0"/>
    </contour>
  </outline>
</glyph>
<glyph name="afii10094" format="2">
  <advance width="1017"/>
  <unicode hex="044C"/>
  <outline>
    <contour>
      <point x="124.0" y="444.0" type="qcurve" smooth="yes"/>
      <point x="254.0" y="1005.0" type="line" smooth="yes"/>
      <point x="264.0" y="1050.0"/>
      <point x="309.0" y="1050.0" type="qcurve" smooth="yes"/>
      <point x="395.0" y="1050.0" type="line" smooth="yes"/>
      <point x="440.0" y="1050.0"/>
      <point x="430.0" y="1005.0" type="qcurve" smooth="yes"/>
      <point x="348.0" y="649.0" type="line" smooth="yes"/>
      <point x="338.0" y="610.0"/>
      <point x="330.0" y="588.0" type="qcurve"/>
      <point x="332.0" y="588.0" type="line"/>
      <point x="378.0" y="638.0"/>
      <point x="496.0" y="680.0"/>
      <point x="586.0" y="680.0" type="qcurve" smooth="yes"/>
      <point x="748.0" y="680.0"/>
      <point x="902.0" y="494.0"/>
      <point x="902.0" y="354.0" type="qcurve" smooth="yes"/>
      <point x="902.0" y="208.0"/>
      <point x="672.0" y="-17.0"/>
      <point x="412.0" y="-17.0" type="qcurve" smooth="yes"/>
      <point x="236.0" y="-17.0"/>
      <point x="75.0" y="232.0"/>
    </contour>
    <contour>
      <point x="284.0" y="370.0" type="qcurve" smooth="yes"/>
      <point x="255.0" y="244.0"/>
      <point x="350.0" y="113.0"/>
      <point x="449.0" y="113.0" type="qcurve" smooth="yes"/>
      <point x="574.0" y="113.0"/>
      <point x="716.0" y="244.0"/>
      <point x="716.0" y="366.0" type="qcurve" smooth="yes"/>
      <point x="716.0" y="442.0"/>
      <point x="626.0" y="550.0"/>
      <point x="532.0" y="550.0" type="qcurve" smooth="yes"/>
      <point x="430.0" y="550.0"/>
      <point x="301.0" y="442.0"/>
    </contour>
  </outline>
</glyph>
<glyph name="afii10101" format="2">
  <advance width="1026"/>
  <unicode hex="0454"/>
  <outline>
    <contour>
      <point x="68.0" y="402.0" type="qcurve" smooth="yes"/>
      <point x="68.0" y="676.0"/>
      <point x="395.0" y="1067.0"/>
      <point x="660.0" y="1067.0" type="qcurve" smooth="yes"/>
      <point x="822.0" y="1067.0"/>
      <point x="955.0" y="972.0"/>
      <point x="992.0" y="907.0" type="qcurve" smooth="yes"/>
      <point x="1011.0" y="872.0"/>
      <point x="983.0" y="854.0" type="qcurve" smooth="yes"/>
      <point x="920.0" y="813.0" type="line" smooth="yes"/>
      <point x="888.0" y="792.0"/>
      <point x="865.0" y="833.0" type="qcurve" smooth="yes"/>
      <point x="847.0" y="864.0"/>
      <point x="744.0" y="937.0"/>
      <point x="647.0" y="937.0" type="qcurve" smooth="yes"/>
      <point x="488.0" y="937.0"/>
      <point x="308.0" y="723.0"/>
      <point x="279.0" y="612.0" type="qcurve"/>
      <point x="740.0" y="612.0" type="line" smooth="yes"/>
      <point x="785.0" y="612.0"/>
      <point x="777.0" y="577.0" type="qcurve" smooth="yes"/>
      <point x="763.0" y="517.0" type="line" smooth="yes"/>
      <point x="755.0" y="482.0"/>
      <point x="710.0" y="482.0" type="qcurve" smooth="yes"/>
      <point x="258.0" y="482.0" type="line"/>
      <point x="254.0" y="437.0"/>
      <point x="254.0" y="387.0" type="qcurve" smooth="yes"/>
      <point x="254.0" y="265.0"/>
      <point x="362.0" y="113.0"/>
      <point x="501.0" y="113.0" type="qcurve" smooth="yes"/>
      <point x="608.0" y="113.0"/>
      <point x="734.0" y="205.0"/>
      <point x="765.0" y="244.0" type="qcurve" smooth="yes"/>
      <point x="791.0" y="277.0"/>
      <point x="819.0" y="253.0" type="qcurve" smooth="yes"/>
      <point x="878.0" y="202.0" type="line" smooth="yes"/>
      <point x="905.0" y="179.0"/>
      <point x="878.0" y="147.0" type="qcurve" smooth="yes"/>
      <point x="846.0" y="110.0"/>
      <point x="660.0" y="-17.0"/>
      <point x="488.0" y="-17.0" type="qcurve" smooth="yes"/>
      <point x="254.0" y="-17.0"/>
      <point x="68.0" y="238.0"/>
    </contour>
  </outline>
</glyph>
<glyph name="afii10107" format="2">
  <advance width="1677"/>
  <unicode hex="045A"/>
  <outline>
    <contour>
      <point x="67.0" y="0.0" type="line" smooth="yes"/>
      <point x="22.0" y="0.0"/>
      <point x="32.0" y="45.0" type="qcurve" smooth="yes"/>
      <point x="254.0" y="1005.0" type="line" smooth="yes"/>
      <point x="264.0" y="1050.0"/>
      <point x="309.0" y="1050.0" type="qcurve" smooth="yes"/>
      <point x="395.0" y="1050.0" type="line" smooth="yes"/>
      <point x="440.0" y="1050.0"/>
      <point x="430.0" y="1005.0" type="qcurve" smooth="yes"/>
      <point x="340.0" y="614.0" type="line"/>
      <point x="824.0" y="614.0" type="line"/>
      <point x="914.0" y="1005.0" type="line" smooth="yes"/>
      <point x="924.0" y="1050.0"/>
      <point x="969.0" y="1050.0" type="qcurve" smooth="yes"/>
      <point x="1055.0" y="1050.0" type="line" smooth="yes"/>
      <point x="1100.0" y="1050.0"/>
      <point x="1090.0" y="1005.0" type="qcurve" smooth="yes"/>
      <point x="1008.0" y="649.0" type="line" smooth="yes"/>
      <point x="998.0" y="610.0"/>
      <point x="990.0" y="588.0" type="qcurve"/>
      <point x="992.0" y="588.0" type="line"/>
      <point x="1038.0" y="638.0"/>
      <point x="1156.0" y="680.0"/>
      <point x="1246.0" y="680.0" type="qcurve" smooth="yes"/>
      <point x="1408.0" y="680.0"/>
      <point x="1562.0" y="494.0"/>
      <point x="1562.0" y="354.0" type="qcurve" smooth="yes"/>
      <point x="1562.0" y="208.0"/>
      <point x="1332.0" y="-17.0"/>
      <point x="1072.0" y="-17.0" type="qcurve" smooth="yes"/>
      <point x="896.0" y="-17.0"/>
      <point x="735.0" y="232.0"/>
      <point x="784.0" y="444.0" type="qcurve" smooth="yes"/>
      <point x="793.0" y="482.0" type="line"/>
      <point x="309.0" y="482.0" type="line"/>
      <point x="208.0" y="45.0" type="line" smooth="yes"/>
      <point x="198.0" y="0.0"/>
      <point x="153.0" y="0.0" type="qcurve" smooth="yes"/>
    </contour>
    <contour>
      <point x="944.0" y="370.0" type="qcurve" smooth="yes"/>
      <point x="915.0" y="244.0"/>
      <point x="1010.0" y="113.0"/>
      <point x="1109.0" y="113.0" type="qcurve" smooth="yes"/>
      <point x="1234.0" y="113.0"/>
      <point x="1376.0" y="244.0"/>
      <point x="1376.0" y="366.0" type="qcurve" smooth="yes"/>
      <point x="1376.0" y="442.0"/>
      <point x="1286.0" y="550.0"/>
      <point x="1192.0" y="550.0" type="qcurve" smooth="yes"/>
      <point x="1090.0" y="550.0"/>
      <point x="961.0" y="442.0"/>
    </contour>
  </outline>
</glyph>
<glyph name="uni046A" format="2">
  <advance width="1928"/>
  <unicode hex="046A"/>
  <outline>
    <contour>
      <point x="-42.0" y="0.0" type="line" smooth="yes"/>
      <point x="-102.0" y="0.0"/>
      <point x="-45.0" y="66.0" type="qcurve" smooth="yes"/>
      <point x="337.0" y="506.0" type="line" smooth="yes"/>
      <point x="456.0" y="643.0"/>
      <point x="700.0" y="792.0"/>
      <point x="885.0" y="807.0" type="qcurve"/>
      <point x="886.0" y="808.0" type="line"/>
      <point x="517.0" y="1368.0" type="line" smooth="yes"/>
      <point x="474.0" y="1434.0"/>
      <point x="557.0" y="1434.0" type="qcurve" smooth="yes"/>
      <point x="1793.0" y="1434.0" type="line" smooth="yes"/>
      <point x="1877.0" y="1434.0"/>
      <point x="1803.0" y="1368.0" type="qcurve" smooth="yes"/>
      <point x="1176.0" y="808.0" type="line"/>
      <point x="1175.0" y="807.0" type="line"/>
      <point x="1354.0" y="792.0"/>
      <point x="1530.0" y="643.0"/>
      <point x="1585.0" y="506.0" type="qcurve" smooth="yes"/>
      <point x="1763.0" y="66.0" type="line" smooth="yes"/>
      <point x="1790.0" y="0.0"/>
      <point x="1730.0" y="0.0" type="qcurve" smooth="yes"/>
      <point x="1633.0" y="0.0" type="line" smooth="yes"/>
      <point x="1586.0" y="0.0"/>
      <point x="1572.0" y="39.0" type="qcurve" smooth="yes"/>
      <point x="1444.0" y="408.0" type="line" smooth="yes"/>
      <point x="1405.0" y="520.0"/>
      <point x="1228.0" y="653.0"/>
      <point x="1136.0" y="653.0" type="qcurve" smooth="yes"/>
      <point x="1091.0" y="653.0" type="line"/>
      <point x="953.0" y="55.0" type="line" smooth="yes"/>
      <point x="940.0" y="0.0"/>
      <point x="890.0" y="0.0" type="qcurve" smooth="yes"/>
      <point x="798.0" y="0.0" type="line" smooth="yes"/>
      <point x="748.0" y="0.0"/>
      <point x="761.0" y="55.0" type="qcurve" smooth="yes"/>
      <point x="899.0" y="653.0" type="line"/>
      <point x="854.0" y="653.0" type="line" smooth="yes"/>
      <point x="762.0" y="653.0"/>
      <point x="581.0" y="518.0"/>
      <point x="492.0" y="408.0" type="qcurve" smooth="yes"/>
      <point x="194.0" y="39.0" type="line" smooth="yes"/>
      <point x="163.0" y="0.0"/>
      <point x="115.0" y="0.0" type="qcurve" smooth="yes"/>
    </contour>
    <contour>
      <point x="784.0" y="1270.0" type="line"/>
      <point x="1026.0" y="881.0" type="line"/>
      <point x="1028.0" y="881.0" type="line"/>
      <point x="1450.0" y="1270.0" type="line"/>
      <point x="1451.0" y="1274.0" type="line"/>
      <point x="1409.0" y="1270.0"/>
      <point x="1369.0" y="1270.0" type="qcurve" smooth="yes"/>
      <point x="865.0" y="1270.0" type="line" smooth="yes"/>
      <point x="825.0" y="1270.0"/>
      <point x="785.0" y="1274.0" type="qcurve"/>
    </contour>
  </outline>
</glyph>
<glyph name="afii10148" format="2">
  <advance width="1440"/>
  <unicode hex="0474"/>
  <outline>
    <contour>
      <point x="242.0" y="1368.0" type="line" smooth="yes"/>
      <point x="232.0" y="1434.0"/>
      <point x="284.0" y="1434.0" type="qcurve" smooth="yes"/>
      <point x="374.0" y="1434.0" type="line" smooth="yes"/>
      <point x="428.0" y="1434.0"/>
      <point x="435.0" y="1385.0" type="qcurve" smooth="yes"/>
      <point x="553.0" y="490.0" type="line" smooth="yes"/>
      <point x="560.0" y="438.0"/>
      <point x="575.0" y="226.0"/>
      <point x="575.0" y="173.0" type="qcurve"/>
      <point x="579.0" y="173.0" type="line"/>
      <point x="604.0" y="232.0"/>
      <point x="715.0" y="436.0"/>
      <point x="747.0" y="490.0" type="qcurve" smooth="yes"/>
      <point x="1074.0" y="1038.0" type="line" smooth="yes"/>
      <point x="1173.0" y="1205.0"/>
      <point x="1364.0" y="1464.0"/>
      <point x="1573.0" y="1464.0" type="qcurve" smooth="yes"/>
      <point x="1643.0" y="1464.0"/>
      <point x="1690.0" y="1447.0" type="qcurve" smooth="yes"/>
      <point x="1723.0" y="1435.0"/>
      <point x="1711.0" y="1401.0" type="qcurve" smooth="yes"/>
      <point x="1682.0" y="1318.0" type="line" smooth="yes"/>
      <point x="1668.0" y="1277.0"/>
      <point x="1625.0" y="1295.0" type="qcurve" smooth="yes"/>
      <point x="1596.0" y="1307.0"/>
      <point x="1557.0" y="1307.0" type="qcurve" smooth="yes"/>
      <point x="1472.0" y="1307.0"/>
      <point x="1264.0" y="997.0"/>
      <point x="1215.0" y="916.0" type="qcurve" smooth="yes"/>
      <point x="699.0" y="61.0" type="line" smooth="yes"/>
      <point x="662.0" y="0.0"/>
      <point x="619.0" y="0.0" type="qcurve" smooth="yes"/>
      <point x="479.0" y="0.0" type="line" smooth="yes"/>
      <point x="436.0" y="-0.0"/>
      <point x="427.0" y="61.0" type="qcurve" smooth="yes"/>
    </contour>
  </outline>
</glyph>
<glyph name="afii10098" format="2">
  <advance width="846"/>
  <unicode hex="0491"/>
  <outline>
    <contour>
      <point x="67.0" y="0.0" type="line" smooth="yes"/>
      <point x="22.0" y="0.0"/>
      <point x="32.0" y="45.0" type="qcurve" smooth="yes"/>
      <point x="254.0" y="1005.0" type="line" smooth="yes"/>
      <point x="264.0" y="1050.0"/>
      <point x="309.0" y="1050.0" type="qcurve" smooth="yes"/>
      <point x="790.0" y="1050.0" type="line"/>
      <point x="853.0" y="1321.0" type="line" smooth="yes"/>
      <point x="863.0" y="1366.0"/>
      <point x="903.0" y="1366.0" type="qcurve" smooth="yes"/>
      <point x="977.0" y="1366.0" type="line" smooth="yes"/>
      <point x="1017.0" y="1366.0"/>
      <point x="1007.0" y="1321.0" type="qcurve" smooth="yes"/>
      <point x="924.0" y="963.0" type="line" smooth="yes"/>
      <point x="914.0" y="918.0"/>
      <point x="869.0" y="918.0" type="qcurve" smooth="yes"/>
      <point x="410.0" y="918.0" type="line"/>
      <point x="208.0" y="45.0" type="line" smooth="yes"/>
      <point x="198.0" y="0.0"/>
      <point x="153.0" y="0.0" type="qcurve" smooth="yes"/>
    </contour>
  </outline>
</glyph>
<glyph name="uni0493" format="2">
  <advance width="942"/>
  <unicode hex="0493"/>
  <outline>
    <contour>
      <point x="78.0" y="490.0" type="line" smooth="yes"/>
      <point x="33.0" y="490.0"/>
      <point x="41.0" y="525.0" type="qcurve" smooth="yes"/>
      <point x="56.0" y="587.0" type="line" smooth="yes"/>
      <point x="64.0" y="622.0"/>
      <point x="109.0" y="622.0" type="qcurve" smooth="yes"/>
      <point x="230.0" y="622.0" type="line"/>
      <point x="318.0" y="1005.0" type="line" smooth="yes"/>
      <point x="328.0" y="1050.0"/>
      <point x="373.0" y="1050.0" type="qcurve" smooth="yes"/>
      <point x="977.0" y="1050.0" type="line" smooth="yes"/>
      <point x="1022.0" y="1050.0"/>
      <point x="1014.0" y="1015.0" type="qcurve" smooth="yes"/>
      <point x="1000.0" y="953.0" type="line" smooth="yes"/>
      <point x="992.0" y="918.0"/>
      <point x="947.0" y="918.0" type="qcurve" smooth="yes"/>
      <point x="474.0" y="918.0" type="line"/>
      <point x="406.0" y="622.0" type="line"/>
      <point x="702.0" y="622.0" type="line" smooth="yes"/>
      <point x="747.0" y="622.0"/>
      <point x="739.0" y="587.0" type="qcurve" smooth="yes"/>
      <point x="724.0" y="525.0" type="line" smooth="yes"/>
      <point x="716.0" y="490.0"/>
      <point x="671.0" y="490.0" type="qcurve" smooth="yes"/>
      <point x="375.0" y="490.0" type="line"/>
      <point x="272.0" y="45.0" type="line" smooth="yes"/>
      <point x="262.0" y="0.0"/>
      <point x="217.0" y="0.0" type="qcurve" smooth="yes"/>
      <point x="131.0" y="0.0" type="line" smooth="yes"/>
      <point x="86.0" y="0.0"/>
      <point x="96.0" y="45.0" type="qcurve" smooth="yes"/>
      <point x="199.0" y="490.0" type="line"/>
    </contour>
  </outline>
</glyph>
<glyph name="uni0495" format="2">
  <advance width="1110"/>
  <unicode hex="0495"/>
  <outline>
    <contour>
      <point x="67.0" y="0.0" type="line" smooth="yes"/>
      <point x="22.0" y="0.0"/>
      <point x="32.0" y="45.0" type="qcurve" smooth="yes"/>
      <point x="254.0" y="1005.0" type="line" smooth="yes"/>
      <point x="264.0" y="1050.0"/>
      <point x="309.0" y="1050.0" type="qcurve" smooth="yes"/>
      <point x="913.0" y="1050.0" type="line" smooth="yes"/>
      <point x="958.0" y="1050.0"/>
      <point x="950.0" y="1015.0" type="qcurve" smooth="yes"/>
      <point x="936.0" y="953.0" type="line" smooth="yes"/>
      <point x="928.0" y="918.0"/>
      <point x="883.0" y="918.0" type="qcurve" smooth="yes"/>
      <point x="410.0" y="918.0" type="line"/>
      <point x="340.0" y="616.0" type="line" smooth="yes"/>
      <point x="333.0" y="587.0"/>
      <point x="324.0" y="556.0" type="qcurve"/>
      <point x="328.0" y="556.0" type="line"/>
      <point x="380.0" y="600.0"/>
      <point x="514.0" y="640.0"/>
      <point x="598.0" y="640.0" type="qcurve" smooth="yes"/>
      <point x="774.0" y="640.0"/>
      <point x="948.0" y="426.0"/>
      <point x="948.0" y="246.0" type="qcurve" smooth="yes"/>
      <point x="948.0" y="9.0"/>
      <point x="642.0" y="-417.0"/>
      <point x="328.0" y="-417.0" type="qcurve" smooth="yes"/>
      <point x="223.0" y="-417.0"/>
      <point x="154.0" y="-385.0" type="qcurve" smooth="yes"/>
      <point x="124.0" y="-371.0"/>
      <point x="139.0" y="-336.0" type="qcurve" smooth="yes"/>
      <point x="165.0" y="-276.0" type="line" smooth="yes"/>
      <point x="181.0" y="-239.0"/>
      <point x="228.0" y="-262.0" type="qcurve" smooth="yes"/>
      <point x="282.0" y="-287.0"/>
      <point x="351.0" y="-287.0" type="qcurve" smooth="yes"/>
      <point x="543.0" y="-287.0"/>
      <point x="762.0" y="51.0"/>
      <point x="762.0" y="255.0" type="qcurve" smooth="yes"/>
      <point x="762.0" y="396.0"/>
      <point x="645.0" y="510.0"/>
      <point x="549.0" y="510.0" type="qcurve" smooth="yes"/>
      <point x="480.0" y="510.0"/>
      <point x="345.0" y="456.0"/>
      <point x="292.0" y="406.0" type="qcurve"/>
      <point x="208.0" y="45.0" type="line" smooth="yes"/>
      <point x="198.0" y="0.0"/>
      <point x="153.0" y="0.0" type="qcurve" smooth="yes"/>
    </contour>
  </outline>
</glyph>
<glyph name="uni0496" format="2">
  <advance width="2024"/>
  <unicode hex="0496"/>
  <outline>
    <contour>
      <point x="-42.0" y="0.0" type="line" smooth="yes"/>
      <point x="-102.0" y="0.0"/>
      <point x="-45.0" y="66.0" type="qcurve" smooth="yes"/>
      <point x="337.0" y="506.0" type="line" smooth="yes"/>
      <point x="451.0" y="637.0"/>
      <point x="590.0" y="722.0"/>
      <point x="648.0" y="734.0" type="qcurve"/>
      <point x="649.0" y="735.0" type="line"/>
      <point x="625.0" y="745.0"/>
      <point x="521.0" y="853.0"/>
      <point x="485.0" y="932.0" type="qcurve" smooth="yes"/>
      <point x="287.0" y="1368.0" type="line" smooth="yes"/>
      <point x="257.0" y="1434.0"/>
      <point x="320.0" y="1434.0" type="qcurve" smooth="yes"/>
      <point x="417.0" y="1434.0" type="line" smooth="yes"/>
      <point x="461.0" y="1434.0"/>
      <point x="478.0" y="1395.0" type="qcurve" smooth="yes"/>
      <point x="642.0" y="1014.0" type="line" smooth="yes"/>
      <point x="681.0" y="923.0"/>
      <point x="803.0" y="813.0"/>
      <point x="906.0" y="813.0" type="qcurve" smooth="yes"/>
      <point x="936.0" y="813.0" type="line"/>
      <point x="1066.0" y="1379.0" type="line" smooth="yes"/>
      <point x="1079.0" y="1434.0"/>
      <point x="1129.0" y="1434.0" type="qcurve" smooth="yes"/>
      <point x="1221.0" y="1434.0" type="line" smooth="yes"/>
      <point x="1271.0" y="1434.0"/>
      <point x="1258.0" y="1379.0" type="qcurve" smooth="yes"/>
      <point x="1128.0" y="813.0" type="line"/>
      <point x="1158.0" y="813.0" type="line" smooth="yes"/>
      <point x="1257.0" y="813.0"/>
      <point x="1395.0" y="925.0"/>
      <point x="1474.0" y="1014.0" type="qcurve" smooth="yes"/>
      <point x="1814.0" y="1395.0" type="line" smooth="yes"/>
      <point x="1849.0" y="1434.0"/>
      <point x="1893.0" y="1434.0" type="qcurve" smooth="yes"/>
      <point x="2030.0" y="1434.0" type="line" smooth="yes"/>
      <point x="2094.0" y="1434.0"/>
      <point x="2033.0" y="1368.0" type="qcurve" smooth="yes"/>
      <point x="1633.0" y="932.0" type="line" smooth="yes"/>
      <point x="1558.0" y="850.0"/>
      <point x="1407.0" y="745.0"/>
      <point x="1379.0" y="735.0" type="qcurve"/>
      <point x="1378.0" y="734.0" type="line"/>
      <point x="1432.0" y="722.0"/>
      <point x="1532.0" y="637.0"/>
      <point x="1585.0" y="506.0" type="qcurve" smooth="yes"/>
      <point x="1724.0" y="164.0" type="line"/>
      <point x="1863.0" y="164.0" type="line" smooth="yes"/>
      <point x="1913.0" y="164.0"/>
      <point x="1900.0" y="109.0" type="qcurve" smooth="yes"/>
      <point x="1801.0" y="-320.0" type="line" smooth="yes"/>
      <point x="1789.0" y="-370.0"/>
      <point x="1750.0" y="-370.0" type="qcurve" smooth="yes"/>
      <point x="1664.0" y="-370.0" type="line" smooth="yes"/>
      <point x="1624.0" y="-370.0"/>
      <point x="1635.0" y="-320.0" type="qcurve" smooth="yes"/>
      <point x="1709.0" y="0.0" type="line"/>
      <point x="1623.0" y="0.0" type="line" smooth="yes"/>
      <point x="1576.0" y="0.0"/>
      <point x="1562.0" y="39.0" type="qcurve" smooth="yes"/>
      <point x="1434.0" y="408.0" type="line" smooth="yes"/>
      <point x="1395.0" y="520.0"/>
      <point x="1228.0" y="653.0"/>
      <point x="1136.0" y="653.0" type="qcurve" smooth="yes"/>
      <point x="1091.0" y="653.0" type="line"/>
      <point x="953.0" y="55.0" type="line" smooth="yes"/>
      <point x="940.0" y="0.0"/>
      <point x="890.0" y="0.0" type="qcurve" smooth="yes"/>
      <point x="798.0" y="0.0" type="line" smooth="yes"/>
      <point x="748.0" y="0.0"/>
      <point x="761.0" y="55.0" type="qcurve" smooth="yes"/>
      <point x="899.0" y="653.0" type="line"/>
      <point x="854.0" y="653.0" type="line" smooth="yes"/>
      <point x="768.0" y="653.0"/>
      <point x="571.0" y="518.0"/>
      <point x="482.0" y="408.0" type="qcurve" smooth="yes"/>
      <point x="184.0" y="39.0" type="line" smooth="yes"/>
      <point x="153.0" y="0.0"/>
      <point x="105.0" y="0.0" type="qcurve" smooth="yes"/>
    </contour>
  </outline>
</glyph>
<glyph name="uni0497" format="2">
  <advance width="1544"/>
  <unicode hex="0497"/>
  <outline>
    <contour>
      <point x="-29.0" y="0.0" type="line" smooth="yes"/>
      <point x="-90.0" y="0.0"/>
      <point x="-41.0" y="59.0" type="qcurve" smooth="yes"/>
      <point x="230.0" y="384.0" type="line" smooth="yes"/>
      <point x="301.0" y="469.0"/>
      <point x="392.0" y="532.0"/>
      <point x="446.0" y="552.0" type="qcurve"/>
      <point x="447.0" y="554.0" type="line"/>
      <point x="406.0" y="566.0"/>
      <point x="349.0" y="650.0"/>
      <point x="324.0" y="706.0" type="qcurve" smooth="yes"/>
      <point x="197.0" y="991.0" type="line" smooth="yes"/>
      <point x="171.0" y="1050.0"/>
      <point x="236.0" y="1050.0" type="qcurve" smooth="yes"/>
      <point x="311.0" y="1050.0" type="line" smooth="yes"/>
      <point x="348.0" y="1050.0"/>
      <point x="358.0" y="1024.0" type="qcurve" smooth="yes"/>
      <point x="462.0" y="760.0" type="line" smooth="yes"/>
      <point x="476.0" y="724.0"/>
      <point x="585.0" y="614.0"/>
      <point x="638.0" y="614.0" type="qcurve" smooth="yes"/>
      <point x="663.0" y="614.0" type="line"/>
      <point x="753.0" y="1005.0" type="line" smooth="yes"/>
      <point x="763.0" y="1050.0"/>
      <point x="808.0" y="1050.0" type="qcurve" smooth="yes"/>
      <point x="894.0" y="1050.0" type="line" smooth="yes"/>
      <point x="939.0" y="1050.0"/>
      <point x="929.0" y="1005.0" type="qcurve" smooth="yes"/>
      <point x="839.0" y="614.0" type="line"/>
      <point x="864.0" y="614.0" type="line" smooth="yes"/>
      <point x="917.0" y="614.0"/>
      <point x="1040.0" y="721.0"/>
      <point x="1074.0" y="760.0" type="qcurve" smooth="yes"/>
      <point x="1300.0" y="1024.0" type="line" smooth="yes"/>
      <point x="1322.0" y="1050.0"/>
      <point x="1359.0" y="1050.0" type="qcurve" smooth="yes"/>
      <point x="1466.0" y="1050.0" type="line" smooth="yes"/>
      <point x="1533.0" y="1050.0"/>
      <point x="1479.0" y="991.0" type="qcurve" smooth="yes"/>
      <point x="1220.0" y="706.0" type="line" smooth="yes"/>
      <point x="1179.0" y="661.0"/>
      <point x="1052.0" y="562.0"/>
      <point x="1027.0" y="554.0" type="qcurve"/>
      <point x="1026.0" y="552.0" type="line"/>
      <point x="1072.0" y="532.0"/>
      <point x="1135.0" y="467.0"/>
      <point x="1166.0" y="384.0" type="qcurve" smooth="yes"/>
      <point x="1259.0" y="132.0" type="line"/>
      <point x="1380.0" y="132.0" type="line" smooth="yes"/>
      <point x="1425.0" y="132.0"/>
      <point x="1415.0" y="87.0" type="qcurve" smooth="yes"/>
      <point x="1325.0" y="-305.0" type="line" smooth="yes"/>
      <point x="1315.0" y="-350.0"/>
      <point x="1274.0" y="-350.0" type="qcurve" smooth="yes"/>
      <point x="1200.0" y="-350.0" type="line" smooth="yes"/>
      <point x="1160.0" y="-350.0"/>
      <point x="1171.0" y="-305.0" type="qcurve" smooth="yes"/>
      <point x="1241.0" y="0.0" type="line"/>
      <point x="1168.0" y="0.0" type="line" smooth="yes"/>
      <point x="1133.0" y="0.0"/>
      <point x="1120.0" y="37.0" type="qcurve" smooth="yes"/>
      <point x="1010.0" y="358.0" type="line" smooth="yes"/>
      <point x="983.0" y="438.0"/>
      <point x="896.0" y="482.0"/>
      <point x="834.0" y="482.0" type="qcurve" smooth="yes"/>
      <point x="808.0" y="482.0" type="line"/>
      <point x="707.0" y="45.0" type="line" smooth="yes"/>
      <point x="697.0" y="0.0"/>
      <point x="652.0" y="0.0" type="qcurve" smooth="yes"/>
      <point x="566.0" y="0.0" type="line" smooth="yes"/>
      <point x="521.0" y="0.0"/>
      <point x="531.0" y="45.0" type="qcurve" smooth="yes"/>
      <point x="632.0" y="482.0" type="line"/>
      <point x="606.0" y="482.0" type="line" smooth="yes"/>
      <point x="544.0" y="482.0"/>
      <point x="474.0" y="438.0"/>
      <point x="410.0" y="358.0" type="qcurve" smooth="yes"/>
      <point x="152.0" y="37.0" type="line" smooth="yes"/>
      <point x="122.0" y="0.0"/>
      <point x="86.0" y="0.0" type="qcurve" smooth="yes"/>
    </contour>
  </outline>
</glyph>
<glyph name="uni049B" format="2">
  <advance width="1074"/>
  <unicode hex="049B"/>
  <outline>
    <contour>
      <point x="67.0" y="0.0" type="line" smooth="yes"/>
      <point x="22.0" y="0.0"/>
      <point x="32.0" y="45.0" type="qcurve" smooth="yes"/>
      <point x="254.0" y="1005.0" type="line" smooth="yes"/>
      <point x="264.0" y="1050.0"/>
      <point x="309.0" y="1050.0" type="qcurve" smooth="yes"/>
      <point x="395.0" y="1050.0" type="line" smooth="yes"/>
      <point x="440.0" y="1050.0"/>
      <point x="430.0" y="1005.0" type="qcurve" smooth="yes"/>
      <point x="340.0" y="614.0" type="line"/>
      <point x="381.0" y="614.0" type="line" smooth="yes"/>
      <point x="434.0" y="614.0"/>
      <point x="566.0" y="720.0"/>
      <point x="601.0" y="760.0" type="qcurve" smooth="yes"/>
      <point x="831.0" y="1024.0" type="line" smooth="yes"/>
      <point x="854.0" y="1050.0"/>
      <point x="890.0" y="1050.0" type="qcurve" smooth="yes"/>
      <point x="997.0" y="1050.0" type="line" smooth="yes"/>
      <point x="1065.0" y="1050.0"/>
      <point x="1010.0" y="991.0" type="qcurve" smooth="yes"/>
      <point x="740.0" y="700.0" type="line" smooth="yes"/>
      <point x="713.0" y="671.0"/>
      <point x="576.0" y="566.0"/>
      <point x="541.0" y="554.0" type="qcurve"/>
      <point x="540.0" y="552.0" type="line"/>
      <point x="593.0" y="533.0"/>
      <point x="660.0" y="470.0"/>
      <point x="693.0" y="384.0" type="qcurve" smooth="yes"/>
      <point x="789.0" y="132.0" type="line"/>
      <point x="910.0" y="132.0" type="line" smooth="yes"/>
      <point x="955.0" y="132.0"/>
      <point x="945.0" y="87.0" type="qcurve" smooth="yes"/>
      <point x="855.0" y="-305.0" type="line" smooth="yes"/>
      <point x="845.0" y="-350.0"/>
      <point x="804.0" y="-350.0" type="qcurve" smooth="yes"/>
      <point x="730.0" y="-350.0" type="line" smooth="yes"/>
      <point x="690.0" y="-350.0"/>
      <point x="701.0" y="-305.0" type="qcurve" smooth="yes"/>
      <point x="771.0" y="0.0" type="line"/>
      <point x="698.0" y="0.0" type="line" smooth="yes"/>
      <point x="663.0" y="0.0"/>
      <point x="650.0" y="37.0" type="qcurve" smooth="yes"/>
      <point x="537.0" y="358.0" type="line" smooth="yes"/>
      <point x="511.0" y="433.0"/>
      <point x="413.0" y="482.0"/>
      <point x="351.0" y="482.0" type="qcurve" smooth="yes"/>
      <point x="309.0" y="482.0" type="line"/>
      <point x="208.0" y="45.0" type="line" smooth="yes"/>
      <point x="198.0" y="0.0"/>
      <point x="153.0" y="0.0" type="qcurve" smooth="yes"/>
    </contour>
  </outline>
</glyph>
<glyph name="uni04A5" format="2">
  <advance width="1498"/>
  <unicode hex="04A5"/>
  <outline>
    <contour>
      <point x="67.0" y="0.0" type="line" smooth="yes"/>
      <point x="22.0" y="0.0"/>
      <point x="32.0" y="45.0" type="qcurve" smooth="yes"/>
      <point x="254.0" y="1005.0" type="line" smooth="yes"/>
      <point x="264.0" y="1050.0"/>
      <point x="309.0" y="1050.0" type="qcurve" smooth="yes"/>
      <point x="395.0" y="1050.0" type="line" smooth="yes"/>
      <point x="440.0" y="1050.0"/>
      <point x="430.0" y="1005.0" type="qcurve" smooth="yes"/>
      <point x="340.0" y="614.0" type="line"/>
      <point x="824.0" y="614.0" type="line"/>
      <point x="914.0" y="1005.0" type="line" smooth="yes"/>
      <point x="924.0" y="1050.0"/>
      <point x="969.0" y="1050.0" type="qcurve" smooth="yes"/>
      <point x="1543.0" y="1050.0" type="line" smooth="yes"/>
      <point x="1588.0" y="1050.0"/>
      <point x="1580.0" y="1015.0" type="qcurve" smooth="yes"/>
      <point x="1566.0" y="953.0" type="line" smooth="yes"/>
      <point x="1558.0" y="918.0"/>
      <point x="1513.0" y="918.0" type="qcurve" smooth="yes"/>
      <point x="1070.0" y="918.0" type="line"/>
      <point x="868.0" y="45.0" type="line" smooth="yes"/>
      <point x="858.0" y="0.0"/>
      <point x="813.0" y="0.0" type="qcurve" smooth="yes"/>
      <point x="727.0" y="0.0" type="line" smooth="yes"/>
      <point x="682.0" y="0.0"/>
      <point x="692.0" y="45.0" type="qcurve" smooth="yes"/>
      <point x="793.0" y="482.0" type="line"/>
      <point x="309.0" y="482.0" type="line"/>
      <point x="208.0" y="45.0" type="line" smooth="yes"/>
      <point x="198.0" y="0.0"/>
      <point x="153.0" y="0.0" type="qcurve" smooth="yes"/>
    </contour>
  </outline>
</glyph>
<glyph name="uni04AF" format="2">
  <advance width="986"/>
  <unicode hex="04AF"/>
  <outline>
    <contour>
      <point x="156.0" y="1001.0" type="line" smooth="yes"/>
      <point x="150.0" y="1050.0"/>
      <point x="194.0" y="1050.0" type="qcurve" smooth="yes"/>
      <point x="293.0" y="1050.0" type="line" smooth="yes"/>
      <point x="326.0" y="1050.0"/>
      <point x="329.0" y="1011.0" type="qcurve" smooth="yes"/>
      <point x="389.0" y="351.0" type="line" smooth="yes"/>
      <point x="395.0" y="283.0"/>
      <point x="399.0" y="209.0"/>
      <point x="399.0" y="164.0" type="qcurve"/>
      <point x="403.0" y="164.0" type="line"/>
      <point x="421.0" y="209.0"/>
      <point x="454.0" y="269.0"/>
      <point x="499.0" y="351.0" type="qcurve" smooth="yes"/>
      <point x="863.0" y="1011.0" type="line" smooth="yes"/>
      <point x="885.0" y="1050.0"/>
      <point x="917.0" y="1050.0" type="qcurve" smooth="yes"/>
      <point x="1036.0" y="1050.0" type="line" smooth="yes"/>
      <point x="1081.0" y="1050.0"/>
      <point x="1052.0" y="1001.0" type="qcurve" smooth="yes"/>
      <point x="454.0" y="-30.0" type="line"/>
      <point x="379.0" y="-355.0" type="line" smooth="yes"/>
      <point x="369.0" y="-400.0"/>
      <point x="324.0" y="-400.0" type="qcurve" smooth="yes"/>
      <point x="238.0" y="-400.0" type="line" smooth="yes"/>
      <point x="193.0" y="-400.0"/>
      <point x="203.0" y="-355.0" type="qcurve" smooth="yes"/>
      <point x="278.0" y="-30.0" type="line"/>
    </contour>
  </outline>
</glyph>
<glyph name="uni04C3" format="2">
  <advance width="1322"/>
  <unicode hex="04C3"/>
  <outline>
    <contour>
      <point x="100.0" y="0.0" type="line" smooth="yes"/>
      <point x="50.0" y="0.0"/>
      <point x="63.0" y="55.0" type="qcurve" smooth="yes"/>
      <point x="368.0" y="1379.0" type="line" smooth="yes"/>
      <point x="381.0" y="1434.0"/>
      <point x="431.0" y="1434.0" type="qcurve" smooth="yes"/>
      <point x="523.0" y="1434.0" type="line" smooth="yes"/>
      <point x="573.0" y="1434.0"/>
      <point x="560.0" y="1379.0" type="qcurve" smooth="yes"/>
      <point x="430.0" y="813.0" type="line"/>
      <point x="472.0" y="813.0" type="line" smooth="yes"/>
      <point x="586.0" y="813.0"/>
      <point x="709.0" y="906.0"/>
      <point x="808.0" y="1014.0" type="qcurve" smooth="yes"/>
      <point x="1156.0" y="1395.0" type="line" smooth="yes"/>
      <point x="1192.0" y="1434.0"/>
      <point x="1235.0" y="1434.0" type="qcurve" smooth="yes"/>
      <point x="1372.0" y="1434.0" type="line" smooth="yes"/>
      <point x="1437.0" y="1434.0"/>
      <point x="1375.0" y="1368.0" type="qcurve" smooth="yes"/>
      <point x="967.0" y="932.0" type="line" smooth="yes"/>
      <point x="922.0" y="884.0"/>
      <point x="793.0" y="775.0"/>
      <point x="765.0" y="765.0" type="qcurve"/>
      <point x="764.0" y="764.0" type="line"/>
      <point x="963.0" y="696.0"/>
      <point x="1156.0" y="420.0"/>
      <point x="1156.0" y="252.0" type="qcurve" smooth="yes"/>
      <point x="1156.0" y="0.0"/>
      <point x="804.0" y="-390.0"/>
      <point x="543.0" y="-390.0" type="qcurve" smooth="yes"/>
      <point x="425.0" y="-390.0"/>
      <point x="363.0" y="-371.0" type="qcurve" smooth="yes"/>
      <point x="330.0" y="-361.0"/>
      <point x="342.0" y="-325.0" type="qcurve" smooth="yes"/>
      <point x="369.0" y="-244.0" type="line" smooth="yes"/>
      <point x="383.0" y="-202.0"/>
      <point x="431.0" y="-219.0" type="qcurve" smooth="yes"/>
      <point x="471.0" y="-233.0"/>
      <point x="557.0" y="-233.0" type="qcurve" smooth="yes"/>
      <point x="708.0" y="-233.0"/>
      <point x="951.0" y="40.0"/>
      <point x="951.0" y="249.0" type="qcurve" smooth="yes"/>
      <point x="951.0" y="429.0"/>
      <point x="702.0" y="653.0"/>
      <point x="465.0" y="653.0" type="qcurve" smooth="yes"/>
      <point x="393.0" y="653.0" type="line"/>
      <point x="255.0" y="55.0" type="line" smooth="yes"/>
      <point x="242.0" y="0.0"/>
      <point x="192.0" y="0.0" type="qcurve" smooth="yes"/>
    </contour>
  </outline>
</glyph>
<glyph name="uni04CB" format="2">
  <advance width="1286"/>
  <unicode hex="04CB"/>
  <outline>
    <contour>
      <point x="211.0" y="912.0" type="qcurve" smooth="yes"/>
      <point x="318.0" y="1379.0" type="line" smooth="yes"/>
      <point x="331.0" y="1434.0"/>
      <point x="381.0" y="1434.0" type="qcurve" smooth="yes"/>
      <point x="473.0" y="1434.0" type="line" smooth="yes"/>
      <point x="523.0" y="1434.0"/>
      <point x="510.0" y="1379.0" type="qcurve" smooth="yes"/>
      <point x="414.0" y="960.0" type="line" smooth="yes"/>
      <point x="382.0" y="820.0"/>
      <point x="454.0" y="720.0"/>
      <point x="564.0" y="720.0" type="qcurve" smooth="yes"/>
      <point x="618.0" y="720.0"/>
      <point x="894.0" y="758.0"/>
      <point x="988.0" y="797.0" type="qcurve"/>
      <point x="1122.0" y="1379.0" type="line" smooth="yes"/>
      <point x="1135.0" y="1434.0"/>
      <point x="1185.0" y="1434.0" type="qcurve" smooth="yes"/>
      <point x="1277.0" y="1434.0" type="line" smooth="yes"/>
      <point x="1327.0" y="1434.0"/>
      <point x="1314.0" y="1379.0" type="qcurve" smooth="yes"/>
      <point x="1009.0" y="55.0" type="line" smooth="yes"/>
      <point x="996.0" y="0.0"/>
      <point x="946.0" y="0.0" type="qcurve" smooth="yes"/>
      <point x="788.0" y="0.0" type="line"/>
      <point x="714.0" y="-320.0" type="line" smooth="yes"/>
      <point x="702.0" y="-370.0"/>
      <point x="663.0" y="-370.0" type="qcurve" smooth="yes"/>
      <point x="577.0" y="-370.0" type="line" smooth="yes"/>
      <point x="536.0" y="-370.0"/>
      <point x="548.0" y="-320.0" type="qcurve" smooth="yes"/>
      <point x="647.0" y="109.0" type="line" smooth="yes"/>
      <point x="660.0" y="164.0"/>
      <point x="710.0" y="164.0" type="qcurve" smooth="yes"/>
      <point x="842.0" y="164.0" type="line"/>
      <point x="938.0" y="583.0" type="line" smooth="yes"/>
      <point x="948.0" y="625.0"/>
      <point x="959.0" y="663.0" type="qcurve"/>
      <point x="955.0" y="663.0" type="line"/>
      <point x="851.0" y="622.0"/>
      <point x="654.0" y="566.0"/>
      <point x="504.0" y="566.0" type="qcurve" smooth="yes"/>
      <point x="342.0" y="566.0"/>
      <point x="178.0" y="771.0"/>
    </contour>
  </outline>
</glyph>
<glyph name="uni04D5" format="2">
  <advance width="1722"/>
  <unicode hex="04D5"/>
  <outline>
    <contour>
      <point x="66.0" y="339.0" type="qcurve" smooth="yes"/>
      <point x="66.0" y="614.0"/>
      <point x="432.0" y="1067.0"/>
      <point x="638.0" y="1067.0" type="qcurve" smooth="yes"/>
      <point x="742.0" y="1067.0"/>
      <point x="878.0" y="958.0"/>
      <point x="907.0" y="871.0" type="qcurve"/>
      <point x="909.0" y="871.0" type="line"/>
      <point x="975.0" y="954.0"/>
      <point x="1180.0" y="1067.0"/>
      <point x="1316.0" y="1067.0" type="qcurve" smooth="yes"/>
      <point x="1470.0" y="1067.0"/>
      <point x="1642.0" y="882.0"/>
      <point x="1642.0" y="778.0" type="qcurve" smooth="yes"/>
      <point x="1642.0" y="636.0"/>
      <point x="1367.0" y="487.0"/>
      <point x="1163.0" y="445.0" type="qcurve" smooth="yes"/>
      <point x="939.0" y="399.0" type="line"/>
      <point x="933.0" y="361.0"/>
      <point x="933.0" y="359.0" type="qcurve" smooth="yes"/>
      <point x="933.0" y="250.0"/>
      <point x="1028.0" y="114.0"/>
      <point x="1161.0" y="114.0" type="qcurve" smooth="yes"/>
      <point x="1259.0" y="114.0"/>
      <point x="1398.0" y="204.0"/>
      <point x="1421.0" y="232.0" type="qcurve" smooth="yes"/>
      <point x="1458.0" y="277.0"/>
      <point x="1484.0" y="253.0" type="qcurve" smooth="yes"/>
      <point x="1540.0" y="202.0" type="line" smooth="yes"/>
      <point x="1563.0" y="181.0"/>
      <point x="1534.0" y="146.0" type="qcurve" smooth="yes"/>
      <point x="1503.0" y="108.0"/>
      <point x="1323.0" y="-17.0"/>
      <point x="1137.0" y="-17.0" type="qcurve" smooth="yes"/>
      <point x="976.0" y="-17.0"/>
      <point x="812.0" y="138.0"/>
      <point x="782.0" y="267.0" type="qcurve"/>
      <point x="780.0" y="267.0" type="line"/>
      <point x="690.0" y="118.0"/>
      <point x="490.0" y="-17.0"/>
      <point x="381.0" y="-17.0" type="qcurve" smooth="yes"/>
      <point x="236.0" y="-17.0"/>
      <point x="66.0" y="158.0"/>
    </contour>
    <contour>
      <point x="252.0" y="332.0" type="qcurve" smooth="yes"/>
      <point x="252.0" y="266.0"/>
      <point x="317.0" y="113.0"/>
      <point x="427.0" y="113.0" type="qcurve" smooth="yes"/>
      <point x="514.0" y="113.0"/>
      <point x="716.0" y="326.0"/>
      <point x="752.0" y="480.0" type="qcurve" smooth="yes"/>
      <point x="819.0" y="770.0" type="line"/>
      <point x="801.0" y="861.0"/>
      <point x="699.0" y="937.0"/>
      <point x="632.0" y="937.0" type="qcurve" smooth="yes"/>
      <point x="502.0" y="937.0"/>
      <point x="252.0" y="578.0"/>
    </contour>
    <contour>
      <point x="944.0" y="538.0" type="qcurve"/>
      <point x="1127.0" y="575.0" type="line" smooth="yes"/>
      <point x="1307.0" y="611.0"/>
      <point x="1466.0" y="700.0"/>
      <point x="1466.0" y="786.0" type="qcurve" smooth="yes"/>
      <point x="1466.0" y="854.0"/>
      <point x="1377.0" y="937.0"/>
      <point x="1283.0" y="937.0" type="qcurve" smooth="yes"/>
      <point x="1176.0" y="937.0"/>
      <point x="988.0" y="753.0"/>
    </contour>
  </outline>
</glyph>
<glyph name="uni04D8" format="2">
  <advance width="1464"/>
  <unicode hex="04D8"/>
  <outline>
    <contour>
      <point x="87.0" y="547.0" type="qcurve" smooth="yes"/>
      <point x="87.0" y="645.0"/>
      <point x="112.0" y="755.0" type="qcurve" smooth="yes"/>
      <point x="127.0" y="818.0"/>
      <point x="186.0" y="820.0" type="qcurve" smooth="yes"/>
      <point x="1240.0" y="820.0" type="line"/>
      <point x="1241.0" y="862.0"/>
      <point x="1241.0" y="903.0" type="qcurve" smooth="yes"/>
      <point x="1241.0" y="1038.0"/>
      <point x="1066.0" y="1308.0"/>
      <point x="832.0" y="1308.0" type="qcurve" smooth="yes"/>
      <point x="698.0" y="1308.0"/>
      <point x="562.0" y="1255.0"/>
      <point x="457.0" y="1191.0" type="qcurve" smooth="yes"/>
      <point x="402.0" y="1157.0"/>
      <point x="378.0" y="1191.0" type="qcurve" smooth="yes"/>
      <point x="332.0" y="1255.0" type="line" smooth="yes"/>
      <point x="308.0" y="1289.0"/>
      <point x="364.0" y="1327.0" type="qcurve" smooth="yes"/>
      <point x="447.0" y="1384.0"/>
      <point x="702.0" y="1464.0"/>
      <point x="865.0" y="1464.0" type="qcurve" smooth="yes"/>
      <point x="1107.0" y="1464.0"/>
      <point x="1445.0" y="1167.0"/>
      <point x="1445.0" y="847.0" type="qcurve" smooth="yes"/>
      <point x="1445.0" y="497.0"/>
      <point x="1044.0" y="-30.0"/>
      <point x="675.0" y="-30.0" type="qcurve" smooth="yes"/>
      <point x="357.0" y="-30.0"/>
      <point x="87.0" y="344.0"/>
    </contour>
    <contour>
      <point x="290.0" y="530.0" type="qcurve" smooth="yes"/>
      <point x="290.0" y="397.0"/>
      <point x="468.0" y="126.0"/>
      <point x="695.0" y="126.0" type="qcurve" smooth="yes"/>
      <point x="879.0" y="126.0"/>
      <point x="1163.0" y="378.0"/>
      <point x="1227.0" y="656.0" type="qcurve"/>
      <point x="305.0" y="656.0" type="line"/>
      <point x="290.0" y="591.0"/>
    </contour>
  </outline>
</glyph>
<glyph name="afii10846" format="2">
  <advance width="1086"/>
  <unicode hex="04D9"/>
  <outline>
    <contour>
      <point x="76.0" y="297.0" type="qcurve" smooth="yes"/>
      <point x="76.0" y="438.0"/>
      <point x="321.0" y="584.0"/>
      <point x="576.0" y="630.0" type="qcurve" smooth="yes"/>
      <point x="831.0" y="676.0" type="line"/>
      <point x="832.0" y="694.0"/>
      <point x="832.0" y="715.0" type="qcurve" smooth="yes"/>
      <point x="832.0" y="806.0"/>
      <point x="736.0" y="936.0"/>
      <point x="589.0" y="936.0" type="qcurve" smooth="yes"/>
      <point x="508.0" y="936.0"/>
      <point x="350.0" y="864.0"/>
      <point x="308.0" y="825.0" type="qcurve" smooth="yes"/>
      <point x="264.0" y="785.0"/>
      <point x="243.0" y="809.0" type="qcurve" smooth="yes"/>
      <point x="195.0" y="863.0" type="line" smooth="yes"/>
      <point x="173.0" y="887.0"/>
      <point x="206.0" y="918.0" type="qcurve" smooth="yes"/>
      <point x="264.0" y="972.0"/>
      <point x="476.0" y="1067.0"/>
      <point x="613.0" y="1067.0" type="qcurve" smooth="yes"/>
      <point x="836.0" y="1067.0"/>
      <point x="1018.0" y="820.0"/>
      <point x="1018.0" y="654.0" type="qcurve" smooth="yes"/>
      <point x="1018.0" y="354.0"/>
      <point x="705.0" y="-17.0"/>
      <point x="434.0" y="-17.0" type="qcurve" smooth="yes"/>
      <point x="268.0" y="-17.0"/>
      <point x="76.0" y="156.0"/>
    </contour>
    <contour>
      <point x="249.0" y="300.0" type="qcurve" smooth="yes"/>
      <point x="249.0" y="212.0"/>
      <point x="360.0" y="113.0"/>
      <point x="467.0" y="113.0" type="qcurve" smooth="yes"/>
      <point x="588.0" y="113.0"/>
      <point x="784.0" y="323.0"/>
      <point x="828.0" y="538.0" type="qcurve"/>
      <point x="612.0" y="499.0" type="line" smooth="yes"/>
      <point x="488.0" y="477.0"/>
      <point x="249.0" y="400.0"/>
    </contour>
  </outline>
</glyph>
<glyph name="uni0512" format="2">
  <advance width="1474"/>
  <unicode hex="0512"/>
  <outline>
    <contour>
      <point x="-46.0" y="-17.0" type="qcurve" smooth="yes"/>
      <point x="-77.0" y="-6.0"/>
      <point x="-67.0" y="29.0" type="qcurve" smooth="yes"/>
      <point x="-42.0" y="112.0" type="line" smooth="yes"/>
      <point x="-31.0" y="149.0"/>
      <point x="15.0" y="135.0" type="qcurve" smooth="yes"/>
      <point x="41.0" y="127.0"/>
      <point x="92.0" y="127.0" type="qcurve" smooth="yes"/>
      <point x="261.0" y="127.0"/>
      <point x="466.0" y="654.0"/>
      <point x="563.0" y="1077.0" type="qcurve" smooth="yes"/>
      <point x="632.0" y="1379.0" type="line" smooth="yes"/>
      <point x="645.0" y="1434.0"/>
      <point x="695.0" y="1434.0" type="qcurve" smooth="yes"/>
      <point x="1465.0" y="1434.0" type="line" smooth="yes"/>
      <point x="1515.0" y="1434.0"/>
      <point x="1502.0" y="1379.0" type="qcurve" smooth="yes"/>
      <point x="1182.0" y="-9.0" type="line" smooth="yes"/>
      <point x="1130.0" y="-236.0"/>
      <point x="916.0" y="-417.0"/>
      <point x="748.0" y="-417.0" type="qcurve" smooth="yes"/>
      <point x="664.0" y="-417.0"/>
      <point x="582.0" y="-382.0" type="qcurve" smooth="yes"/>
      <point x="544.0" y="-366.0"/>
      <point x="563.0" y="-320.0" type="qcurve" smooth="yes"/>
      <point x="592.0" y="-249.0" type="line" smooth="yes"/>
      <point x="609.0" y="-208.0"/>
      <point x="660.0" y="-232.0" type="qcurve" smooth="yes"/>
      <point x="721.0" y="-261.0"/>
      <point x="767.0" y="-261.0" type="qcurve" smooth="yes"/>
      <point x="838.0" y="-261.0"/>
      <point x="959.0" y="-146.0"/>
      <point x="1001.0" y="38.0" type="qcurve" smooth="yes"/>
      <point x="1285.0" y="1270.0" type="line"/>
      <point x="773.0" y="1270.0" type="line"/>
      <point x="716.0" y="1021.0" type="line" smooth="yes"/>
      <point x="572.0" y="393.0"/>
      <point x="315.0" y="-30.0"/>
      <point x="79.0" y="-30.0" type="qcurve" smooth="yes"/>
      <point x="-9.0" y="-30.0"/>
    </contour>
  </outline>
</glyph>
<glyph name="endash" format="2">
  <advance width="1032"/>
  <unicode hex="2013"/>
  <outline>
    <contour>
      <point x="89.0" y="488.0" type="line" smooth="yes"/>
      <point x="44.0" y="488.0"/>
      <point x="44.0" y="523.0" type="qcurve" smooth="yes"/>
      <point x="44.0" y="583.0" type="line" smooth="yes"/>
      <point x="44.0" y="618.0"/>
      <point x="89.0" y="618.0" type="qcurve" smooth="yes"/>
      <point x="951.0" y="618.0" type="line" smooth="yes"/>
      <point x="996.0" y="618.0"/>
      <point x="996.0" y="583.0" type="qcurve" smooth="yes"/>
      <point x="996.0" y="523.0" type="line" smooth="yes"/>
      <point x="996.0" y="488.0"/>
      <point x="951.0" y="488.0" type="qcurve" smooth="yes"/>
    </contour>
  </outline>
</glyph>
<glyph name="daggerdbl" format="2">
  <advance width="1040"/>
  <unicode hex="2021"/>
  <outline>
    <contour>
      <point x="10.0" y="63.0" type="line" smooth="yes"/>
      <point x="-35.0" y="63.0"/>
      <point x="-25.0" y="108.0" type="qcurve" smooth="yes"/>
      <point x="-12.0" y="164.0" type="line" smooth="yes"/>
      <point x="-2.0" y="209.0"/>
      <point x="43.0" y="209.0" type="qcurve" smooth="yes"/>
      <point x="328.0" y="209.0" type="line"/>
      <point x="376.0" y="199.0" type="line"/>
      <point x="377.0" y="249.0" type="line"/>
      <point x="510.0" y="825.0" type="line"/>
      <point x="532.0" y="875.0" type="line"/>
      <point x="480.0" y="865.0" type="line"/>
      <point x="195.0" y="865.0" type="line" smooth="yes"/>
      <point x="150.0" y="865.0"/>
      <point x="160.0" y="910.0" type="qcurve" smooth="yes"/>
      <point x="173.0" y="966.0" type="line" smooth="yes"/>
      <point x="183.0" y="1011.0"/>
      <point x="228.0" y="1011.0" type="qcurve" smooth="yes"/>
      <point x="513.0" y="1011.0" type="line"/>
      <point x="561.0" y="1001.0" type="line"/>
      <point x="563.0" y="1051.0" type="line"/>
      <point x="629.0" y="1339.0" type="line" smooth="yes"/>
      <point x="639.0" y="1384.0"/>
      <point x="675.0" y="1384.0" type="qcurve" smooth="yes"/>
      <point x="765.0" y="1384.0" type="line" smooth="yes"/>
      <point x="800.0" y="1384.0"/>
      <point x="789.0" y="1339.0" type="qcurve" smooth="yes"/>
      <point x="723.0" y="1051.0" type="line"/>
      <point x="701.0" y="1001.0" type="line"/>
      <point x="753.0" y="1011.0" type="line"/>
      <point x="1038.0" y="1011.0" type="line" smooth="yes"/>
      <point x="1083.0" y="1011.0"/>
      <point x="1073.0" y="966.0" type="qcurve" smooth="yes"/>
      <point x="1060.0" y="910.0" type="line" smooth="yes"/>
      <point x="1050.0" y="865.0"/>
      <point x="1005.0" y="865.0" type="qcurve" smooth="yes"/>
      <point x="720.0" y="865.0" type="line"/>
      <point x="672.0" y="875.0" type="line"/>
      <point x="670.0" y="825.0" type="line"/>
      <point x="537.0" y="249.0" type="line"/>
      <point x="516.0" y="199.0" type="line"/>
      <point x="568.0" y="209.0" type="line"/>
      <point x="853.0" y="209.0" type="line" smooth="yes"/>
      <point x="898.0" y="209.0"/>
      <point x="888.0" y="164.0" type="qcurve" smooth="yes"/>
      <point x="875.0" y="108.0" type="line" smooth="yes"/>
      <point x="865.0" y="63.0"/>
      <point x="820.0" y="63.0" type="qcurve" smooth="yes"/>
      <point x="535.0" y="63.0" type="line"/>
      <point x="487.0" y="73.0" type="line"/>
      <point x="485.0" y="23.0" type="line"/>
      <point x="419.0" y="-265.0" type="line" smooth="yes"/>
      <point x="409.0" y="-310.0"/>
      <point x="373.0" y="-310.0" type="qcurve" smooth="yes"/>
      <point x="283.0" y="-310.0" type="line" smooth="yes"/>
      <point x="248.0" y="-310.0"/>
      <point x="259.0" y="-265.0" type="qcurve" smooth="yes"/>
      <point x="325.0" y="23.0" type="line"/>
      <point x="347.0" y="73.0" type="line"/>
      <point x="295.0" y="63.0" type="line"/>
    </contour>
  </outline>
</glyph>
<glyph name="uni2070" format="2">
  <advance width="596"/>
  <unicode hex="2070"/>
  <outline>
    <contour>
      <point x="162.0" y="938.0" type="qcurve" smooth="yes"/>
      <point x="162.0" y="1130.0"/>
      <point x="328.0" y="1466.0"/>
      <point x="493.0" y="1466.0" type="qcurve" smooth="yes"/>
      <point x="578.0" y="1466.0"/>
      <point x="694.0" y="1358.0"/>
      <point x="694.0" y="1224.0" type="qcurve" smooth="yes"/>
      <point x="694.0" y="1032.0"/>
      <point x="528.0" y="696.0"/>
      <point x="363.0" y="696.0" type="qcurve" smooth="yes"/>
      <point x="278.0" y="696.0"/>
      <point x="162.0" y="804.0"/>
    </contour>
    <contour>
      <point x="280.0" y="921.0" type="qcurve" smooth="yes"/>
      <point x="280.0" y="836.0"/>
      <point x="334.0" y="793.0"/>
      <point x="373.0" y="793.0" type="qcurve" smooth="yes"/>
      <point x="459.0" y="793.0"/>
      <point x="576.0" y="1066.0"/>
      <point x="576.0" y="1241.0" type="qcurve" smooth="yes"/>
      <point x="576.0" y="1326.0"/>
      <point x="522.0" y="1369.0"/>
      <point x="483.0" y="1369.0" type="qcurve" smooth="yes"/>
      <point x="397.0" y="1369.0"/>
      <point x="280.0" y="1096.0"/>
    </contour>
  </outline>
</glyph>
<glyph name="uni2071" format="2">
  <advance width="350"/>
  <unicode hex="2071"/>
  <outline>
    <contour>
      <point x="391.0" y="1605.0" type="line" smooth="yes"/>
      <point x="360.0" y="1605.0"/>
      <point x="366.0" y="1634.0" type="qcurve" smooth="yes"/>
      <point x="379.0" y="1690.0" type="line" smooth="yes"/>
      <point x="386.0" y="1719.0"/>
      <point x="417.0" y="1719.0" type="qcurve" smooth="yes"/>
      <point x="487.0" y="1719.0" type="line" smooth="yes"/>
      <point x="518.0" y="1719.0"/>
      <point x="511.0" y="1690.0" type="qcurve" smooth="yes"/>
      <point x="498.0" y="1634.0" type="line" smooth="yes"/>
      <point x="491.0" y="1605.0"/>
      <point x="461.0" y="1605.0" type="qcurve" smooth="yes"/>
    </contour>
    <contour>
      <point x="204.0" y="799.0" type="line" smooth="yes"/>
      <point x="173.0" y="799.0"/>
      <point x="180.0" y="828.0" type="qcurve" smooth="yes"/>
      <point x="324.0" y="1452.0" type="line" smooth="yes"/>
      <point x="331.0" y="1482.0"/>
      <point x="362.0" y="1482.0" type="qcurve" smooth="yes"/>
      <point x="432.0" y="1482.0" type="line" smooth="yes"/>
      <point x="463.0" y="1482.0"/>
      <point x="456.0" y="1452.0" type="qcurve" smooth="yes"/>
      <point x="312.0" y="828.0" type="line" smooth="yes"/>
      <point x="305.0" y="799.0"/>
      <point x="274.0" y="799.0" type="qcurve" smooth="yes"/>
    </contour>
  </outline>
</glyph>
<glyph name="uni2074" format="2">
  <advance width="586"/>
  <unicode hex="2074"/>
  <outline>
    <contour>
      <point x="140.0" y="885.0" type="line" smooth="yes"/>
      <point x="117.0" y="885.0"/>
      <point x="122.0" y="908.0" type="qcurve" smooth="yes"/>
      <point x="137.0" y="979.0" type="line" smooth="yes"/>
      <point x="140.0" y="993.0"/>
      <point x="159.0" y="1015.0" type="qcurve" smooth="yes"/>
      <point x="532.0" y="1441.0" type="line" smooth="yes"/>
      <point x="549.0" y="1460.0"/>
      <point x="565.0" y="1460.0" type="qcurve" smooth="yes"/>
      <point x="653.0" y="1460.0" type="line" smooth="yes"/>
      <point x="677.0" y="1460.0"/>
      <point x="672.0" y="1437.0" type="qcurve" smooth="yes"/>
      <point x="569.0" y="992.0" type="line"/>
      <point x="639.0" y="992.0" type="line" smooth="yes"/>
      <point x="662.0" y="992.0"/>
      <point x="657.0" y="969.0" type="qcurve" smooth="yes"/>
      <point x="643.0" y="908.0" type="line" smooth="yes"/>
      <point x="638.0" y="885.0"/>
      <point x="615.0" y="885.0" type="qcurve" smooth="yes"/>
      <point x="544.0" y="885.0" type="line"/>
      <point x="510.0" y="735.0" type="line" smooth="yes"/>
      <point x="505.0" y="712.0"/>
      <point x="481.0" y="712.0" type="qcurve" smooth="yes"/>
      <point x="407.0" y="712.0" type="line" smooth="yes"/>
      <point x="385.0" y="712.0"/>
      <point x="390.0" y="735.0" type="qcurve" smooth="yes"/>
      <point x="424.0" y="885.0" type="line"/>
    </contour>
    <contour>
      <point x="265.0" y="992.0" type="line"/>
      <point x="449.0" y="992.0" type="line"/>
      <point x="510.0" y="1254.0" type="line" smooth="yes"/>
      <point x="513.0" y="1268.0"/>
      <point x="520.0" y="1285.0" type="qcurve"/>
      <point x="517.0" y="1285.0" type="line"/>
    </contour>
  </outline>
</glyph>
<glyph name="uni2075" format="2">
  <advance width="602"/>
  <unicode hex="2075"/>
  <outline>
    <contour>
      <point x="123.0" y="800.0" type="qcurve" smooth="yes"/>
      <point x="108.0" y="822.0"/>
      <point x="123.0" y="835.0" type="qcurve" smooth="yes"/>
      <point x="171.0" y="876.0" type="line" smooth="yes"/>
      <point x="191.0" y="893.0"/>
      <point x="206.0" y="873.0" type="qcurve" smooth="yes"/>
      <point x="224.0" y="849.0"/>
      <point x="300.0" y="796.0"/>
      <point x="347.0" y="796.0" type="qcurve" smooth="yes"/>
      <point x="442.0" y="796.0"/>
      <point x="522.0" y="910.0"/>
      <point x="522.0" y="993.0" type="qcurve" smooth="yes"/>
      <point x="522.0" y="1042.0"/>
      <point x="478.0" y="1084.0"/>
      <point x="436.0" y="1084.0" type="qcurve" smooth="yes"/>
      <point x="408.0" y="1084.0"/>
      <point x="345.0" y="1068.0"/>
      <point x="317.0" y="1044.0" type="qcurve" smooth="yes"/>
      <point x="297.0" y="1027.0"/>
      <point x="270.0" y="1027.0" type="qcurve" smooth="yes"/>
      <point x="216.0" y="1027.0" type="line" smooth="yes"/>
      <point x="193.0" y="1027.0"/>
      <point x="198.0" y="1050.0" type="qcurve" smooth="yes"/>
      <point x="285.0" y="1427.0" type="line" smooth="yes"/>
      <point x="291.0" y="1451.0"/>
      <point x="314.0" y="1451.0" type="qcurve" smooth="yes"/>
      <point x="709.0" y="1451.0" type="line" smooth="yes"/>
      <point x="731.0" y="1451.0"/>
      <point x="726.0" y="1427.0" type="qcurve" smooth="yes"/>
      <point x="713.0" y="1367.0" type="line" smooth="yes"/>
      <point x="708.0" y="1344.0"/>
      <point x="684.0" y="1344.0" type="qcurve" smooth="yes"/>
      <point x="386.0" y="1344.0" type="line"/>
      <point x="347.0" y="1172.0" type="line" smooth="yes"/>
      <point x="343.0" y="1156.0"/>
      <point x="335.0" y="1141.0" type="qcurve"/>
      <point x="340.0" y="1141.0" type="line"/>
      <point x="375.0" y="1165.0"/>
      <point x="442.0" y="1184.0"/>
      <point x="474.0" y="1184.0" type="qcurve" smooth="yes"/>
      <point x="566.0" y="1184.0"/>
      <point x="644.0" y="1070.0"/>
      <point x="644.0" y="983.0" type="qcurve" smooth="yes"/>
      <point x="644.0" y="850.0"/>
      <point x="480.0" y="696.0"/>
      <point x="342.0" y="696.0" type="qcurve" smooth="yes"/>
      <point x="264.0" y="696.0"/>
      <point x="149.0" y="763.0"/>
    </contour>
  </outline>
</glyph>
<glyph name="uni20B8" format="2">
  <advance width="1110"/>
  <unicode hex="20B8"/>
  <outline>
    <contour>
      <point x="207.0" y="1062.0" type="line" smooth="yes"/>
      <point x="162.0" y="1062.0"/>
      <point x="170.0" y="1097.0" type="qcurve" smooth="yes"/>
      <point x="184.0" y="1157.0" type="line" smooth="yes"/>
      <point x="192.0" y="1192.0"/>
      <point x="236.0" y="1192.0" type="qcurve" smooth="yes"/>
      <point x="1184.0" y="1192.0" type="line" smooth="yes"/>
      <point x="1228.0" y="1192.0"/>
      <point x="1220.0" y="1157.0" type="qcurve" smooth="yes"/>
      <point x="1206.0" y="1097.0" type="line" smooth="yes"/>
      <point x="1198.0" y="1062.0"/>
      <point x="1153.0" y="1062.0" type="qcurve" smooth="yes"/>
      <point x="768.0" y="1062.0" type="line"/>
      <point x="533.0" y="45.0" type="line" smooth="yes"/>
      <point x="523.0" y="0.0"/>
      <point x="478.0" y="0.0" type="qcurve" smooth="yes"/>
      <point x="392.0" y="0.0" type="line" smooth="yes"/>
      <point x="347.0" y="0.0"/>
      <point x="357.0" y="45.0" type="qcurve" smooth="yes"/>
      <point x="592.0" y="1062.0" type="line"/>
    </contour>
    <contour>
      <point x="260.0" y="1292.0" type="line" smooth="yes"/>
      <point x="215.0" y="1292.0"/>
      <point x="223.0" y="1327.0" type="qcurve" smooth="yes"/>
      <point x="237.0" y="1387.0" type="line" smooth="yes"/>
      <point x="245.0" y="1422.0"/>
      <point x="289.0" y="1422.0" type="qcurve" smooth="yes"/>
      <point x="1237.0" y="1422.0" type="line" smooth="yes"/>
      <point x="1281.0" y="1422.0"/>
      <point x="1273.0" y="1387.0" type="qcurve" smooth="yes"/>
      <point x="1259.0" y="1327.0" type="line" smooth="yes"/>
      <point x="1251.0" y="1292.0"/>
      <point x="1206.0" y="1292.0" type="qcurve" smooth="yes"/>
    </contour>
  </outline>
</glyph>
<glyph name="uni20BD" format="2">
  <advance width="1110"/>
  <unicode hex="20BD"/>
  <outline>
    <contour>
      <point x="93.0" y="364.0" type="line" smooth="yes"/>
      <point x="48.0" y="364.0"/>
      <point x="59.0" y="409.0" type="qcurve" smooth="yes"/>
      <point x="77.0" y="483.0" type="line" smooth="yes"/>
      <point x="88.0" y="528.0"/>
      <point x="132.0" y="528.0" type="qcurve" smooth="yes"/>
      <point x="187.0" y="528.0" type="line"/>
      <point x="215.0" y="648.0" type="line"/>
      <point x="159.0" y="648.0" type="line" smooth="yes"/>
      <point x="115.0" y="648.0"/>
      <point x="125.0" y="693.0" type="qcurve" smooth="yes"/>
      <point x="142.0" y="767.0" type="line" smooth="yes"/>
      <point x="152.0" y="812.0"/>
      <point x="197.0" y="812.0" type="qcurve" smooth="yes"/>
      <point x="252.0" y="812.0" type="line"/>
      <point x="383.0" y="1377.0" type="line" smooth="yes"/>
      <point x="393.0" y="1422.0"/>
      <point x="438.0" y="1422.0" type="qcurve" smooth="yes"/>
      <point x="751.0" y="1422.0" type="line" smooth="yes"/>
      <point x="950.0" y="1422.0"/>
      <point x="1140.0" y="1233.0"/>
      <point x="1140.0" y="1080.0" type="qcurve" smooth="yes"/>
      <point x="1140.0" y="885.0"/>
      <point x="864.0" y="648.0"/>
      <point x="634.0" y="648.0" type="qcurve" smooth="yes"/>
      <point x="391.0" y="648.0" type="line"/>
      <point x="363.0" y="528.0" type="line"/>
      <point x="725.0" y="528.0" type="line" smooth="yes"/>
      <point x="771.0" y="528.0"/>
      <point x="760.0" y="483.0" type="qcurve" smooth="yes"/>
      <point x="742.0" y="409.0" type="line" smooth="yes"/>
      <point x="731.0" y="364.0"/>
      <point x="688.0" y="364.0" type="qcurve" smooth="yes"/>
      <point x="325.0" y="364.0" type="line"/>
      <point x="251.0" y="45.0" type="line" smooth="yes"/>
      <point x="241.0" y="0.0"/>
      <point x="196.0" y="0.0" type="qcurve" smooth="yes"/>
      <point x="110.0" y="0.0" type="line" smooth="yes"/>
      <point x="65.0" y="0.0"/>
      <point x="75.0" y="45.0" type="qcurve" smooth="yes"/>
      <point x="149.0" y="364.0" type="line"/>
    </contour>
    <contour>
      <point x="428.0" y="812.0" type="line"/>
      <point x="647.0" y="812.0" type="line" smooth="yes"/>
      <point x="801.0" y="812.0"/>
      <point x="952.0" y="960.0"/>
      <point x="952.0" y="1061.0" type="qcurve" smooth="yes"/>
      <point x="952.0" y="1150.0"/>
      <point x="849.0" y="1258.0"/>
      <point x="719.0" y="1258.0" type="qcurve" smooth="yes"/>
      <point x="531.0" y="1258.0" type="line"/>
    </contour>
  </outline>
</glyph>
<glyph name="afii61289" format="2">
  <advance width="929"/>
  <unicode hex="2113"/>
  <outline>
    <contour>
      <point x="14.0" y="318.0" type="qcurve" smooth="yes"/>
      <point x="35.0" y="407.0" type="line" smooth="yes"/>
      <point x="43.0" y="442.0"/>
      <point x="73.0" y="458.0" type="qcurve" smooth="yes"/>
      <point x="117.0" y="482.0"/>
      <point x="193.0" y="541.0" type="qcurve"/>
      <point x="292.0" y="969.0" type="line" smooth="yes"/>
      <point x="356.0" y="1244.0"/>
      <point x="568.0" y="1487.0"/>
      <point x="728.0" y="1487.0" type="qcurve" smooth="yes"/>
      <point x="856.0" y="1487.0"/>
      <point x="976.0" y="1370.0"/>
      <point x="976.0" y="1254.0" type="qcurve" smooth="yes"/>
      <point x="976.0" y="1074.0"/>
      <point x="644.0" y="700.0"/>
      <point x="356.0" y="493.0" type="qcurve"/>
      <point x="324.0" y="351.0" type="line" smooth="yes"/>
      <point x="293.0" y="212.0"/>
      <point x="354.0" y="118.0"/>
      <point x="419.0" y="118.0" type="qcurve" smooth="yes"/>
      <point x="497.0" y="118.0"/>
      <point x="640.0" y="211.0"/>
      <point x="693.0" y="292.0" type="qcurve" smooth="yes"/>
      <point x="715.0" y="326.0"/>
      <point x="742.0" y="308.0" type="qcurve" smooth="yes"/>
      <point x="805.0" y="266.0" type="line" smooth="yes"/>
      <point x="826.0" y="252.0"/>
      <point x="803.0" y="218.0" type="qcurve" smooth="yes"/>
      <point x="731.0" y="109.0"/>
      <point x="537.0" y="-17.0"/>
      <point x="401.0" y="-17.0" type="qcurve" smooth="yes"/>
      <point x="240.0" y="-17.0"/>
      <point x="110.0" y="183.0"/>
      <point x="140.0" y="313.0" type="qcurve"/>
      <point x="142.0" y="319.0" type="line"/>
      <point x="149.0" y="349.0"/>
      <point x="157.0" y="379.0" type="qcurve"/>
      <point x="155.0" y="379.0" type="line"/>
      <point x="100.0" y="331.0"/>
      <point x="56.0" y="305.0" type="qcurve" smooth="yes"/>
      <point x="4.0" y="275.0"/>
    </contour>
    <contour>
      <point x="394.0" y="672.0" type="qcurve"/>
      <point x="396.0" y="672.0" type="line"/>
      <point x="564.0" y="793.0"/>
      <point x="828.0" y="1108.0"/>
      <point x="828.0" y="1266.0" type="qcurve" smooth="yes"/>
      <point x="828.0" y="1300.0"/>
      <point x="776.0" y="1357.0"/>
      <point x="721.0" y="1357.0" type="qcurve" smooth="yes"/>
      <point x="631.0" y="1357.0"/>
      <point x="514.0" y="1175.0"/>
      <point x="470.0" y="986.0" type="qcurve" smooth="yes"/>
      <point x="410.0" y="732.0" type="line" smooth="yes"/>
      <point x="403.0" y="701.0"/>
    </contour>
  </outline>
</glyph>
<glyph name="uni2116" format="2">
  <advance width="2005"/>
  <unicode hex="2116"/>
  <outline>
    <contour>
      <point x="100.0" y="0.0" type="line" smooth="yes"/>
      <point x="50.0" y="0.0"/>
      <point x="63.0" y="55.0" type="qcurve" smooth="yes"/>
      <point x="368.0" y="1379.0" type="line" smooth="yes"/>
      <point x="381.0" y="1434.0"/>
      <point x="431.0" y="1434.0" type="qcurve" smooth="yes"/>
      <point x="541.0" y="1434.0" type="line" smooth="yes"/>
      <point x="614.0" y="1434.0"/>
      <point x="630.0" y="1384.0" type="qcurve" smooth="yes"/>
      <point x="954.0" y="347.0" type="line"/>
      <point x="958.0" y="347.0" type="line"/>
      <point x="966.0" y="388.0"/>
      <point x="975.0" y="427.0" type="qcurve" smooth="yes"/>
      <point x="1194.0" y="1379.0" type="line" smooth="yes"/>
      <point x="1207.0" y="1434.0"/>
      <point x="1257.0" y="1434.0" type="qcurve" smooth="yes"/>
      <point x="1349.0" y="1434.0" type="line" smooth="yes"/>
      <point x="1399.0" y="1434.0"/>
      <point x="1386.0" y="1379.0" type="qcurve" smooth="yes"/>
      <point x="1081.0" y="55.0" type="line" smooth="yes"/>
      <point x="1068.0" y="0.0"/>
      <point x="1018.0" y="0.0" type="qcurve" smooth="yes"/>
      <point x="942.0" y="0.0" type="line" smooth="yes"/>
      <point x="870.0" y="0.0"/>
      <point x="854.0" y="50.0" type="qcurve" smooth="yes"/>
      <point x="510.0" y="1151.0" type="line"/>
      <point x="506.0" y="1151.0" type="line"/>
      <point x="498.0" y="1111.0"/>
      <point x="489.0" y="1071.0" type="qcurve" smooth="yes"/>
      <point x="255.0" y="55.0" type="line" smooth="yes"/>
      <point x="242.0" y="0.0"/>
      <point x="192.0" y="0.0" type="qcurve" smooth="yes"/>
    </contour>
    <contour>
      <point x="1329.0" y="533.0" type="qcurve" smooth="yes"/>
      <point x="1329.0" y="718.0"/>
      <point x="1522.0" y="939.0"/>
      <point x="1682.0" y="939.0" type="qcurve" smooth="yes"/>
      <point x="1792.0" y="939.0"/>
      <point x="1935.0" y="808.0"/>
      <point x="1935.0" y="653.0" type="qcurve" smooth="yes"/>
      <point x="1935.0" y="468.0"/>
      <point x="1742.0" y="247.0"/>
      <point x="1582.0" y="247.0" type="qcurve" smooth="yes"/>
      <point x="1472.0" y="247.0"/>
      <point x="1329.0" y="378.0"/>
    </contour>
    <contour>
      <point x="1473.0" y="523.0" type="qcurve" smooth="yes"/>
      <point x="1473.0" y="428.0"/>
      <point x="1540.0" y="347.0"/>
      <point x="1592.0" y="347.0" type="qcurve" smooth="yes"/>
      <point x="1688.0" y="347.0"/>
      <point x="1791.0" y="520.0"/>
      <point x="1791.0" y="663.0" type="qcurve" smooth="yes"/>
      <point x="1791.0" y="758.0"/>
      <point x="1724.0" y="839.0"/>
      <point x="1672.0" y="839.0" type="qcurve" smooth="yes"/>
      <point x="1576.0" y="839.0"/>
      <point x="1473.0" y="666.0"/>
    </contour>
    <contour>
      <point x="1279.0" y="0.0" type="line" smooth="yes"/>
      <point x="1234.0" y="0.0"/>
      <point x="1242.0" y="35.0" type="qcurve" smooth="yes"/>
      <point x="1256.0" y="95.0" type="line" smooth="yes"/>
      <point x="1264.0" y="130.0"/>
      <point x="1309.0" y="130.0" type="qcurve" smooth="yes"/>
      <point x="1743.0" y="130.0" type="line" smooth="yes"/>
      <point x="1788.0" y="130.0"/>
      <point x="1780.0" y="95.0" type="qcurve" smooth="yes"/>
      <point x="1766.0" y="35.0" type="line" smooth="yes"/>
      <point x="1758.0" y="0.0"/>
      <point x="1713.0" y="0.0" type="qcurve" smooth="yes"/>
    </contour>
  </outline>
</glyph>
<glyph name="minus" format="2">
  <advance width="1280"/>
  <unicode hex="2212"/>
  <outline>
    <contour>
      <point x="172.0" y="665.0" type="line" smooth="yes"/>
      <point x="127.0" y="665.0"/>
      <point x="127.0" y="700.0" type="qcurve" smooth="yes"/>
      <point x="127.0" y="750.0" type="line" smooth="yes"/>
      <point x="127.0" y="785.0"/>
      <point x="172.0" y="785.0" type="qcurve" smooth="yes"/>
      <point x="1202.0" y="785.0" type="line" smooth="yes"/>
      <point x="1247.0" y="785.0"/>
      <point x="1247.0" y="750.0" type="qcurve" smooth="yes"/>
      <point x="1247.0" y="700.0" type="line" smooth="yes"/>
      <point x="1247.0" y="665.0"/>
      <point x="1202.0" y="665.0" type="qcurve" smooth="yes"/>
    </contour>
  </outline>
</glyph>
<glyph name="infinity" format="2">
  <advance width="2048"/>
  <unicode hex="221E"/>
  <outline>
    <contour>
      <point x="1151.0" y="725.0" type="qcurve"/>
      <point x="1231.0" y="561.0"/>
      <point x="1417.0" y="399.0"/>
      <point x="1551.0" y="399.0" type="qcurve" smooth="yes"/>
      <point x="1663.0" y="399.0"/>
      <point x="1821.0" y="572.0"/>
      <point x="1821.0" y="725.0" type="qcurve" smooth="yes"/>
      <point x="1821.0" y="878.0"/>
      <point x="1663.0" y="1051.0"/>
      <point x="1551.0" y="1051.0" type="qcurve" smooth="yes"/>
      <point x="1417.0" y="1051.0"/>
      <point x="1231.0" y="889.0"/>
    </contour>
    <contour>
      <point x="177.0" y="725.0" type="qcurve" smooth="yes"/>
      <point x="177.0" y="835.0"/>
      <point x="247.0" y="1009.0"/>
      <point x="367.0" y="1116.0"/>
      <point x="520.0" y="1171.0"/>
      <point x="607.0" y="1171.0" type="qcurve" smooth="yes"/>
      <point x="916.0" y="1171.0"/>
      <point x="1070.0" y="843.0" type="qcurve"/>
      <point x="1072.0" y="843.0" type="line"/>
      <point x="1226.0" y="1171.0"/>
      <point x="1535.0" y="1171.0" type="qcurve" smooth="yes"/>
      <point x="1622.0" y="1171.0"/>
      <point x="1775.0" y="1116.0"/>
      <point x="1895.0" y="1009.0"/>
      <point x="1965.0" y="835.0"/>
      <point x="1965.0" y="725.0" type="qcurve" smooth="yes"/>
      <point x="1965.0" y="615.0"/>
      <point x="1895.0" y="441.0"/>
      <point x="1775.0" y="334.0"/>
      <point x="1622.0" y="279.0"/>
      <point x="1535.0" y="279.0" type="qcurve" smooth="yes"/>
      <point x="1226.0" y="279.0"/>
      <point x="1072.0" y="607.0" type="qcurve"/>
      <point x="1070.0" y="607.0" type="line"/>
      <point x="916.0" y="279.0"/>
      <point x="607.0" y="279.0" type="qcurve" smooth="yes"/>
      <point x="520.0" y="279.0"/>
      <point x="367.0" y="334.0"/>
      <point x="247.0" y="441.0"/>
      <point x="177.0" y="615.0"/>
    </contour>
    <contour>
      <point x="321.0" y="725.0" type="qcurve" smooth="yes"/>
      <point x="321.0" y="572.0"/>
      <point x="479.0" y="399.0"/>
      <point x="591.0" y="399.0" type="qcurve" smooth="yes"/>
      <point x="725.0" y="399.0"/>
      <point x="911.0" y="561.0"/>
      <point x="991.0" y="725.0" type="qcurve"/>
      <point x="911.0" y="889.0"/>
      <point x="725.0" y="1051.0"/>
      <point x="591.0" y="1051.0" type="qcurve" smooth="yes"/>
      <point x="479.0" y="1051.0"/>
      <point x="321.0" y="878.0"/>
    </contour>
  </outline>
</glyph>
<glyph name="tilde.cap" format="2">
  <advance width="820"/>
  <unicode hex="EFF5"/>
  <outline>
    <contour>
      <point x="313.0" y="1575.0" type="line" smooth="yes"/>
      <point x="290.0" y="1588.0"/>
      <point x="304.0" y="1620.0" type="qcurve" smooth="yes"/>
      <point x="332.0" y="1685.0"/>
      <point x="447.0" y="1771.0"/>
      <point x="536.0" y="1771.0" type="qcurve" smooth="yes"/>
      <point x="611.0" y="1771.0"/>
      <point x="779.0" y="1673.0"/>
      <point x="823.0" y="1673.0" type="qcurve" smooth="yes"/>
      <point x="871.0" y="1673.0"/>
      <point x="937.0" y="1727.0"/>
      <point x="953.0" y="1752.0" type="qcurve" smooth="yes"/>
      <point x="972.0" y="1781.0"/>
      <point x="991.0" y="1770.0" type="qcurve" smooth="yes"/>
      <point x="1033.0" y="1745.0" type="line" smooth="yes"/>
      <point x="1056.0" y="1732.0"/>
      <point x="1042.0" y="1700.0" type="qcurve" smooth="yes"/>
      <point x="1014.0" y="1635.0"/>
      <point x="899.0" y="1549.0"/>
      <point x="810.0" y="1549.0" type="qcurve" smooth="yes"/>
      <point x="735.0" y="1549.0"/>
      <point x="567.0" y="1647.0"/>
      <point x="523.0" y="1647.0" type="qcurve" smooth="yes"/>
      <point x="475.0" y="1647.0"/>
      <point x="409.0" y="1593.0"/>
      <point x="393.0" y="1568.0" type="qcurve" smooth="yes"/>
      <point x="374.0" y="1539.0"/>
      <point x="355.0" y="1550.0" type="qcurve" smooth="yes"/>
    </contour>
  </outline>
</glyph>
<glyph name="space_uni030F" format="2">
  <advance width="614"/>
  <unicode hex="F1A5"/>
  <outline>
    <contour>
      <point x="181.0" y="1383.0" type="line" smooth="yes"/>
      <point x="147.0" y="1435.0"/>
      <point x="203.0" y="1435.0" type="qcurve" smooth="yes"/>
      <point x="290.0" y="1435.0" type="line" smooth="yes"/>
      <point x="351.0" y="1435.0"/>
      <point x="365.0" y="1398.0" type="qcurve" smooth="yes"/>
      <point x="437.0" y="1203.0" type="line" smooth="yes"/>
      <point x="457.0" y="1150.0"/>
      <point x="418.0" y="1150.0" type="qcurve" smooth="yes"/>
      <point x="386.0" y="1150.0" type="line" smooth="yes"/>
      <point x="332.0" y="1150.0"/>
      <point x="313.0" y="1179.0" type="qcurve" smooth="yes"/>
    </contour>
    <contour>
      <point x="481.0" y="1383.0" type="line" smooth="yes"/>
      <point x="447.0" y="1435.0"/>
      <point x="503.0" y="1435.0" type="qcurve" smooth="yes"/>
      <point x="590.0" y="1435.0" type="line" smooth="yes"/>
      <point x="651.0" y="1435.0"/>
      <point x="665.0" y="1398.0" type="qcurve" smooth="yes"/>
      <point x="737.0" y="1203.0" type="line" smooth="yes"/>
      <point x="757.0" y="1150.0"/>
      <point x="718.0" y="1150.0" type="qcurve" smooth="yes"/>
      <point x="686.0" y="1150.0" type="line" smooth="yes"/>
      <point x="632.0" y="1150.0"/>
      <point x="613.0" y="1179.0" type="qcurve" smooth="yes"/>
    </contour>
  </outline>
</glyph>
<glyph name="five.oldstyle.tab" format="2">
  <advance width="1110"/>
  <unicode hex="F648"/>
  <outline>
    <contour>
      <point x="5.0" y="-128.0" type="qcurve" smooth="yes"/>
      <point x="-35.0" y="-80.0"/>
      <point x="-6.0" y="-50.0" type="qcurve" smooth="yes"/>
      <point x="51.0" y="9.0" type="line" smooth="yes"/>
      <point x="85.0" y="44.0"/>
      <point x="122.0" y="-6.0" type="qcurve" smooth="yes"/>
      <point x="162.0" y="-60.0"/>
      <point x="297.0" y="-142.0"/>
      <point x="391.0" y="-142.0" type="qcurve" smooth="yes"/>
      <point x="543.0" y="-142.0"/>
      <point x="732.0" y="54.0"/>
      <point x="732.0" y="216.0" type="qcurve" smooth="yes"/>
      <point x="732.0" y="327.0"/>
      <point x="639.0" y="436.0"/>
      <point x="555.0" y="436.0" type="qcurve" smooth="yes"/>
      <point x="486.0" y="436.0"/>
      <point x="357.0" y="405.0"/>
      <point x="290.0" y="365.0" type="qcurve" smooth="yes"/>
      <point x="235.0" y="332.0"/>
      <point x="203.0" y="332.0" type="qcurve" smooth="yes"/>
      <point x="158.0" y="332.0" type="line" smooth="yes"/>
      <point x="113.0" y="332.0"/>
      <point x="123.0" y="377.0" type="qcurve" smooth="yes"/>
      <point x="273.0" y="1027.0" type="line" smooth="yes"/>
      <point x="283.0" y="1072.0"/>
      <point x="328.0" y="1072.0" type="qcurve" smooth="yes"/>
      <point x="1016.0" y="1072.0" type="line" smooth="yes"/>
      <point x="1062.0" y="1072.0"/>
      <point x="1051.0" y="1027.0" type="qcurve" smooth="yes"/>
      <point x="1034.0" y="955.0" type="line" smooth="yes"/>
      <point x="1023.0" y="910.0"/>
      <point x="979.0" y="910.0" type="qcurve" smooth="yes"/>
      <point x="422.0" y="910.0" type="line"/>
      <point x="344.0" y="570.0" type="line" smooth="yes"/>
      <point x="336.0" y="537.0"/>
      <point x="328.0" y="510.0" type="qcurve"/>
      <point x="332.0" y="510.0" type="line"/>
      <point x="399.0" y="557.0"/>
      <point x="541.0" y="584.0"/>
      <point x="613.0" y="584.0" type="qcurve" smooth="yes"/>
      <point x="770.0" y="584.0"/>
      <point x="928.0" y="369.0"/>
      <point x="928.0" y="226.0" type="qcurve" smooth="yes"/>
      <point x="928.0" y="0.0"/>
      <point x="630.0" y="-290.0"/>
      <point x="381.0" y="-290.0" type="qcurve" smooth="yes"/>
      <point x="225.0" y="-290.0"/>
      <point x="48.0" y="-180.0"/>
    </contour>
  </outline>
</glyph>
<glyph name="six.oldstyle.tab" format="2">
  <advance width="1110"/>
  <unicode hex="F649"/>
  <outline>
    <contour>
      <point x="113.0" y="432.0" type="qcurve" smooth="yes"/>
      <point x="113.0" y="831.0"/>
      <point x="483.0" y="1362.0"/>
      <point x="790.0" y="1362.0" type="qcurve" smooth="yes"/>
      <point x="892.0" y="1362.0"/>
      <point x="1044.0" y="1299.0"/>
      <point x="1096.0" y="1254.0" type="qcurve" smooth="yes"/>
      <point x="1137.0" y="1218.0"/>
      <point x="1110.0" y="1188.0" type="qcurve" smooth="yes"/>
      <point x="1052.0" y="1125.0" type="line" smooth="yes"/>
      <point x="1025.0" y="1095.0"/>
      <point x="980.0" y="1138.0" type="qcurve" smooth="yes"/>
      <point x="952.0" y="1164.0"/>
      <point x="846.0" y="1214.0"/>
      <point x="767.0" y="1214.0" type="qcurve" smooth="yes"/>
      <point x="594.0" y="1214.0"/>
      <point x="354.0" y="927.0"/>
      <point x="302.0" y="702.0" type="qcurve"/>
      <point x="304.0" y="702.0" type="line"/>
      <point x="366.0" y="780.0"/>
      <point x="555.0" y="858.0"/>
      <point x="643.0" y="858.0" type="qcurve" smooth="yes"/>
      <point x="819.0" y="858.0"/>
      <point x="1012.0" y="675.0"/>
      <point x="1012.0" y="479.0" type="qcurve" smooth="yes"/>
      <point x="1012.0" y="291.0"/>
      <point x="729.0" y="-20.0"/>
      <point x="501.0" y="-20.0" type="qcurve" smooth="yes"/>
      <point x="297.0" y="-20.0"/>
      <point x="113.0" y="222.0"/>
    </contour>
    <contour>
      <point x="302.0" y="352.0" type="qcurve" smooth="yes"/>
      <point x="302.0" y="231.0"/>
      <point x="414.0" y="128.0"/>
      <point x="508.0" y="128.0" type="qcurve" smooth="yes"/>
      <point x="633.0" y="128.0"/>
      <point x="816.0" y="345.0"/>
      <point x="816.0" y="493.0" type="qcurve" smooth="yes"/>
      <point x="816.0" y="603.0"/>
      <point x="708.0" y="706.0"/>
      <point x="611.0" y="706.0" type="qcurve" smooth="yes"/>
      <point x="489.0" y="706.0"/>
      <point x="302.0" y="474.0"/>
    </contour>
  </outline>
</glyph>
<glyph name="caron.cap" format="2">
  <advance width="820"/>
  <unicode hex="F6CA"/>
  <outline>
    <contour>
      <point x="328.0" y="1650.0" type="line" smooth="yes"/>
      <point x="293.0" y="1669.0"/>
      <point x="314.0" y="1701.0" type="qcurve" smooth="yes"/>
      <point x="342.0" y="1742.0" type="line" smooth="yes"/>
      <point x="363.0" y="1774.0"/>
      <point x="401.0" y="1755.0" type="qcurve" smooth="yes"/>
      <point x="658.0" y="1623.0" type="line"/>
      <point x="660.0" y="1623.0" type="line"/>
      <point x="979.0" y="1755.0" type="line" smooth="yes"/>
      <point x="1024.0" y="1774.0"/>
      <point x="1032.0" y="1742.0" type="qcurve" smooth="yes"/>
      <point x="1046.0" y="1683.0" type="line" smooth="yes"/>
      <point x="1054.0" y="1651.0"/>
      <point x="1008.0" y="1632.0" type="qcurve" smooth="yes"/>
      <point x="760.0" y="1528.0" type="line" smooth="yes"/>
      <point x="717.0" y="1510.0"/>
      <point x="692.0" y="1510.0" type="qcurve" smooth="yes"/>
      <point x="622.0" y="1510.0" type="line" smooth="yes"/>
      <point x="597.0" y="1510.0"/>
      <point x="562.0" y="1528.0" type="qcurve" smooth="yes"/>
    </contour>
  </outline>
</glyph>
<glyph name="macron.cap" format="2">
  <advance width="820"/>
  <unicode hex="F6D0"/>
  <outline>
    <contour>
      <point x="330.0" y="1558.0" type="line" smooth="yes"/>
      <point x="285.0" y="1558.0"/>
      <point x="294.0" y="1598.0" type="qcurve" smooth="yes"/>
      <point x="305.0" y="1648.0" type="line" smooth="yes"/>
      <point x="315.0" y="1688.0"/>
      <point x="360.0" y="1688.0" type="qcurve" smooth="yes"/>
      <point x="1000.0" y="1688.0" type="line" smooth="yes"/>
      <point x="1045.0" y="1688.0"/>
      <point x="1035.0" y="1648.0" type="qcurve" smooth="yes"/>
      <point x="1024.0" y="1598.0" type="line" smooth="yes"/>
      <point x="1015.0" y="1558.0"/>
      <point x="970.0" y="1558.0" type="qcurve" smooth="yes"/>
    </contour>
  </outline>
</glyph>
<glyph name="cyrBreve" format="2">
  <advance width="1452"/>
  <unicode hex="F6D1"/>
  <outline>
    <contour>
      <point x="638.0" y="1819.0" type="line" smooth="yes"/>
      <point x="643.0" y="1867.0"/>
      <point x="697.0" y="1867.0" type="qcurve" smooth="yes"/>
      <point x="780.0" y="1867.0" type="line" smooth="yes"/>
      <point x="822.0" y="1867.0"/>
      <point x="818.0" y="1819.0" type="qcurve" smooth="yes"/>
      <point x="815.0" y="1787.0" type="line" smooth="yes"/>
      <point x="810.0" y="1732.0"/>
      <point x="894.0" y="1684.0"/>
      <point x="975.0" y="1684.0" type="qcurve" smooth="yes"/>
      <point x="1106.0" y="1684.0"/>
      <point x="1270.0" y="1801.0"/>
      <point x="1309.0" y="1855.0" type="qcurve" smooth="yes"/>
      <point x="1334.0" y="1890.0"/>
      <point x="1362.0" y="1871.0" type="qcurve" smooth="yes"/>
      <point x="1401.0" y="1844.0" type="line" smooth="yes"/>
      <point x="1426.0" y="1827.0"/>
      <point x="1399.0" y="1789.0" type="qcurve" smooth="yes"/>
      <point x="1304.0" y="1656.0"/>
      <point x="1112.0" y="1548.0"/>
      <point x="943.0" y="1548.0" type="qcurve" smooth="yes"/>
      <point x="788.0" y="1548.0"/>
      <point x="623.0" y="1670.0"/>
      <point x="632.0" y="1761.0" type="qcurve" smooth="yes"/>
    </contour>
  </outline>
</glyph>
<glyph name="zero.oldstyle" format="2">
  <advance width="1086"/>
  <unicode hex="F730"/>
  <outline>
    <contour>
      <point x="88.0" y="401.0" type="qcurve" smooth="yes"/>
      <point x="88.0" y="661.0"/>
      <point x="394.0" y="1092.0"/>
      <point x="662.0" y="1092.0" type="qcurve" smooth="yes"/>
      <point x="819.0" y="1092.0"/>
      <point x="998.0" y="876.0"/>
      <point x="998.0" y="671.0" type="qcurve" smooth="yes"/>
      <point x="998.0" y="411.0"/>
      <point x="692.0" y="-20.0"/>
      <point x="423.0" y="-20.0" type="qcurve" smooth="yes"/>
      <point x="266.0" y="-20.0"/>
      <point x="88.0" y="196.0"/>
    </contour>
    <contour>
      <point x="270.0" y="371.0" type="qcurve" smooth="yes"/>
      <point x="270.0" y="262.0"/>
      <point x="348.0" y="120.0"/>
      <point x="440.0" y="120.0" type="qcurve" smooth="yes"/>
      <point x="617.0" y="120.0"/>
      <point x="816.0" y="479.0"/>
      <point x="816.0" y="701.0" type="qcurve" smooth="yes"/>
      <point x="816.0" y="810.0"/>
      <point x="738.0" y="952.0"/>
      <point x="646.0" y="952.0" type="qcurve" smooth="yes"/>
      <point x="469.0" y="952.0"/>
      <point x="270.0" y="593.0"/>
    </contour>
  </outline>
</glyph>
<glyph name="two.oldstyle" format="2">
  <advance width="1036"/>
  <unicode hex="F732"/>
  <outline>
    <contour>
      <point x="29.0" y="0.0" type="line" smooth="yes"/>
      <point x="-26.0" y="0.0"/>
      <point x="-16.0" y="45.0" type="qcurve" smooth="yes"/>
      <point x="-5.0" y="93.0" type="line" smooth="yes"/>
      <point x="5.0" y="139.0"/>
      <point x="45.0" y="165.0" type="qcurve" smooth="yes"/>
      <point x="380.0" y="388.0" type="line" smooth="yes"/>
      <point x="477.0" y="453.0"/>
      <point x="785.0" y="672.0"/>
      <point x="785.0" y="770.0" type="qcurve" smooth="yes"/>
      <point x="785.0" y="866.0"/>
      <point x="697.0" y="944.0"/>
      <point x="602.0" y="944.0" type="qcurve" smooth="yes"/>
      <point x="512.0" y="944.0"/>
      <point x="372.0" y="840.0"/>
      <point x="312.0" y="759.0" type="qcurve" smooth="yes"/>
      <point x="275.0" y="709.0"/>
      <point x="241.0" y="732.0" type="qcurve" smooth="yes"/>
      <point x="185.0" y="771.0" type="line" smooth="yes"/>
      <point x="152.0" y="794.0"/>
      <point x="186.0" y="849.0" type="qcurve" smooth="yes"/>
      <point x="246.0" y="945.0"/>
      <point x="471.0" y="1092.0"/>
      <point x="618.0" y="1092.0" type="qcurve" smooth="yes"/>
      <point x="792.0" y="1092.0"/>
      <point x="980.0" y="944.0"/>
      <point x="980.0" y="781.0" type="qcurve" smooth="yes"/>
      <point x="980.0" y="627.0"/>
      <point x="640.0" y="382.0"/>
      <point x="475.0" y="268.0" type="qcurve" smooth="yes"/>
      <point x="325.0" y="164.0" type="line"/>
      <point x="325.0" y="160.0" type="line"/>
      <point x="357.0" y="162.0"/>
      <point x="391.0" y="162.0" type="qcurve" smooth="yes"/>
      <point x="803.0" y="162.0" type="line" smooth="yes"/>
      <point x="859.0" y="162.0"/>
      <point x="848.0" y="117.0" type="qcurve" smooth="yes"/>
      <point x="831.0" y="45.0" type="line" smooth="yes"/>
      <point x="820.0" y="0.0"/>
      <point x="766.0" y="0.0" type="qcurve" smooth="yes"/>
    </contour>
  </outline>
</glyph>
<glyph name="five.oldstyle" format="2">
  <advance width="1070"/>
  <unicode hex="F735"/>
  <outline>
    <contour>
      <point x="5.0" y="-128.0" type="qcurve" smooth="yes"/>
      <point x="-35.0" y="-80.0"/>
      <point x="-6.0" y="-50.0" type="qcurve" smooth="yes"/>
      <point x="51.0" y="9.0" type="line" smooth="yes"/>
      <point x="85.0" y="44.0"/>
      <point x="122.0" y="-6.0" type="qcurve" smooth="yes"/>
      <point x="162.0" y="-60.0"/>
      <point x="297.0" y="-142.0"/>
      <point x="385.0" y="-142.0" type="qcurve" smooth="yes"/>
      <point x="531.0" y="-142.0"/>
      <point x="696.0" y="54.0"/>
      <point x="696.0" y="216.0" type="qcurve" smooth="yes"/>
      <point x="696.0" y="330.0"/>
      <point x="612.0" y="436.0"/>
      <point x="529.0" y="436.0" type="qcurve" smooth="yes"/>
      <point x="466.0" y="436.0"/>
      <point x="355.0" y="405.0"/>
      <point x="290.0" y="365.0" type="qcurve" smooth="yes"/>
      <point x="235.0" y="332.0"/>
      <point x="203.0" y="332.0" type="qcurve" smooth="yes"/>
      <point x="158.0" y="332.0" type="line" smooth="yes"/>
      <point x="113.0" y="332.0"/>
      <point x="123.0" y="377.0" type="qcurve" smooth="yes"/>
      <point x="273.0" y="1027.0" type="line" smooth="yes"/>
      <point x="283.0" y="1072.0"/>
      <point x="328.0" y="1072.0" type="qcurve" smooth="yes"/>
      <point x="980.0" y="1072.0" type="line" smooth="yes"/>
      <point x="1026.0" y="1072.0"/>
      <point x="1015.0" y="1027.0" type="qcurve" smooth="yes"/>
      <point x="998.0" y="955.0" type="line" smooth="yes"/>
      <point x="987.0" y="910.0"/>
      <point x="943.0" y="910.0" type="qcurve" smooth="yes"/>
      <point x="422.0" y="910.0" type="line"/>
      <point x="344.0" y="570.0" type="line" smooth="yes"/>
      <point x="338.0" y="543.0"/>
      <point x="328.0" y="510.0" type="qcurve"/>
      <point x="332.0" y="510.0" type="line"/>
      <point x="397.0" y="557.0"/>
      <point x="518.0" y="584.0"/>
      <point x="584.0" y="584.0" type="qcurve" smooth="yes"/>
      <point x="741.0" y="584.0"/>
      <point x="892.0" y="384.0"/>
      <point x="892.0" y="236.0" type="qcurve" smooth="yes"/>
      <point x="892.0" y="-15.0"/>
      <point x="609.0" y="-290.0"/>
      <point x="373.0" y="-290.0" type="qcurve" smooth="yes"/>
      <point x="249.0" y="-290.0"/>
      <point x="48.0" y="-180.0"/>
    </contour>
  </outline>
</glyph>
<glyph name="eight.oldstyle" format="2">
  <advance width="1072"/>
  <unicode hex="F738"/>
  <outline>
    <contour>
      <point x="59.0" y="330.0" type="qcurve" smooth="yes"/>
      <point x="59.0" y="480.0"/>
      <point x="260.0" y="705.0"/>
      <point x="396.0" y="732.0" type="qcurve"/>
      <point x="396.0" y="735.0" type="line"/>
      <point x="323.0" y="777.0"/>
      <point x="241.0" y="882.0"/>
      <point x="241.0" y="991.0" type="qcurve" smooth="yes"/>
      <point x="241.0" y="1125.0"/>
      <point x="480.0" y="1362.0"/>
      <point x="691.0" y="1362.0" type="qcurve" smooth="yes"/>
      <point x="859.0" y="1362.0"/>
      <point x="1059.0" y="1197.0"/>
      <point x="1059.0" y="1071.0" type="qcurve" smooth="yes"/>
      <point x="1059.0" y="942.0"/>
      <point x="901.0" y="756.0"/>
      <point x="764.0" y="726.0" type="qcurve"/>
      <point x="764.0" y="724.0" type="line"/>
      <point x="864.0" y="687.0"/>
      <point x="953.0" y="534.0"/>
      <point x="953.0" y="458.0" type="qcurve" smooth="yes"/>
      <point x="953.0" y="255.0"/>
      <point x="666.0" y="-20.0"/>
      <point x="436.0" y="-20.0" type="qcurve" smooth="yes"/>
      <point x="240.0" y="-20.0"/>
      <point x="59.0" y="186.0"/>
    </contour>
    <contour>
      <point x="255.0" y="350.0" type="qcurve" smooth="yes"/>
      <point x="255.0" y="231.0"/>
      <point x="363.0" y="128.0"/>
      <point x="449.0" y="128.0" type="qcurve" smooth="yes"/>
      <point x="573.0" y="128.0"/>
      <point x="757.0" y="297.0"/>
      <point x="757.0" y="430.0" type="qcurve" smooth="yes"/>
      <point x="757.0" y="537.0"/>
      <point x="661.0" y="646.0"/>
      <point x="577.0" y="646.0" type="qcurve" smooth="yes"/>
      <point x="445.0" y="646.0"/>
      <point x="255.0" y="471.0"/>
    </contour>
    <contour>
      <point x="429.0" y="1002.0" type="qcurve" smooth="yes"/>
      <point x="429.0" y="888.0"/>
      <point x="520.0" y="804.0"/>
      <point x="591.0" y="804.0" type="qcurve" smooth="yes"/>
      <point x="716.0" y="804.0"/>
      <point x="871.0" y="947.0"/>
      <point x="871.0" y="1042.0" type="qcurve" smooth="yes"/>
      <point x="871.0" y="1119.0"/>
      <point x="788.0" y="1214.0"/>
      <point x="678.0" y="1214.0" type="qcurve" smooth="yes"/>
      <point x="558.0" y="1214.0"/>
      <point x="429.0" y="1074.0"/>
    </contour>
  </outline>
</glyph>
<glyph name="fi" format="2">
  <advance width="1112"/>
  <unicode hex="FB01"/>
  <outline>
    <contour>
      <point x="182.0" y="918.0" type="line" smooth="yes"/>
      <point x="137.0" y="918.0"/>
      <point x="145.0" y="953.0" type="qcurve" smooth="yes"/>
      <point x="159.0" y="1015.0" type="line" smooth="yes"/>
      <point x="167.0" y="1050.0"/>
      <point x="212.0" y="1050.0" type="qcurve" smooth="yes"/>
      <point x="319.0" y="1050.0" type="line"/>
      <point x="347.0" y="1169.0" type="line" smooth="yes"/>
      <point x="392.0" y="1362.0"/>
      <point x="615.0" y="1493.0"/>
      <point x="821.0" y="1493.0" type="qcurve" smooth="yes"/>
      <point x="922.0" y="1493.0"/>
      <point x="1054.0" y="1444.0"/>
      <point x="1121.0" y="1383.0" type="qcurve" smooth="yes"/>
      <point x="1139.0" y="1367.0"/>
      <point x="1120.0" y="1347.0" type="qcurve" smooth="yes"/>
      <point x="1054.0" y="1278.0" type="line" smooth="yes"/>
      <point x="1040.0" y="1263.0"/>
      <point x="1019.0" y="1284.0" type="qcurve" smooth="yes"/>
      <point x="976.0" y="1328.0"/>
      <point x="868.0" y="1363.0"/>
      <point x="808.0" y="1363.0" type="qcurve" smooth="yes"/>
      <point x="668.0" y="1363.0"/>
      <point x="548.0" y="1277.0"/>
      <point x="516.0" y="1140.0" type="qcurve" smooth="yes"/>
      <point x="495.0" y="1050.0" type="line"/>
      <point x="1047.0" y="1050.0" type="line" smooth="yes"/>
      <point x="1092.0" y="1050.0"/>
      <point x="1082.0" y="1005.0" type="qcurve" smooth="yes"/>
      <point x="860.0" y="45.0" type="line" smooth="yes"/>
      <point x="850.0" y="0.0"/>
      <point x="805.0" y="0.0" type="qcurve" smooth="yes"/>
      <point x="719.0" y="0.0" type="line" smooth="yes"/>
      <point x="674.0" y="0.0"/>
      <point x="684.0" y="45.0" type="qcurve" smooth="yes"/>
      <point x="886.0" y="918.0" type="line"/>
      <point x="465.0" y="918.0" type="line"/>
      <point x="171.0" y="-355.0" type="line" smooth="yes"/>
      <point x="161.0" y="-400.0"/>
      <point x="116.0" y="-400.0" type="qcurve" smooth="yes"/>
      <point x="30.0" y="-400.0" type="line" smooth="yes"/>
      <point x="-15.0" y="-400.0"/>
      <point x="-5.0" y="-355.0" type="qcurve" smooth="yes"/>
      <point x="289.0" y="918.0" type="line"/>
    </contour>
  </outline>
</glyph>
<glyph name="minus.tab" format="2">
  <advance width="1157"/>
  <outline>
    <contour>
      <point x="162.0" y="665.0" type="line" smooth="yes"/>
      <point x="117.0" y="665.0"/>
      <point x="117.0" y="700.0" type="qcurve" smooth="yes"/>
      <point x="117.0" y="750.0" type="line" smooth="yes"/>
      <point x="117.0" y="785.0"/>
      <point x="162.0" y="785.0" type="qcurve" smooth="yes"/>
      <point x="1042.0" y="785.0" type="line" smooth="yes"/>
      <point x="1087.0" y="785.0"/>
      <point x="1087.0" y="750.0" type="qcurve" smooth="yes"/>
      <point x="1087.0" y="700.0" type="line" smooth="yes"/>
      <point x="1087.0" y="665.0"/>
      <point x="1042.0" y="665.0" type="qcurve" smooth="yes"/>
    </contour>
  </outline>
</glyph>
<glyph name="seven.tab" format="2">
  <advance width="1110"/>
  <outline>
    <contour>
      <point x="308.0" y="1258.0" type="line" smooth="yes"/>
      <point x="264.0" y="1258.0"/>
      <point x="274.0" y="1303.0" type="qcurve" smooth="yes"/>
      <point x="291.0" y="1377.0" type="line" smooth="yes"/>
      <point x="301.0" y="1422.0"/>
      <point x="346.0" y="1422.0" type="qcurve" smooth="yes"/>
      <point x="1180.0" y="1422.0" type="line" smooth="yes"/>
      <point x="1225.0" y="1422.0"/>
      <point x="1215.0" y="1377.0" type="qcurve" smooth="yes"/>
      <point x="1199.0" y="1308.0" type="line" smooth="yes"/>
      <point x="1191.0" y="1276.0"/>
      <point x="1146.0" y="1236.0" type="qcurve" smooth="yes"/>
      <point x="894.0" y="1009.0"/>
      <point x="521.0" y="435.0"/>
      <point x="450.0" y="133.0" type="qcurve" smooth="yes"/>
      <point x="428.0" y="39.0" type="line" smooth="yes"/>
      <point x="417.0" y="-6.0"/>
      <point x="373.0" y="-6.0" type="qcurve" smooth="yes"/>
      <point x="282.0" y="-6.0" type="line" smooth="yes"/>
      <point x="236.0" y="-6.0"/>
      <point x="247.0" y="39.0" type="qcurve" smooth="yes"/>
      <point x="261.0" y="98.0" type="line" smooth="yes"/>
      <point x="354.0" y="491.0"/>
      <point x="735.0" y="1008.0"/>
      <point x="996.0" y="1258.0" type="qcurve"/>
      <point x="997.0" y="1260.0" type="line"/>
      <point x="966.0" y="1258.0"/>
      <point x="936.0" y="1258.0" type="qcurve" smooth="yes"/>
    </contour>
  </outline>
</glyph>
